/* XPM */
static const char * IconUtilisationShutterCentrage_xpm[] = {
"32 32 856 2",
"  	c #FDFDFD",
". 	c #FFFFFF",
"+ 	c #FCFCFC",
"@ 	c #FFFFFD",
"# 	c #FDFDFB",
"$ 	c #FFFEFA",
"% 	c #FFFEFB",
"& 	c #FFFBF8",
"* 	c #FCFEFB",
"= 	c #FBFFFD",
"- 	c #E1E2F4",
"; 	c #ABC8D6",
"> 	c #91A4CE",
", 	c #6A8DA9",
"' 	c #658C9B",
") 	c #5F89AF",
"! 	c #6996B5",
"~ 	c #83AEB5",
"{ 	c #A7BBDC",
"] 	c #D0DBF7",
"^ 	c #E4F8F9",
"/ 	c #FFFBFF",
"( 	c #FFFEFF",
"_ 	c #FFFDFF",
": 	c #FFFCF8",
"< 	c #FBFAF8",
"[ 	c #FCFFFF",
"} 	c #FAFFFF",
"| 	c #FEFEFE",
"1 	c #FFFDF9",
"2 	c #FEFFFF",
"3 	c #FBFAF6",
"4 	c #FCFEFD",
"5 	c #FBFFFF",
"6 	c #C2DBE0",
"7 	c #7F92A3",
"8 	c #456679",
"9 	c #3C5E79",
"0 	c #3D6A8B",
"a 	c #4E7789",
"b 	c #517FA3",
"c 	c #57879B",
"d 	c #6D9DB3",
"e 	c #84A6BF",
"f 	c #84ADC9",
"g 	c #88AAC3",
"h 	c #87AAA6",
"i 	c #BCBECA",
"j 	c #DEE9E5",
"k 	c #EFFFF8",
"l 	c #FEFAF7",
"m 	c #FDFEFF",
"n 	c #FAFEFF",
"o 	c #FEFEFC",
"p 	c #FDF9F6",
"q 	c #FFFFFA",
"r 	c #F9FFFF",
"s 	c #D4E4F1",
"t 	c #778C9D",
"u 	c #2B557D",
"v 	c #395B81",
"w 	c #376682",
"x 	c #496D9F",
"y 	c #476692",
"z 	c #507DA4",
"A 	c #477899",
"B 	c #2C597A",
"C 	c #6893BE",
"D 	c #89B6D7",
"E 	c #A1CADC",
"F 	c #A9D7D7",
"G 	c #B1D7EE",
"H 	c #A5BDDF",
"I 	c #8BB0C3",
"J 	c #AFC5DD",
"K 	c #EDF8FE",
"L 	c #FEFDFB",
"M 	c #FCFCFA",
"N 	c #F9FDFE",
"O 	c #F7FBFE",
"P 	c #BFCDDA",
"Q 	c #4A647B",
"R 	c #2C4E6A",
"S 	c #2E5F80",
"T 	c #3E647B",
"U 	c #456186",
"V 	c #416AA0",
"W 	c #FCFF00",
"X 	c #397897",
"Y 	c #4A7AAA",
"Z 	c #5272A5",
"` 	c #5F91C4",
" .	c #83B9DD",
"..	c #F5FF02",
"+.	c #A8D0EA",
"@.	c #AED8EE",
"#.	c #B6E1F4",
"$.	c #B9E1ED",
"%.	c #9FBDD7",
"&.	c #95A9B4",
"*.	c #D9E8EF",
"=.	c #F6FEFF",
"-.	c #F8FCFF",
";.	c #BCC6D0",
">.	c #354B60",
",.	c #315271",
"'.	c #375F83",
").	c #3C5E8C",
"!.	c #386989",
"~.	c #3E6586",
"{.	c #F3FF01",
"].	c #FCFF07",
"^.	c #467797",
"/.	c #5280A4",
"(.	c #5E8BA0",
"_.	c #72A0C4",
":.	c #8EC1D4",
"<.	c #FBFB00",
"[.	c #F9FF0C",
"}.	c #A9DAE9",
"|.	c #B9DDED",
"1.	c #A7DCEA",
"2.	c #C9DEF3",
"3.	c #B6D1E2",
"4.	c #8AA1AF",
"5.	c #D6E7EF",
"6.	c #FDFFFE",
"7.	c #FBFCFE",
"8.	c #F5FDFF",
"9.	c #C0CED9",
"0.	c #354A5D",
"a.	c #304E68",
"b.	c #395D7F",
"c.	c #366287",
"d.	c #345C80",
"e.	c #3B618E",
"f.	c #FBFF05",
"g.	c #FFF901",
"h.	c #396E98",
"i.	c #4584A7",
"j.	c #5A86A9",
"k.	c #75A5B9",
"l.	c #92B9D8",
"m.	c #FFFD07",
"n.	c #F9FE04",
"o.	c #B5D5E2",
"p.	c #B7DCE5",
"q.	c #C4DBEB",
"r.	c #AAD8E8",
"s.	c #95B8CB",
"t.	c #ABCCDD",
"u.	c #839DAC",
"v.	c #DAEBF3",
"w.	c #F7FFFF",
"x.	c #FEFDF8",
"y.	c #DCEAF3",
"z.	c #3C5569",
"A.	c #2F4E6A",
"B.	c #3F6282",
"C.	c #214567",
"D.	c #325678",
"E.	c #3A6A7E",
"F.	c #3A5C8A",
"G.	c #36638D",
"H.	c #FFFE0B",
"I.	c #FFFB00",
"J.	c #427296",
"K.	c #437596",
"L.	c #527FA8",
"M.	c #7BA4C2",
"N.	c #92BBD1",
"O.	c #FFFC00",
"P.	c #FEFD03",
"Q.	c #B9D6E8",
"R.	c #B9DFEC",
"S.	c #B9DBDD",
"T.	c #A1CFDE",
"U.	c #486E83",
"V.	c #9EC4D9",
"W.	c #ADD0E4",
"X.	c #859FAE",
"Y.	c #E7F4FA",
"Z.	c #FBFBFB",
"`.	c #FFFEF7",
" +	c #6E818F",
".+	c #2C4C65",
"++	c #355C7D",
"@+	c #365C80",
"#+	c #37597C",
"$+	c #3A5B7A",
"%+	c #325A7D",
"&+	c #35597B",
"*+	c #3B6484",
"=+	c #FEFC09",
"-+	c #FEFE00",
";+	c #426F8C",
">+	c #516C99",
",+	c #527F9C",
"'+	c #699DB5",
")+	c #9ABFDC",
"!+	c #FBFF16",
"~+	c #A7DBD9",
"{+	c #B9D5EA",
"]+	c #A6D7DE",
"^+	c #B0D7F6",
"/+	c #AAD3E9",
"(+	c #ABD5ED",
"_+	c #B0D8F1",
":+	c #9BBACC",
"<+	c #A7B8C0",
"[+	c #F9FEFF",
"}+	c #C2D3CD",
"|+	c #27425F",
"1+	c #355A6D",
"2+	c #3A5779",
"3+	c #375C86",
"4+	c #335A7B",
"5+	c #3A5975",
"6+	c #2E5D6F",
"7+	c #36587E",
"8+	c #40618C",
"9+	c #F9FC00",
"0+	c #FEFE08",
"a+	c #3E5A72",
"b+	c #3F5469",
"c+	c #3D5863",
"d+	c #426875",
"e+	c #597C90",
"f+	c #FFFF00",
"g+	c #F8FE00",
"h+	c #B7D6EB",
"i+	c #A9D1EB",
"j+	c #A6D2DF",
"k+	c #A7D0E4",
"l+	c #A8CBE9",
"m+	c #A4D1E6",
"n+	c #A9CEE0",
"o+	c #ACCFE2",
"p+	c #7D99BE",
"q+	c #D1E8F0",
"r+	c #FFFFFB",
"s+	c #FFFEF9",
"t+	c #68798D",
"u+	c #27426F",
"v+	c #3D577A",
"w+	c #355F87",
"x+	c #315C7C",
"y+	c #31577C",
"z+	c #3B587A",
"A+	c #3D5A82",
"B+	c #3F5779",
"C+	c #3E5483",
"D+	c #FFFE03",
"E+	c #FFFF05",
"F+	c #475E64",
"G+	c #4F5E59",
"H+	c #3E494D",
"I+	c #2B4248",
"J+	c #2E474C",
"K+	c #FFFF01",
"L+	c #FFFF03",
"M+	c #97ACC7",
"N+	c #A2C2D7",
"O+	c #A0C9DB",
"P+	c #A1CCDC",
"Q+	c #9DC7D3",
"R+	c #99C8CE",
"S+	c #9BC3DC",
"T+	c #9DC4D3",
"U+	c #83B2C6",
"V+	c #A8B5C6",
"W+	c #FBF8FF",
"X+	c #F7FFF8",
"Y+	c #D8DFF2",
"Z+	c #274257",
"`+	c #32586B",
" @	c #3C5A72",
".@	c #2D5878",
"+@	c #30567D",
"@@	c #32607A",
"#@	c #34627C",
"$@	c #335680",
"%@	c #3F557A",
"&@	c #40516D",
"*@	c #FDFF02",
"=@	c #FBFD00",
"-@	c #919586",
";@	c #9A927B",
">@	c #786D59",
",@	c #614E4A",
"'@	c #282216",
")@	c #FFF900",
"!@	c #F9FF00",
"~@	c #5C6D75",
"{@	c #90A8C2",
"]@	c #9DC2D2",
"^@	c #91BBD1",
"/@	c #98BFCE",
"(@	c #8EB8E0",
"_@	c #95C0D3",
":@	c #8FB4C7",
"<@	c #87BAD9",
"[@	c #7790A6",
"}@	c #E8EAF7",
"|@	c #FFFCFF",
"1@	c #A0ADB5",
"2@	c #253E54",
"3@	c #445E81",
"4@	c #3B5576",
"5@	c #FFFF07",
"6@	c #FFF909",
"7@	c #FFF604",
"8@	c #F7FF08",
"9@	c #FFFF04",
"0@	c #FAFC00",
"a@	c #FFFB0F",
"b@	c #7C7A53",
"c@	c #7A7557",
"d@	c #7E806A",
"e@	c #8D7867",
"f@	c #6B604E",
"g@	c #F2FF00",
"h@	c #FFFE0E",
"i@	c #FFFF0E",
"j@	c #F8FF0A",
"k@	c #FFFB0C",
"l@	c #F6FF00",
"m@	c #80B0D4",
"n@	c #85B4D2",
"o@	c #5794A9",
"p@	c #BCD8DC",
"q@	c #F6FFFA",
"r@	c #678398",
"s@	c #224E67",
"t@	c #3A5A8B",
"u@	c #F5FF05",
"v@	c #F1FF00",
"w@	c #FFF700",
"x@	c #F8FF00",
"y@	c #FBFF01",
"z@	c #FFFF02",
"A@	c #FFFB03",
"B@	c #F3FF00",
"C@	c #BEBEA2",
"D@	c #A7A6A4",
"E@	c #ABAA8B",
"F@	c #C2C1A2",
"G@	c #BBBBA1",
"H@	c #F8FF01",
"I@	c #FDFF01",
"J@	c #FFFA00",
"K@	c #FFFF09",
"L@	c #FAFB00",
"M@	c #FEFF00",
"N@	c #F7FD00",
"O@	c #7E9FC8",
"P@	c #7492AE",
"Q@	c #99ADB6",
"R@	c #FCFFFA",
"S@	c #4B5878",
"T@	c #385962",
"U@	c #335A83",
"V@	c #346590",
"W@	c #3A5D7B",
"X@	c #326081",
"Y@	c #2C5777",
"Z@	c #375B75",
"`@	c #3E5479",
" #	c #466079",
".#	c #646D76",
"+#	c #958B81",
"@#	c #ABA48A",
"##	c #C8CFB0",
"$#	c #C8C7A9",
"%#	c #FBFF00",
"&#	c #C8CEB4",
"*#	c #D6D5C3",
"=#	c #A89B8A",
"-#	c #77695E",
";#	c #30232A",
">#	c #3E4152",
",#	c #3F616B",
"'#	c #6C99B0",
")#	c #6492AA",
"!#	c #7491B9",
"~#	c #6E93C0",
"{#	c #5EA0C2",
"]#	c #6194B3",
"^#	c #6795AF",
"/#	c #8092A8",
"(#	c #FFFAF7",
"_#	c #37485C",
":#	c #37526F",
"<#	c #3A5E74",
"[#	c #3A648C",
"}#	c #345974",
"|#	c #336179",
"1#	c #355A74",
"2#	c #40567B",
"3#	c #475C7B",
"4#	c #4E5E6E",
"5#	c #6E656A",
"6#	c #988C8E",
"7#	c #ABA1A0",
"8#	c #CBC3AC",
"9#	c #C4B7AE",
"0#	c #C4C7B2",
"a#	c #CBC3B0",
"b#	c #9C8E83",
"c#	c #8C7F76",
"d#	c #392F26",
"e#	c #2B323A",
"f#	c #305158",
"g#	c #5B7F95",
"h#	c #557FA9",
"i#	c #5586A7",
"j#	c #528B9C",
"k#	c #5189A4",
"l#	c #4D7493",
"m#	c #4D81A9",
"n#	c #608798",
"o#	c #283E4B",
"p#	c #395C70",
"q#	c #2C5279",
"r#	c #344B7F",
"s#	c #4C6B87",
"t#	c #3F5F86",
"u#	c #3F628C",
"v#	c #3D6086",
"w#	c #476F79",
"x#	c #4B565C",
"y#	c #705D4C",
"z#	c #77746B",
"A#	c #A3A47C",
"B#	c #FEFF09",
"C#	c #FFFF08",
"D#	c #FEFC07",
"E#	c #FAFF03",
"F#	c #FFFD04",
"G#	c #8D7366",
"H#	c #80765B",
"I#	c #3C352D",
"J#	c #1F2D30",
"K#	c #3D5C70",
"L#	c #4D6394",
"M#	c #467A92",
"N#	c #44709F",
"O#	c #4E7C93",
"P#	c #527096",
"Q#	c #305379",
"R#	c #4B799A",
"S#	c #597F94",
"T#	c #FAFBFF",
"U#	c #31415B",
"V#	c #3B5F6F",
"W#	c #476597",
"X#	c #3F628A",
"Y#	c #496D8F",
"Z#	c #3E6F9A",
"`#	c #476D9A",
" $	c #456483",
".$	c #4B7281",
"+$	c #4A6672",
"@$	c #685C66",
"#$	c #8B807A",
"$$	c #A4A88F",
"%$	c #BFC4AD",
"&$	c #B9BAA8",
"*$	c #FEFF07",
"=$	c #BABAAE",
"-$	c #CBC8B9",
";$	c #9F9A84",
">$	c #8A8170",
",$	c #463B3F",
"'$	c #313443",
")$	c #3F687E",
"!$	c #506882",
"~$	c #407192",
"{$	c #457792",
"]$	c #497497",
"^$	c #4B759D",
"/$	c #3D7493",
"($	c #5E7A86",
"_$	c #FFFAFF",
":$	c #415A5E",
"<$	c #3C5B6F",
"[$	c #416E8F",
"}$	c #528195",
"|$	c #4B7C83",
"1$	c #4B7BA1",
"2$	c #447586",
"3$	c #5F7C8E",
"4$	c #5B7D96",
"5$	c #607787",
"6$	c #6C6867",
"7$	c #8E8C80",
"8$	c #A2A68F",
"9$	c #D1CCB8",
"0$	c #CFC3AB",
"a$	c #FDFD00",
"b$	c #D1CCB6",
"c$	c #DCD4C9",
"d$	c #A79B81",
"e$	c #887B72",
"f$	c #4D4B3F",
"g$	c #4A585B",
"h$	c #304F63",
"i$	c #406C87",
"j$	c #396487",
"k$	c #3F6397",
"l$	c #396194",
"m$	c #456A97",
"n$	c #497099",
"o$	c #3E6793",
"p$	c #628790",
"q$	c #F5FFFF",
"r$	c #617F81",
"s$	c #32516E",
"t$	c #5C73A5",
"u$	c #F1FF0A",
"v$	c #FAFF00",
"w$	c #FFF403",
"x$	c #FFFF06",
"y$	c #FCFD01",
"z$	c #A99B81",
"A$	c #867B65",
"B$	c #8E8063",
"C$	c #94946E",
"D$	c #9F9773",
"E$	c #FFF701",
"F$	c #FBFF02",
"G$	c #FBFE00",
"H$	c #F9FF02",
"I$	c #47678D",
"J$	c #36627F",
"K$	c #789BB1",
"L$	c #99A7A7",
"M$	c #254260",
"N$	c #5F7D9F",
"O$	c #637EA9",
"P$	c #FBFF03",
"Q$	c #FFFD00",
"R$	c #FDFF08",
"S$	c #FCFF05",
"T$	c #F5FF00",
"U$	c #FEFF03",
"V$	c #817867",
"W$	c #747661",
"X$	c #79845A",
"Y$	c #868768",
"Z$	c #7B7867",
"`$	c #FFFC04",
" %	c #F7FF00",
".%	c #FFFF0F",
"+%	c #426288",
"@%	c #4A6997",
"#%	c #2F5A7C",
"$%	c #B0B8C5",
"%%	c #FFFCFC",
"&%	c #D0E2E6",
"*%	c #1E3D42",
"=%	c #5F7E9D",
"-%	c #6987A3",
";%	c #6892AA",
">%	c #7A97B5",
",%	c #7A92BE",
"'%	c #779FB9",
")%	c #84A0B8",
"!%	c #7C9CB5",
"~%	c #809BA2",
"{%	c #F6FF01",
"]%	c #BFC0C5",
"^%	c #D4E0D4",
"/%	c #D9E5D9",
"(%	c #D5DADD",
"_%	c #94A096",
":%	c #F2FD00",
"<%	c #405663",
"[%	c #456282",
"}%	c #415E7C",
"|%	c #38597C",
"1%	c #3A5E80",
"2%	c #35617C",
"3%	c #3E6187",
"4%	c #446497",
"5%	c #39698F",
"6%	c #3D5F6B",
"7%	c #D1DFE2",
"8%	c #F8FFFF",
"9%	c #5F6072",
"0%	c #465D7C",
"a%	c #5E8D9D",
"b%	c #719DAA",
"c%	c #769EA8",
"d%	c #7A9FB9",
"e%	c #84A3BF",
"f%	c #89ABC7",
"g%	c #82ACBC",
"h%	c #83A6BA",
"i%	c #FFFC0D",
"j%	c #FFF500",
"k%	c #8E9DB4",
"l%	c #91ACB5",
"m%	c #83A2A7",
"n%	c #5E7388",
"o%	c #576F79",
"p%	c #FBFA00",
"q%	c #486688",
"r%	c #3C647D",
"s%	c #375A84",
"t%	c #3C6380",
"u%	c #2D6482",
"v%	c #3D5B8D",
"w%	c #426791",
"x%	c #306994",
"y%	c #305A80",
"z%	c #718493",
"A%	c #F9FFF8",
"B%	c #FFFFF2",
"C%	c #BFC8C7",
"D%	c #1E425A",
"E%	c #6089A7",
"F%	c #5E9AB6",
"G%	c #7D9CB0",
"H%	c #87ACBE",
"I%	c #7AA8BF",
"J%	c #85AABC",
"K%	c #8EB2C2",
"L%	c #9CC1C9",
"M%	c #6F90A1",
"N%	c #608890",
"O%	c #4D7B8B",
"P%	c #4B6F89",
"Q%	c #42667E",
"R%	c #FFFE04",
"S%	c #476984",
"T%	c #3E638D",
"U%	c #466883",
"V%	c #3C5C8B",
"W%	c #3E598E",
"X%	c #426A8D",
"Y%	c #29637B",
"Z%	c #3C5A80",
"`%	c #38547C",
" &	c #CDCBD8",
".&	c #FEFFFB",
"+&	c #61677F",
"@&	c #456989",
"#&	c #7395B1",
"$&	c #7BA2B3",
"%&	c #84A2BA",
"&&	c #83ADC5",
"*&	c #8DAFC8",
"=&	c #98B2C3",
"-&	c #96B5C7",
";&	c #FBFD04",
">&	c #FBFE01",
",&	c #8CAECA",
"'&	c #7291A6",
")&	c #5A80A5",
"!&	c #4E7A93",
"~&	c #4B7490",
"{&	c #4B6F8F",
"]&	c #416F89",
"^&	c #3E6390",
"/&	c #3E6785",
"(&	c #375D84",
"_&	c #345E74",
":&	c #43697E",
"<&	c #2E5B7A",
"[&	c #6E80A8",
"}&	c #EFFFF6",
"|&	c #FDF8FE",
"1&	c #FAFEFD",
"2&	c #DDE0E9",
"3&	c #334657",
"4&	c #588099",
"5&	c #72A1BB",
"6&	c #7AA2BB",
"7&	c #8FA9C0",
"8&	c #8DADC4",
"9&	c #8BB9C6",
"0&	c #8FB4D1",
"a&	c #FFFE00",
"b&	c #80A5BF",
"c&	c #728FAF",
"d&	c #548596",
"e&	c #55738D",
"f&	c #447093",
"g&	c #FBFB05",
"h&	c #476E8D",
"i&	c #4A7796",
"j&	c #4F669A",
"k&	c #426A8E",
"l&	c #305369",
"m&	c #315575",
"n&	c #345A7E",
"o&	c #405C74",
"p&	c #DBE8F0",
"q&	c #FDFEF8",
"r&	c #FFFCFD",
"s&	c #BDC6CF",
"t&	c #294352",
"u&	c #6389A0",
"v&	c #7CA4BE",
"w&	c #80A5C0",
"x&	c #94B0C5",
"y&	c #92B5C9",
"z&	c #8FB1D4",
"A&	c #FFFD03",
"B&	c #FFFA03",
"C&	c #7A9EC0",
"D&	c #6595A1",
"E&	c #507AAA",
"F&	c #477D99",
"G&	c #5775AB",
"H&	c #F3F800",
"I&	c #537D93",
"J&	c #54749D",
"K&	c #51708F",
"L&	c #46738A",
"M&	c #476C86",
"N&	c #3D607C",
"O&	c #3A546D",
"P&	c #B9C9D8",
"Q&	c #F7FDFD",
"R&	c #FEFEFF",
"S&	c #FDFCFA",
"T&	c #FEFBF6",
"U&	c #B8C1C8",
"V&	c #2A4153",
"W&	c #6387A1",
"X&	c #7CA9C6",
"Y&	c #7F9AAF",
"Z&	c #7DABC5",
"`&	c #89AFBC",
" *	c #719AB6",
".*	c #5F8A9B",
"+*	c #558297",
"@*	c #528090",
"#*	c #466E9F",
"$*	c #FCFF01",
"%*	c #4D728D",
"&*	c #547994",
"**	c #488192",
"=*	c #54728C",
"-*	c #3F6781",
";*	c #3C576C",
">*	c #B0BDC6",
",*	c #FAFAFC",
"'*	c #FDFEF9",
")*	c #F9FAFC",
"!*	c #FAF9F4",
"~*	c #C2C8D4",
"{*	c #3E5565",
"]*	c #52778A",
"^*	c #7BA6AF",
"/*	c #72A4BF",
"(*	c #7B9EB2",
"_*	c #809BAE",
":*	c #F7FC02",
"<*	c #5E95B3",
"[*	c #5D89A4",
"}*	c #4F7196",
"|*	c #53728F",
"1*	c #4F7BA0",
"2*	c #4E7191",
"3*	c #587BA3",
"4*	c #4F88A6",
"5*	c #557894",
"6*	c #4D697F",
"7*	c #B9C9D6",
"8*	c #FFFDF7",
"9*	c #FFFAFA",
"0*	c #FAFFFE",
"a*	c #F7F5F8",
"b*	c #DEE5EB",
"c*	c #728186",
"d*	c #37557B",
"e*	c #577F98",
"f*	c #6693B2",
"g*	c #7593B5",
"h*	c #6C8CA3",
"i*	c #618DB4",
"j*	c #57859F",
"k*	c #366384",
"l*	c #3D5D84",
"m*	c #56789B",
"n*	c #557F95",
"o*	c #59779D",
"p*	c #5783A6",
"q*	c #396B8C",
"r*	c #486084",
"s*	c #858EAF",
"t*	c #D9E6EF",
"u*	c #FFFCF9",
"v*	c #FFFDF8",
"w*	c #FFFBF5",
"x*	c #F3FBFE",
"y*	c #FFFCFB",
"z*	c #C1CDDB",
"A*	c #778797",
"B*	c #495B6F",
"C*	c #2C697B",
"D*	c #5A7894",
"E*	c #4A7899",
"F*	c #4B7990",
"G*	c #49769F",
"H*	c #467496",
"I*	c #4C7297",
"J*	c #406E7D",
"K*	c #3A647C",
"L*	c #42626F",
"M*	c #7C91A4",
"N*	c #D4D1DC",
"O*	c #F8FFF0",
"P*	c #FDFDFF",
"Q*	c #FEFFFA",
"R*	c #F9FDFF",
"S*	c #FCFDFF",
"T*	c #FFFDF5",
"U*	c #F9FCFF",
"V*	c #FFFDFA",
"W*	c #F2FEFA",
"X*	c #E1E1ED",
"Y*	c #A8C3CC",
"Z*	c #728F97",
"`*	c #617687",
" =	c #55657C",
".=	c #46667B",
"+=	c #596F7D",
"@=	c #5A7D83",
"#=	c #8299AB",
"$=	c #B7C1CA",
"%=	c #DDEAF0",
"&=	c #FCFFFB",
"*=	c #FFF9FB",
"==	c #FFFEFD",
"-=	c #FAFCF9",
";=	c #F8FAF9",
">=	c #FBF9FA",
",=	c #FAFFFB",
"'=	c #FFFAFE",
")=	c #FFFDFE",
"!=	c #FFFDED",
"~=	c #FAF7FF",
"{=	c #F9FFF4",
"]=	c #FFF8FF",
"^=	c #FEFBFF",
"/=	c #FFFBFC",
"(=	c #F7FCFF",
"_=	c #FFFDFC",
":=	c #FBFFFE",
"<=	c #FEFFFD",
"[=	c #FDF8F5",
"}=	c #FFFDFB",
"  . + @ # $ % & * = - ; > , ' ) ! ~ { ] ^ / ( _   % : < [ } | 1 ",
"2   @ 3 @ 4 5 5 6 7 8 9 0 a b c d e f g h i j k 5   l @ m n . & ",
"m o p q + r s t u v w x y z A B C D E F G H I J K 5 . L M | | @ ",
"N @ % % O P Q R S T U V W X Y Z `  ...+.@.#.$.%.&.*.=.4 @ @     ",
"2   | -.;.>.,.'.).!.~.{.].^./.(._.:.<.[.}.|.1.2.3.4.5.r 6.L . 7.",
"@ 2 8.9.0.a.b.'.c.d.e.f.g.h.i.j.k.l.m.n.o.p.q.r.s.t.u.v.w.+ . 2 ",
"x.5 y.z.A.B.C.D.E.F.G.H.I.J.K.L.M.N.O.P.Q.R.S.T.U.V.W.X.Y.[   Z.",
"`.}  +.+++@+#+$+%+&+*+=+-+;+>+,+'+)+W !+~+{+]+^+/+(+_+:+<+[+| . ",
"# }+|+1+2+3+4+5+6+7+8+9+0+a+b+c+d+e+f+g+h+i+j+k+l+m+n+o+p+q+r+s+",
"[ t+u+v+w+x+y+z+A+B+C+D+E+F+G+H+I+J+K+L+M+N+O+P+Q+R+S+T+U+V+W+X+",
"Y+Z+`+ @.@+@@@#@$@%@&@*@=@-@;@>@,@'@)@!@~@{@]@^@/@(@_@:@<@[@}@|@",
"1@2@3@4@f+5@6@7@8@9@0@a@E+b@c@d@e@f@O.f+g@h@=@i@j@k@l@m@n@o@p@q@",
"r@s@t@u@v@w@O.x@y@0@z@A@B@C@D@E@F@G@H@I@f+J@K@L@K+I.M@N@O@P@Q@R@",
"S@T@U@V@W@X@Y@Z@`@ #.#+#@###$#%#&#*#=#-#;#>#,#'#)#!#~#{#]#^#/#(#",
"_#:#<#[#}#|#1#2#3#4#5#6#7#8#9#W 0#a#b#c#d#e#f#g#h#i#j#k#l#m#n#. ",
"o#p#q#r#s#t#u#v#w#x#y#z#A#B#C#D#E#F#G#H#I#J#K#L#M#N#O#P#Q#R#S#T#",
"U#V#W#X#Y#Z#`# $.$+$@$#$$$%$&$*$=$-$;$>$,$'$z.)$!$~${$]$^$/$($_$",
":$<$[$}$|$1$2$3$4$5$6$7$8$9$0$a$b$c$d$e$f$g$h$i$j$k$l$m$n$o$p$q$",
"r$s$t$u$v$w$9@v$a$x$z@y$B@z$A$B$C$D$M@E$f+O.z@a$F$G$!@H$I$J$K$2 ",
"L$M$N$O$P$f+Q$R$S$T$l@K+U$V$W$X$Y$Z$`$L+ %!@9+.%D#`$I@+%@%#%$%%%",
"&%*%=%-%;%>%,%'%)%!%~%{%K@]%^%/%(%_%L+:%<%[%}%|%1%2%3%4%5%6%7%8%",
"[ 9%0%a%b%c%d%e%f%g%h%i%j%k%l%m%n%o%p%l@q%r%s%t%u%v%w%x%y%z%A%@ ",
"B%C%D%E%F%G%H%I%J%K%L%M@C#M%N%O%P%Q%R%K+S%T%U%V%W%X%Y%Z%`% &.&[+",
"% q +&@&#&$&%&&&*&=&-&;&>&,&'&)&!&~&Q$D#{&]&^&/&(&_&:&<&[&}&|&% ",
"1&. 2&3&4&5&6&7&8&9&0&a&5@b&c&d&e&f&E+g&h&i&j&k&l&m&n&o&p&q&q r&",
"m ( . s&t&u&v&w&x&y&z&A&B&C&D&E&F&G&H&m.I&J&K&L&M&N&O&P&Q&q @ 2 ",
"R&S&T&@ U&V&W&X&Y&Z&`&x@9@ *.*+*@*#*$*9@%*&***=*-*;*>*,*q '*)*[ ",
"_ @ q !*. ~*{*]*^*/*(*_*:*<*[*}*|*1*%#2*3*4*5* $6*7*. 8*s+6.2 m ",
"9*Z.0*[ a*( b*c*d*e*f*g*h*i*j*k*l*m*n*o*p*q*r*s*t*5 u*v*4 5 . w*",
"%%2 8%x*. y*u*M z*A*B*C*D*E*F*G*H*I*J*K*L*M*N*O*P*@ Q*2 R*S*L T*",
"@ S*U*2 M $ V*( r&W*X*Y*Z*`* =.=+=@=#=$=%=u*&=*===@ -=;=. >=@ '*",
",=. '=)=x.q m R&!=5 y*~={=]=. * ^=. ( /=(=_=_ .&/=2 :=<=[=}=Z.w."};
