/* XPM */
static const char * IconFanModeLow_xpm[] = {
"32 32 117 2",
"  	c #FFFFFF",
". 	c #FEFEFE",
"+ 	c #FDFDFD",
"@ 	c #FBFBFB",
"# 	c #EFEFEF",
"$ 	c #939393",
"% 	c #4D4D4D",
"& 	c #464646",
"* 	c #7B7B7B",
"= 	c #DADADA",
"- 	c #FCFCFC",
"; 	c #E8E8E8",
"> 	c #434343",
", 	c #000000",
"' 	c #010101",
") 	c #020202",
"! 	c #171717",
"~ 	c #C6C6C6",
"{ 	c #858585",
"] 	c #3F3F3F",
"^ 	c #3C3C3C",
"/ 	c #040404",
"( 	c #0C0C0C",
"_ 	c #DFDFDF",
": 	c #F8F8F8",
"< 	c #292929",
"[ 	c #030303",
"} 	c #080808",
"| 	c #C9C9C9",
"1 	c #333333",
"2 	c #0A0A0A",
"3 	c #D7D7D7",
"4 	c #FAFAFA",
"5 	c #E7E7E7",
"6 	c #646464",
"7 	c #212121",
"8 	c #7C7C7C",
"9 	c #3D3D3D",
"0 	c #979797",
"a 	c #565656",
"b 	c #F1F1F1",
"c 	c #F6F6F6",
"d 	c #F3F3F3",
"e 	c #BABABA",
"f 	c #828282",
"g 	c #F9F9F9",
"h 	c #F5F5F5",
"i 	c #F2F2F2",
"j 	c #E3E3E3",
"k 	c #6D6D6D",
"l 	c #2D2D2D",
"m 	c #151515",
"n 	c #1F1F1F",
"o 	c #353535",
"p 	c #696969",
"q 	c #A5A5A5",
"r 	c #999999",
"s 	c #070707",
"t 	c #727272",
"u 	c #B1B1B1",
"v 	c #8D8D8D",
"w 	c #6A6A6A",
"x 	c #505050",
"y 	c #232323",
"z 	c #181818",
"A 	c #545454",
"B 	c #BEBEBE",
"C 	c #EAEAEA",
"D 	c #2E2E2E",
"E 	c #050505",
"F 	c #7E7E7E",
"G 	c #8A8A8A",
"H 	c #969696",
"I 	c #252525",
"J 	c #1C1C1C",
"K 	c #818181",
"L 	c #1B1B1B",
"M 	c #0E0E0E",
"N 	c #808080",
"O 	c #1A1A1A",
"P 	c #2B2B2B",
"Q 	c #B9B9B9",
"R 	c #DDDDDD",
"S 	c #5E5E5E",
"T 	c #2A2A2A",
"U 	c #444444",
"V 	c #5A5A5A",
"W 	c #7A7A7A",
"X 	c #9D9D9D",
"Y 	c #ADADAD",
"Z 	c #878787",
"` 	c #515151",
" .	c #191919",
"..	c #141414",
"+.	c #B4B4B4",
"@.	c #EDEDED",
"#.	c #EBEBEB",
"$.	c #BDBDBD",
"%.	c #7F7F7F",
"&.	c #ECECEC",
"*.	c #EEEEEE",
"=.	c #575757",
"-.	c #404040",
";.	c #636363",
">.	c #F7F7F7",
",.	c #4E4E4E",
"'.	c #111111",
").	c #E9E9E9",
"!.	c #323232",
"~.	c #CBCBCB",
"{.	c #3A3A3A",
"].	c #090909",
"^.	c #DEDEDE",
"/.	c #3B3B3B",
"(.	c #BBBBBB",
"_.	c #494949",
":.	c #D3D3D3",
"                    .             .     . + . .                 ",
"                    . @   # $ % & * =       +                   ",
"                  -     ; > , ' ) , ! ~ + .   @                 ",
"                  +     { , , , ) , ) ]   +                     ",
"                @   . @ ^ ) , ) , / , ( _ .   -                 ",
"                  -   : < [ , , ' ) , } |   .                   ",
"                    + @ 1 , ' [ , , ' 2 3 4   +                 ",
"                      - % , , ' , ' ' ( 5   +                   ",
"  @   .   -   .     . - 6 , , ' , , , 7 : .   .     . .     .   ",
".   +       . .   +     8 , / , , ' , 9 :       @       +   .   ",
"    @     4           + 0 [ , , ' ) , a     . +   . +   +   . + ",
"+ .   @ b c d @     @   e ' , ) ' , , f   g     - h d i @   -   ",
"    j k l m n o % p { q r s ) , , / , t u v w x ^ y z n A B   @ ",
"  C D , , [ ' , ) , / , E [ ' , ) , [ ' ) ' ' ' , ) [ , ) 2 e   ",
"  F / ' , , ) , , , , , [ , m G H I , ) [ , ' ' , ) , ) ) , ]   ",
"  J , , / , ' , , , ' , , , K     r ) ) , , ' , ) , , ' , ' E   ",
"  L , , [ , , , , , , [ , , *     0 ' ) , , ' , ' , ' , ' [ [   ",
"  * / ) , , ' ' ) ) , , , ) M * N O , , , , ' , , [ , ' , , ^   ",
"  ; P , ) , , , , , E , / ) ' , [ , [ , , , , , ' , ) , / ( Q @ ",
"+   R S J 2 O T U V W X r E E ) , ) , t Y Z 6 ` o  .M ..& +.    ",
"  - +   d @.#.c .   +   $.) , , [ , , %.  .   - @ b &.*.-   g . ",
"    +     @     -     4 r ' , ) , ' ) =.-   .   .   .   .   +   ",
"@   .   .     +   @ . . F , ) , [ , , -.-   -   +   +   .       ",
"  4   +   .     +       ;.' , , , , ' n >.    .     .   .     . ",
"                  . .   ,., [ , ) , ' '.).  +                   ",
"                - .   4 !.) , ' , ) ) s 3 +   .                 ",
"                      >.< ) ' ' ' ) , 2 ~.  -                   ",
"                  .   + {., , ) , / , ].^.+                     ",
"                  -     K , [ , , , ) /.. .   @                 ",
"                +   + . 5 {.' ' , / ..(.    .                   ",
"                  +   -   5 { _.U p :.  + -                     ",
"                  +     .     .     . +     +                   "};
