/* XPM */
static const char * IconStopPoseImage_xpm[] = {
"32 32 593 2",
"  	c #FFFDFE",
". 	c #F9FFFF",
"+ 	c #FEFDFF",
"@ 	c #FFFEFC",
"# 	c #FBFFFF",
"$ 	c #FEFFFA",
"% 	c #FFFFFA",
"& 	c #FEFFFF",
"* 	c #FFFCFC",
"= 	c #FFFFFB",
"- 	c #FFFFFD",
"; 	c #FCFDFF",
"> 	c #FFFAFF",
", 	c #FAFFFF",
"' 	c #FFFBFF",
") 	c #F9FEFF",
"! 	c #FFFDFD",
"~ 	c #FFFEFD",
"{ 	c #F9FDFC",
"] 	c #FFFCFF",
"^ 	c #FAFFFA",
"/ 	c #FFFFFF",
"( 	c #F8FFFD",
"_ 	c #FFFDFF",
": 	c #FEFFFD",
"< 	c #F9FCF1",
"[ 	c #FFFEFB",
"} 	c #FBFFFE",
"| 	c #FFFEFF",
"1 	c #EFFDFF",
"2 	c #E2EBEA",
"3 	c #E9C6C4",
"4 	c #E8C1BA",
"5 	c #E0CCC5",
"6 	c #E6C4C5",
"7 	c #E8C0C1",
"8 	c #E6C3BF",
"9 	c #E9C6C2",
"0 	c #E9C2C3",
"a 	c #E2C8C7",
"b 	c #E5C8C4",
"c 	c #EBBEB9",
"d 	c #E4C7C3",
"e 	c #E4E5E7",
"f 	c #F4FDFF",
"g 	c #FFFBFA",
"h 	c #F8FFFF",
"i 	c #F6FFF7",
"j 	c #FFFFF4",
"k 	c #F9FFF6",
"l 	c #FEF9FF",
"m 	c #F7FFFF",
"n 	c #F6FAFB",
"o 	c #E7F4E3",
"p 	c #F68283",
"q 	c #FF121C",
"r 	c #FF0505",
"s 	c #FF100E",
"t 	c #FA0A09",
"u 	c #FA130B",
"v 	c #FC1002",
"w 	c #F51202",
"x 	c #FB110A",
"y 	c #FE080B",
"z 	c #FE0F0C",
"A 	c #FB0603",
"B 	c #FF0C18",
"C 	c #FF747B",
"D 	c #DDF3DE",
"E 	c #F7FBFC",
"F 	c #FBFEFF",
"G 	c #FEFFF6",
"H 	c #FBFFFA",
"I 	c #FFFAFE",
"J 	c #FFFAF5",
"K 	c #F6F8F3",
"L 	c #EEECED",
"M 	c #FF7876",
"N 	c #F60817",
"O 	c #F90000",
"P 	c #FF0500",
"Q 	c #FF0507",
"R 	c #FF0105",
"S 	c #FD0001",
"T 	c #FB0002",
"U 	c #FE0008",
"V 	c #FF0408",
"W 	c #FF0700",
"X 	c #FA0000",
"Y 	c #F7030F",
"Z 	c #FF716E",
"` 	c #E4E8E7",
" .	c #FFF6F6",
"..	c #FFFDF6",
"+.	c #FFFBFB",
"@.	c #FAFFFC",
"#.	c #FFF9FF",
"$.	c #FDF9F8",
"%.	c #F2FFFF",
"&.	c #E9EBE6",
"*.	c #F4797B",
"=.	c #FF0101",
"-.	c #FD0000",
";.	c #F60500",
">.	c #FC0300",
",.	c #FF0300",
"'.	c #F90306",
").	c #FD040C",
"!.	c #FA0001",
"~.	c #FF0200",
"{.	c #FF0400",
"].	c #FD0600",
"^.	c #FA0100",
"/.	c #F6696F",
"(.	c #E4EBE4",
"_.	c #F4F9F5",
":.	c #FDFEFF",
"<.	c #FFFEFA",
"[.	c #E6EAED",
"}.	c #F98588",
"|.	c #FF0103",
"1.	c #FB0000",
"2.	c #F60305",
"3.	c #FE020D",
"4.	c #FD0006",
"5.	c #FC0000",
"6.	c #FB0400",
"7.	c #FF0100",
"8.	c #FB0200",
"9.	c #FB0004",
"0.	c #FE030C",
"a.	c #F40201",
"b.	c #FE0000",
"c.	c #FB6F7A",
"d.	c #DEEDEA",
"e.	c #FCFFFF",
"f.	c #F8FEFE",
"g.	c #FCFFFD",
"h.	c #F4FBF4",
"i.	c #E8EDE7",
"j.	c #F98689",
"k.	c #FF050D",
"l.	c #FE0200",
"m.	c #FC0404",
"n.	c #FF0303",
"o.	c #FD0402",
"p.	c #F70000",
"q.	c #FF0600",
"r.	c #FD0004",
"s.	c #FD747E",
"t.	c #E3EEE6",
"u.	c #FFF5F4",
"v.	c #FEFCFD",
"w.	c #FBFFFB",
"x.	c #F6FCFC",
"y.	c #EEF0EF",
"z.	c #F37D7D",
"A.	c #FF0204",
"B.	c #F40502",
"C.	c #FF0006",
"D.	c #FC0001",
"E.	c #F60605",
"F.	c #FE0002",
"G.	c #FE0405",
"H.	c #F60100",
"I.	c #FF0301",
"J.	c #FE0007",
"K.	c #FD0100",
"L.	c #F46C70",
"M.	c #E2EBE8",
"N.	c #F7FDFD",
"O.	c #FFFDFB",
"P.	c #FFF7FC",
"Q.	c #E3EFED",
"R.	c #FF7B77",
"S.	c #FA0200",
"T.	c #FE0003",
"U.	c #F20C00",
"V.	c #FC0100",
"W.	c #FC000D",
"X.	c #FF0008",
"Y.	c #F70200",
"Z.	c #FC0006",
"`.	c #FF0307",
" +	c #FE0005",
".+	c #FF0202",
"++	c #FF000D",
"@+	c #FF000A",
"#+	c #FF5F67",
"$+	c #DDEEE8",
"%+	c #F7F8FC",
"&+	c #DAE7ED",
"*+	c #F9818A",
"=+	c #FE0300",
"-+	c #FF0509",
";+	c #F90200",
">+	c #FF0208",
",+	c #FB0005",
"'+	c #FD0200",
")+	c #FF0206",
"!+	c #FC6866",
"~+	c #E8E5E0",
"{+	c #E7C2BA",
"]+	c #F30C12",
"^+	c #FF0401",
"/+	c #FF0F0E",
"(+	c #F91016",
"_+	c #FC0D0A",
":+	c #FF0801",
"<+	c #FF080B",
"[+	c #FF030E",
"}+	c #FF0910",
"|+	c #FA0203",
"1+	c #FB161D",
"2+	c #FB0804",
"3+	c #F20000",
"4+	c #F90801",
"5+	c #FF060C",
"6+	c #FE0A12",
"7+	c #FB0100",
"8+	c #F50C0F",
"9+	c #EFADAF",
"0+	c #FCFFF8",
"a+	c #E8B4B8",
"b+	c #FB8385",
"c+	c #FCF2E6",
"d+	c #FFFEF6",
"e+	c #FDAAA4",
"f+	c #FA0006",
"g+	c #FA3137",
"h+	c #FFECE8",
"i+	c #FDE6F0",
"j+	c #FCDEE8",
"k+	c #FEF4F3",
"l+	c #FAB4B2",
"m+	c #FE0500",
"n+	c #FD130C",
"o+	c #FFAAA7",
"p+	c #FFE1E2",
"q+	c #FC5859",
"r+	c #FFCED1",
"s+	c #FEE9F0",
"t+	c #FFF5EF",
"u+	c #F7DED7",
"v+	c #F86A69",
"w+	c #FA000C",
"x+	c #EEA8AA",
"y+	c #FFF9FE",
"z+	c #E8B1B6",
"A+	c #FF3E43",
"B+	c #FEFAF9",
"C+	c #FF9999",
"D+	c #FC757C",
"E+	c #FFF9F8",
"F+	c #FF7269",
"G+	c #FF060B",
"H+	c #FA7473",
"I+	c #FFBAC2",
"J+	c #FFF9F3",
"K+	c #FF918D",
"L+	c #FF5A5E",
"M+	c #F80001",
"N+	c #FF898B",
"O+	c #FFFDF1",
"P+	c #FA747F",
"Q+	c #FCC2C1",
"R+	c #FAE9EF",
"S+	c #FD1A2D",
"T+	c #FF0A11",
"U+	c #FFF8F6",
"V+	c #FDC4B1",
"W+	c #FF6B6E",
"X+	c #FEAFB4",
"Y+	c #FF474C",
"Z+	c #ECA7A0",
"`+	c #FCFFFA",
" @	c #E7B9BC",
".@	c #F60003",
"+@	c #FF5E61",
"@@	c #F6292E",
"#@	c #FE0100",
"$@	c #FF473C",
"%@	c #FA3836",
"&@	c #EF0504",
"*@	c #FF6D79",
"=@	c #EE1F19",
"-@	c #FF0A0E",
";@	c #FEEFE8",
">@	c #FE9C9D",
",@	c #FB2628",
"'@	c #FB6564",
")@	c #FDFFF4",
"!@	c #FF838B",
"~@	c #FC0008",
"{@	c #F71016",
"]@	c #FFF5F8",
"^@	c #FF8488",
"/@	c #F70201",
"(@	c #E6AEAD",
"_@	c #E7B9BB",
":@	c #F90500",
"<@	c #FB3532",
"[@	c #FCFAFF",
"}@	c #FFB3BC",
"|@	c #FB2324",
"1@	c #F70106",
"2@	c #F90003",
"3@	c #FF676B",
"4@	c #FF1921",
"5@	c #FF2921",
"6@	c #FF6370",
"7@	c #F80600",
"8@	c #FF0806",
"9@	c #FFDBE2",
"0@	c #FB8488",
"a@	c #FE7E7D",
"b@	c #FF1A11",
"c@	c #FFF4F2",
"d@	c #FF8485",
"e@	c #FAAFB6",
"f@	c #F5FDF0",
"g@	c #F9FFFB",
"h@	c #F6B1B6",
"i@	c #FB0711",
"j@	c #FF5553",
"k@	c #FCEAE6",
"l@	c #FF6560",
"m@	c #FF000B",
"n@	c #F80400",
"o@	c #FF726F",
"p@	c #FBFFFC",
"q@	c #F41E20",
"r@	c #FD0008",
"s@	c #FF3936",
"t@	c #FF4F4E",
"u@	c #F80100",
"v@	c #FFD1D1",
"w@	c #FF97A5",
"x@	c #F6F6F8",
"y@	c #FFD4E1",
"z@	c #FDA098",
"A@	c #FDD0CA",
"B@	c #FFF6FF",
"C@	c #FF3437",
"D@	c #E1ABAB",
"E@	c #E7BBBA",
"F@	c #FD0A0C",
"G@	c #FF0305",
"H@	c #FC0B12",
"I@	c #FA9B95",
"J@	c #F75250",
"K@	c #FF0107",
"L@	c #F87376",
"M@	c #FCFFFB",
"N@	c #FD1813",
"O@	c #FA3D37",
"P@	c #FF504C",
"Q@	c #FF0402",
"R@	c #FCC9C6",
"S@	c #FF95A5",
"T@	c #FEF1F8",
"U@	c #FFEAE7",
"V@	c #FFC1BD",
"W@	c #FFB1AC",
"X@	c #FF4247",
"Y@	c #FC0203",
"Z@	c #ECAA9C",
"`@	c #FBFFFD",
" #	c #FFFDFA",
".#	c #E5B7B9",
"+#	c #FF0604",
"@#	c #F90304",
"##	c #F8D1C2",
"$#	c #FFB5B2",
"%#	c #FD7275",
"&#	c #FEF3F7",
"*#	c #FF1E1C",
"=#	c #FF272D",
"-#	c #FF5F64",
";#	c #FA0504",
">#	c #FFD8DF",
",#	c #FE9290",
"'#	c #F7FDF9",
")#	c #F88487",
"!#	c #FD0009",
"~#	c #F70406",
"{#	c #FF0503",
"]#	c #FC0003",
"^#	c #F8000C",
"/#	c #F0ABAE",
"(#	c #EDB4BD",
"_#	c #FB0102",
":#	c #FF8B89",
"<#	c #FFADB8",
"[#	c #FFAEAE",
"}#	c #FCC5C8",
"|#	c #FC0405",
"1#	c #FF6F78",
"2#	c #FE181A",
"3#	c #FF0C13",
"4#	c #F9F2E8",
"5#	c #FB939A",
"6#	c #FA1F23",
"7#	c #FC6165",
"8#	c #FBFFF8",
"9#	c #FF837D",
"0#	c #F90602",
"a#	c #FF020A",
"b#	c #F1A9AA",
"c#	c #F7FFFE",
"d#	c #E2BAB8",
"e#	c #F86E6E",
"f#	c #F8FFFB",
"g#	c #FF7476",
"h#	c #FF5B5C",
"i#	c #FBF7F8",
"j#	c #FB8989",
"k#	c #FF7076",
"l#	c #FF171D",
"m#	c #F90B00",
"n#	c #FF9396",
"o#	c #FFEEEC",
"p#	c #FF5966",
"q#	c #FAB2A3",
"r#	c #FCEDE8",
"s#	c #FE232B",
"t#	c #FE0809",
"u#	c #FFF8FF",
"v#	c #FF8284",
"w#	c #FC0005",
"x#	c #E8AEA0",
"y#	c #FEFCFF",
"z#	c #E8B5BC",
"A#	c #FC0510",
"B#	c #FFA0A4",
"C#	c #F6FFF4",
"D#	c #FCB3CE",
"E#	c #FC101A",
"F#	c #F87467",
"G#	c #FFECD6",
"H#	c #F61817",
"I#	c #F51619",
"J#	c #FFC1CB",
"K#	c #FFF5E6",
"L#	c #FF6368",
"M#	c #F8ECF8",
"N#	c #FC7772",
"O#	c #FF0404",
"P#	c #FF0406",
"Q#	c #F90006",
"R#	c #E8A9A2",
"S#	c #FFFDFC",
"T#	c #F0B9BF",
"U#	c #FF0912",
"V#	c #FF1C28",
"W#	c #FF2526",
"X#	c #FF0109",
"Y#	c #FF0004",
"Z#	c #FF1420",
"`#	c #FD0305",
" $	c #F60702",
".$	c #F90B0B",
"+$	c #FF272A",
"@$	c #FF120C",
"#$	c #FF140D",
"$$	c #FF0A13",
"%$	c #F1ADAE",
"&$	c #E9E7DA",
"*$	c #F96561",
"=$	c #F80509",
"-$	c #FB0007",
";$	c #FB0300",
">$	c #F10200",
",$	c #F30304",
"'$	c #FE000A",
")$	c #FF0409",
"!$	c #FB5755",
"~$	c #E3E0D9",
"{$	c #EEF6F9",
"]$	c #EBF2EB",
"^$	c #F16870",
"/$	c #FF0800",
"($	c #FC0009",
"_$	c #FC0002",
":$	c #FE0106",
"<$	c #FC5453",
"[$	c #EDE6D4",
"}$	c #EEFCFF",
"|$	c #E5EEEB",
"1$	c #F56D71",
"2$	c #F60201",
"3$	c #FD0002",
"4$	c #FD0005",
"5$	c #FF0205",
"6$	c #FD0400",
"7$	c #FC0301",
"8$	c #F60204",
"9$	c #F35D5E",
"0$	c #EFE5E6",
"a$	c #ECF9FF",
"b$	c #FDFBFC",
"c$	c #E4EFE7",
"d$	c #FE757F",
"e$	c #F50000",
"f$	c #F80602",
"g$	c #FD0003",
"h$	c #FB0A01",
"i$	c #F10300",
"j$	c #FF0603",
"k$	c #FE0201",
"l$	c #FB6469",
"m$	c #E1ECE8",
"n$	c #F4F6F3",
"o$	c #F1FFF7",
"p$	c #E0EFEC",
"q$	c #FD717C",
"r$	c #FD0007",
"s$	c #FF020C",
"t$	c #F40000",
"u$	c #F80501",
"v$	c #FF5C63",
"w$	c #E8EFE8",
"x$	c #F0F7FF",
"y$	c #F3F8F4",
"z$	c #E6EDE6",
"A$	c #F76A70",
"B$	c #F70400",
"C$	c #FF0805",
"D$	c #F45957",
"E$	c #EDE4E5",
"F$	c #F8F4FF",
"G$	c #FFFBF9",
"H$	c #FFFEF9",
"I$	c #FFF5F5",
"J$	c #E6EAE9",
"K$	c #FF6B66",
"L$	c #F2050D",
"M$	c #FE0700",
"N$	c #F30000",
"O$	c #FE0103",
"P$	c #FA0300",
"Q$	c #F50900",
"R$	c #F80000",
"S$	c #FD0513",
"T$	c #FC5A58",
"U$	c #E4E9E5",
"V$	c #F6F6F6",
"W$	c #FAFEFD",
"X$	c #FAFEFF",
"Y$	c #F8FCFD",
"Z$	c #E9EBE0",
"`$	c #FF747D",
" %	c #FF0814",
".%	c #FF0A03",
"+%	c #FB0303",
"@%	c #FA0900",
"#%	c #FE0607",
"$%	c #FC0204",
"%%	c #FF0D05",
"&%	c #FA6068",
"*%	c #E6F2DC",
"=%	c #E8F9FF",
"-%	c #FFFBFD",
";%	c #F4FFFF",
">%	c #FEFEFF",
",%	c #F7FFF8",
"'%	c #FFFCFB",
")%	c #F7F9FF",
"!%	c #E6E4E9",
"~%	c #E4BCBA",
"{%	c #EEB1AC",
"]%	c #EABDB8",
"^%	c #E9BBBD",
"/%	c #F1B4BC",
"(%	c #EFB4B8",
"_%	c #E8B7B3",
":%	c #F1B6BA",
"<%	c #EAB6B8",
"[%	c #F0B9B6",
"}%	c #F1B0AC",
"|%	c #E4BBB9",
"1%	c #E8E3EA",
"2%	c #F2F6FF",
"3%	c #FFFAFD",
"4%	c #FDFDFF",
"5%	c #FDFDFB",
"6%	c #F9FCFF",
"7%	c #F7FFFB",
"8%	c #F9FFFD",
"9%	c #F4FFF6",
"0%	c #FCFFF1",
"a%	c #F8FFF8",
"b%	c #FCFBFF",
"  . + @ # $ % # & * = - ; + > , , ' + ) ! ~ { ] . ^ ~ / ( _ ] : ",
"# < [ & } | _ % 1 2 3 4 5 6 7 8 9 0 a b c d e f g _ h h | i j ' ",
"| [ k - l m : n o p q r s t u v w x y z A B C D E   # F ~ G H I ",
"* | ~ J & h K L M N O P O Q R S T U V O W X Y Z `  .h _ ..+._ @.",
"& & #.& $.%.&.*.=.-.;.>.,.-.X '.).!.-.~.{.].^.,./.(.# _._ :.h _ ",
"<.| h h %.[.}.|.1.2.3.4.5.,.6.7.8.~.,.O 9.0.a.-.b.c.d.) h e.f.! ",
"% _ g.h.i.j.k.5.l.W O m.n.O o.-.1.o.X n.|.p.q.l.~.r.s.t.u.v._ w.",
". % x.y.z.A.-.B.C.D.l.-.!.E.F.7.b.b.G.H.b.I.5.J.K.,.K.L.M.N.O.h ",
"| P.Q.R.S.T.U.V.W.7.X.Y.V.Z.F.|.1.`.S A O  +.+O -.m.++@+#+$+%+| ",
"{ &+*+1.b.4.,.Z.F.=+-.7.-+l.;+>+A.5.,+'+W R O I.,.T.-.-.)+!+~+, ",
"] {+]+~.^+/+(+U ,.,._+:+<+[+}+5.F.|+1+2+,.3+P 4+5+6+7.,.7+8+9+0+",
"= a+].=+b+c+d+e+f+g+h+i+j+k+l+m+n+o+> p+q+-.<+r+s+t+u+v+I.w+x+y+",
"] z+W A+B+C+D+E+F+G+H+I+J+K+L+M+N+O+P+Q+R+S+T+U+V+W+X+$ Y+@+Z+g.",
"`+ @.@+@0+@@#@$@%@#@&@*@= =@-.-@;@>@-.,@| '@1.)@!@~@{@]@^@/@(@# ",
"| _@:@<@[@}@|@1@2@~.R 3@| 4@~.5@m 6@7@8@9@0@q._ a@=+b@c@d@1.e@f@",
"g@h@i@-.j@k@ .l@m@n@I.o@p@q@r@s@:.t@-.u@v@w@,.x@y@z@A@B@C@{.D@> ",
"| E@F@D.G@H@I@> J@~.K@L@M@N@A.O@> P@X Q@R@S@~.T@U@V@W@X@Y@,.Z@`@",
" #.#P +#@#q.A.##$#X ,.%#&#*#^.=#~ -#W ;#>#,#l.'#)#!#~#{#]#^#/#] ",
"# (#_#:#<#3+,.[#}#|#l.1## 2#-.3#4#5#5.6## 7##@8#9#u@6.5.0#a#b#m ",
"c#d#l.e#f#g#h#i#j#5.~.k#' l#m#1.n#o#p#q#r#s#t#u#v#w#Q X -.Q@x#y#",
"i z#r A#B#C#O.D#E#S O F#G#H#,.b.I#J#h K#L#5.H@M#N#O#1.~.P#Q#R## ",
"S#T#U##@{.V#W#:@5.X#~.Y#Z#-.`#K@ $.$+$@$^.P#K.#$$$#@-.7@X [+%$& ",
"; &$*$=$l.S 5.-$~.[+u@;$>$P D.,$|.O m@G.1.U D.#@p.;+'$-.)$!$~$& ",
"- {$]$^$@+.@/$K.,.($5.Q@_$#@7.b.X :+1.'+~.5.G@5.:$,._$5.<$[$}$u#",
"m O.x.|$1$X ,.5.Y#2$F.3$4$5$7.~.=+5.K@K@1.-.6$7$#@S 8$9$0$a$_ & ",
"w._ b$u.c$d$ +#@-.{#O I.P e$f$g$1.h$i$S.j$k$=.1.~.-.l$m$n$ #. o$",
"! , e.h ) p$q$-.!.r$s$_$5.,.~.F.Q#|.#@~.S t$u${.1.v$w$x$g.0+- = ",
"] . & _ y$# z$A$#@V.B$6.n.b.X Y#A.1..+1.-.C$O 5.D$E$F$% G$- H$> ",
"`@_ * .._ h I$J$K$L$X M$N$Q |#b.~.O$G@P$Q$R$S$T$U$V$. W$H ! X$# ",
"_ H G ~ e.e.v.Y$Z$`$ %-..%+%8@@%A #%$%%%P X.&%*%=%-%c#;%| :.>%..",
"] j ,%| h . _ '%)%!%~%{%]%^%/%(%_%:%<%[%}%|%1%2%3%_ 4%5%>%:.' % ",
": ] _ ( 4%~ ^ . `@@ ! / 6%' _ 7%8%] & h _ % `+% - 9%= #.| 0%a%b%"};
