/* XPM */
static const char * IconForceShutterOpen_xpm[] = {
"32 32 835 2",
"  	c #FEFEFE",
". 	c #FFFFFF",
"+ 	c #FDFDFD",
"@ 	c #FEFEFC",
"# 	c #FFFFFD",
"$ 	c #FFFEFB",
"% 	c #FFFCF9",
"& 	c #FFFDF9",
"* 	c #FEFFFF",
"= 	c #DEE8F1",
"- 	c #B1C6D7",
"; 	c #8CA8C0",
"> 	c #6B8FA9",
", 	c #6287A2",
"' 	c #628AA4",
") 	c #7193AF",
"! 	c #87A7C0",
"~ 	c #A5C0D5",
"{ 	c #C9DCEB",
"] 	c #E9F6FF",
"^ 	c #FCFFFF",
"/ 	c #FEFCFD",
"( 	c #FEFEFF",
"_ 	c #FFFEFD",
": 	c #FDFBFC",
"< 	c #FBFFFF",
"[ 	c #FDFCFA",
"} 	c #C4D6E4",
"| 	c #8095A8",
"1 	c #46627A",
"2 	c #3B5E7C",
"3 	c #40688B",
"4 	c #487596",
"5 	c #5582A3",
"6 	c #5986A5",
"7 	c #6E99B9",
"8 	c #81AAC6",
"9 	c #8AB0C7",
"0 	c #8CABBD",
"a 	c #8EA5B3",
"b 	c #AFC0C8",
"c 	c #E0EBF1",
"d 	c #F8FFFF",
"e 	c #FFFBFA",
"f 	c #FFFCFB",
"g 	c #FFFBF8",
"h 	c #F9FFFF",
"i 	c #D5E5F2",
"j 	c #778C9D",
"k 	c #305474",
"l 	c #315A7A",
"m 	c #3A668B",
"n 	c #426F98",
"o 	c #417199",
"p 	c #4A7AA0",
"q 	c #46769A",
"r 	c #2B597A",
"s 	c #6297B9",
"t 	c #83B6D5",
"u 	c #9AC9E3",
"v 	c #A8D2E8",
"w 	c #B1D6E8",
"x 	c #A3C4D3",
"y 	c #91AEBC",
"z 	c #ABC7D3",
"A 	c #EDF7FF",
"B 	c #FFFEFC",
"C 	c #FFFEFF",
"D 	c #FAFEFF",
"E 	c #F8FCFF",
"F 	c #BFCDDA",
"G 	c #4A647B",
"H 	c #2C4E6A",
"I 	c #356082",
"J 	c #376285",
"K 	c #3A668D",
"L 	c #3E6B94",
"M 	c #416E95",
"N 	c #49779B",
"O 	c #4F7C9D",
"P 	c #4D7898",
"Q 	c #6096B8",
"R 	c #83B8D7",
"S 	c #96C8E3",
"T 	c #A6D4EB",
"U 	c #ADD8EB",
"V 	c #B7E0F2",
"W 	c #B6DCEF",
"X 	c #9CC1D4",
"Y 	c #95A8B6",
"Z 	c #DAE8F1",
"` 	c #F7FFFF",
" .	c #FDFFFE",
"..	c #BCC6D0",
"+.	c #354B60",
"@.	c #315271",
"#.	c #386084",
"$.	c #375F82",
"%.	c #3E668A",
"&.	c #3E688E",
"*.	c #3D6A91",
"=.	c #47749B",
"-.	c #517FA3",
";.	c #5A88AA",
">.	c #71A2C2",
",.	c #8CBBD7",
"'.	c #A0CCE5",
").	c #A7D0E4",
"!.	c #AFD5E8",
"~.	c #B9DFF2",
"{.	c #B5DBEE",
"].	c #BAE0F5",
"^.	c #B6D1E2",
"/.	c #8BA2B0",
"(.	c #D6E7EF",
"_.	c #FCFDFF",
":.	c #F5FCFF",
"<.	c #BFCDD8",
"[.	c #354A5D",
"}.	c #2F4D69",
"|.	c #395D7F",
"1.	c #375E85",
"2.	c #345E84",
"3.	c #38648B",
"4.	c #3D6A93",
"5.	c #3D6C96",
"6.	c #41729B",
"7.	c #497DA5",
"8.	c #5488AF",
"9.	c #75A1BE",
"0.	c #95BFD8",
"a.	c #A3C9DE",
"b.	c #B3D6E9",
"c.	c #B5D6E7",
"d.	c #B3D7E7",
"e.	c #BADDF0",
"f.	c #B4D9EC",
"g.	c #95B8CB",
"h.	c #ABCCDF",
"i.	c #849EAD",
"j.	c #DBECF4",
"k.	c #FFFEFA",
"l.	c #DCEAF5",
"m.	c #3C5569",
"n.	c #2E4D69",
"o.	c #3F6282",
"p.	c #224668",
"q.	c #32567A",
"r.	c #396487",
"s.	c #38628A",
"t.	c #39638B",
"u.	c #39648E",
"v.	c #3F6C95",
"w.	c #47779D",
"x.	c #5082A7",
"y.	c #77A3C0",
"z.	c #91BBD4",
"A.	c #A6CCDF",
"B.	c #B2D6E6",
"C.	c #B8DAE6",
"D.	c #BBDFED",
"E.	c #B2D7E7",
"F.	c #A8CEE1",
"G.	c #486E83",
"H.	c #9EC4D9",
"I.	c #ADD0E4",
"J.	c #859FAE",
"K.	c #E8F5FB",
"L.	c #FCFCFC",
"M.	c #FFFFFA",
"N.	c #FAFFFF",
"O.	c #6E818F",
"P.	c #2B4B64",
"Q.	c #355C7D",
"R.	c #365C80",
"S.	c #37597C",
"T.	c #3A5B7C",
"U.	c #33597D",
"V.	c #3B5F83",
"W.	c #3C6084",
"X.	c #42668A",
"Y.	c #466D8E",
"Z.	c #4A7192",
"`.	c #547D9D",
" +	c #6C9BB7",
".+	c #94C2DA",
"++	c #A4CDDF",
"@+	c #ADD2E2",
"#+	c #B1D7E2",
"$+	c #B1D7E4",
"%+	c #AED8E6",
"&+	c #ADD8E9",
"*+	c #AAD3E7",
"=+	c #AAD4EC",
"-+	c #AFD7F0",
";+	c #9BBACC",
">+	c #A8B9C1",
",+	c #BECCD7",
"'+	c #28445C",
")+	c #375673",
"!+	c #365979",
"~+	c #345B82",
"{+	c #355B80",
"]+	c #385678",
"^+	c #355772",
"/+	c #3A5C7F",
"(+	c #395E88",
"_+	c #3D638A",
":+	c #3A5D7D",
"<+	c #3A5872",
"[+	c #3C546C",
"}+	c #40566E",
"|+	c #426674",
"1+	c #5D8191",
"2+	c #84A7BA",
"3+	c #A9CCE0",
"4+	c #B1D4E8",
"5+	c #ACD1E4",
"6+	c #A8CFE0",
"7+	c #A8D2E2",
"8+	c #AACDE1",
"9+	c #A5CFE7",
"0+	c #ADCEE1",
"a+	c #7DA1B7",
"b+	c #D4E6F0",
"c+	c #FDFEFF",
"d+	c #6B7D8B",
"e+	c #25455E",
"f+	c #3B5C7B",
"g+	c #395B7E",
"h+	c #325A7E",
"i+	c #35587E",
"j+	c #3B597B",
"k+	c #3B5D82",
"l+	c #385A80",
"m+	c #39597F",
"n+	c #3B5671",
"o+	c #415965",
"p+	c #4F6163",
"q+	c #4F5E59",
"r+	c #3C4743",
"s+	c #334144",
"t+	c #33444B",
"u+	c #425863",
"v+	c #5D7A88",
"w+	c #92B5C8",
"x+	c #A1C5DB",
"y+	c #A4C8DE",
"z+	c #A2C6DE",
"A+	c #A0C5D8",
"B+	c #9BC5DE",
"C+	c #9FC5DA",
"D+	c #87AFC8",
"E+	c #A0B7C5",
"F+	c #FAFBFD",
"G+	c #D9E0E8",
"H+	c #2A4055",
"I+	c #325573",
"J+	c #385C7C",
"K+	c #34587A",
"L+	c #30587C",
"M+	c #365A7E",
"N+	c #3B5A79",
"O+	c #34587C",
"P+	c #395877",
"Q+	c #3F556C",
"R+	c #435259",
"S+	c #626C63",
"T+	c #91947F",
"U+	c #95957B",
"V+	c #727155",
"W+	c #5B5243",
"X+	c #262217",
"Y+	c #1D2623",
"Z+	c #3B4E54",
"`+	c #506C7A",
" @	c #8CACC1",
".@	c #9EC0DB",
"+@	c #98BBD7",
"@@	c #98BCD2",
"#@	c #8FBBD6",
"$@	c #90BCD5",
"%@	c #8CB8D1",
"&@	c #8BB8D5",
"*@	c #7392A6",
"=@	c #E5EEF3",
"-@	c #A1AFBC",
";@	c #223E56",
">@	c #3B6283",
",@	c #305778",
"'@	c #35597B",
")@	c #375B7F",
"!@	c #3A5777",
"~@	c #3A5F79",
"{@	c #3F5C6E",
"]@	c #4F5E65",
"^@	c #6A6D64",
"/@	c #75735E",
"(@	c #7D795E",
"_@	c #797457",
":@	c #847D63",
"<@	c #8A7C61",
"[@	c #6B604A",
"}@	c #3A362A",
"|@	c #1A1E1D",
"1@	c #3C4A53",
"2@	c #526C7D",
"3@	c #88AAC3",
"4@	c #91B6D1",
"5@	c #8DB3CA",
"6@	c #85B2CF",
"7@	c #80B1CF",
"8@	c #7DAECC",
"9@	c #82B3D3",
"0@	c #6890A9",
"a@	c #C0D1DB",
"b@	c #FFFFFB",
"c@	c #6E8192",
"d@	c #2C4B67",
"e@	c #355B7F",
"f@	c #385C7E",
"g@	c #365C81",
"h@	c #33577B",
"i@	c #395875",
"j@	c #395B76",
"k@	c #4C6172",
"l@	c #606568",
"m@	c #868276",
"n@	c #9D9781",
"o@	c #BDB9A0",
"p@	c #ACAA95",
"q@	c #ACA996",
"r@	c #C1C0A2",
"s@	c #BFB99F",
"t@	c #837A69",
"u@	c #433A33",
"v@	c #242529",
"w@	c #465864",
"x@	c #5E7F92",
"y@	c #7DAABF",
"z@	c #7CA4BE",
"A@	c #79A8C6",
"B@	c #71A3C4",
"C@	c #72A5C4",
"D@	c #75A6C6",
"E@	c #6B98B7",
"F@	c #96B0BF",
"G@	c #FEFDF9",
"H@	c #495E71",
"I@	c #31536F",
"J@	c #365E82",
"K@	c #3D6387",
"L@	c #375D82",
"M@	c #30567A",
"N@	c #3A587A",
"O@	c #4C5C73",
"P@	c #6A696E",
"Q@	c #968E83",
"R@	c #A6A18D",
"S@	c #CDCCB7",
"T@	c #C4C6B1",
"U@	c #C5C6B4",
"V@	c #C7CFB8",
"W@	c #DAD9C4",
"X@	c #A49987",
"Y@	c #7A6C61",
"Z@	c #2D2522",
"`@	c #384349",
" #	c #456574",
".#	c #6996AB",
"+#	c #6692AF",
"@#	c #6997B8",
"##	c #6395B8",
"$#	c #6A98B9",
"%#	c #6693B2",
"&#	c #6090B4",
"*#	c #7896AE",
"=#	c #32475A",
"-#	c #355773",
";#	c #355D81",
">#	c #396081",
",#	c #385E82",
"'#	c #3A5B7A",
")#	c #43617D",
"!#	c #4C596A",
"~#	c #6D6B6C",
"{#	c #958B7F",
"]#	c #AAA591",
"^#	c #C5C4B2",
"/#	c #BEBFAF",
"(#	c #C6C2B6",
"_#	c #C2C4B9",
":#	c #C7C1B3",
"<#	c #9D907F",
"[#	c #8F7F6F",
"}#	c #362D24",
"|#	c #2C3339",
"1#	c #385165",
"2#	c #597E99",
"3#	c #5480A3",
"4#	c #5783A6",
"5#	c #5585A9",
"6#	c #5A86A3",
"7#	c #4B7490",
"8#	c #5183A8",
"9#	c #6386A2",
"0#	c #2B3D51",
"a#	c #3A5976",
"b#	c #2C5276",
"c#	c #305476",
"d#	c #466989",
"e#	c #3C6286",
"f#	c #3B6185",
"g#	c #406180",
"h#	c #496976",
"i#	c #4B5A5F",
"j#	c #636057",
"k#	c #7C7461",
"l#	c #A9A290",
"m#	c #C3C1B4",
"n#	c #C0BBB5",
"o#	c #C4BAB8",
"p#	c #C6BCBB",
"q#	c #CCBFB7",
"r#	c #867666",
"s#	c #817461",
"t#	c #3D392D",
"u#	c #232B2E",
"v#	c #41556D",
"w#	c #4A688C",
"x#	c #49759A",
"y#	c #497598",
"z#	c #4C7A9C",
"A#	c #4C7390",
"B#	c #305570",
"C#	c #497BA0",
"D#	c #567B98",
"E#	c #324450",
"F#	c #395B77",
"G#	c #406A90",
"H#	c #416889",
"I#	c #486D8A",
"J#	c #406D8E",
"K#	c #457092",
"L#	c #446584",
"M#	c #4E7487",
"N#	c #516371",
"O#	c #625E5F",
"P#	c #8E8478",
"Q#	c #A4A48C",
"R#	c #BFC7B0",
"S#	c #B6BCAE",
"T#	c #B9B8B4",
"U#	c #B5BBAD",
"V#	c #C8C9B9",
"W#	c #A09786",
"X#	c #8D7F72",
"Y#	c #463E3B",
"Z#	c #2D343C",
"`#	c #3E576B",
" $	c #416480",
".$	c #47698C",
"+$	c #446E94",
"@$	c #457196",
"#$	c #497496",
"$$	c #4B799D",
"%$	c #437399",
"&$	c #5B778F",
"*$	c #FBFEFF",
"=$	c #455763",
"-$	c #3C5E79",
";$	c #467096",
">$	c #507798",
",$	c #4E7592",
"'$	c #507C99",
")$	c #4B7494",
"!$	c #597B97",
"~$	c #557B92",
"{$	c #617888",
"]$	c #6D7174",
"^$	c #8B877C",
"/$	c #ABA690",
"($	c #CFCDB4",
"_$	c #C6C1AD",
":$	c #C7BEAF",
"<$	c #D1CFB6",
"[$	c #DCD6BE",
"}$	c #A69986",
"|$	c #8A7E70",
"1$	c #4C4845",
"2$	c #4E5862",
"3$	c #334D64",
"4$	c #436885",
"5$	c #416587",
"6$	c #3B658B",
"7$	c #3B678E",
"8$	c #436D93",
"9$	c #3D698E",
"0$	c #668196",
"a$	c #667884",
"b$	c #33536A",
"c$	c #50789B",
"d$	c #527B9B",
"e$	c #5B84A0",
"f$	c #5C85A1",
"g$	c #5D859F",
"h$	c #6688A3",
"i$	c #6487A3",
"j$	c #6C889D",
"k$	c #6B7E84",
"l$	c #777E76",
"m$	c #8B8875",
"n$	c #A0997F",
"o$	c #8B8064",
"p$	c #8A7F63",
"q$	c #9B9072",
"r$	c #9F9379",
"s$	c #7F7460",
"t$	c #6A6359",
"u$	c #595D60",
"v$	c #485969",
"w$	c #3D5B75",
"x$	c #39607F",
"y$	c #396389",
"z$	c #3D6892",
"A$	c #3B6690",
"B$	c #446F99",
"C$	c #859CAE",
"D$	c #95A6AE",
"E$	c #294459",
"F$	c #577B9B",
"G$	c #5984A4",
"H$	c #638CA8",
"I$	c #648DA3",
"J$	c #7298AF",
"K$	c #6E90A9",
"L$	c #7295AB",
"M$	c #6C8A95",
"N$	c #617574",
"O$	c #686B64",
"P$	c #817B6B",
"Q$	c #7A745C",
"R$	c #7F7E62",
"S$	c #8B856D",
"T$	c #7C7A65",
"U$	c #3C3C30",
"V$	c #393F3F",
"W$	c #4E5C67",
"X$	c #40596F",
"Y$	c #3E607C",
"Z$	c #3F6385",
"`$	c #37607E",
" %	c #3C678A",
".%	c #38638D",
"+%	c #3B6691",
"@%	c #3F6993",
"#%	c #355675",
"$%	c #A9BBC7",
"%%	c #FBFFFE",
"&%	c #D3E0E6",
"*%	c #243A48",
"=%	c #5E809B",
"-%	c #5D88A8",
";%	c #6894AF",
">%	c #7399AE",
",%	c #759AAD",
"'%	c #7B9FB7",
")%	c #82A0BA",
"!%	c #7CA0B6",
"~%	c #769BAB",
"{%	c #6B8993",
"]%	c #808F94",
"^%	c #BBC4C3",
"/%	c #D5DFD7",
"(%	c #D6E6D9",
"_%	c #D0DBD3",
":%	c #97A39F",
"<%	c #516367",
"[%	c #445A67",
"}%	c #3B566B",
"|%	c #405F7B",
"1%	c #3B5E7E",
"2%	c #3A5E80",
"3%	c #366181",
"4%	c #3A648C",
"5%	c #3D6893",
"6%	c #3F658C",
"7%	c #405A73",
"8%	c #D4E1E9",
"9%	c #FCFFFD",
"0%	c #5A6770",
"a%	c #415C71",
"b%	c #648DAB",
"c%	c #6B97B2",
"d%	c #7BA0B3",
"e%	c #7A9DB0",
"f%	c #81A6C0",
"g%	c #8CABC0",
"h%	c #84A9BC",
"i%	c #82A8BB",
"j%	c #7498A8",
"k%	c #728C9D",
"l%	c #8BA1AF",
"m%	c #91ACB5",
"n%	c #84A3A8",
"o%	c #607A87",
"p%	c #4C6876",
"q%	c #476476",
"r%	c #3F5F76",
"s%	c #466884",
"t%	c #406383",
"u%	c #3B5D80",
"v%	c #3B5F81",
"w%	c #366184",
"x%	c #3B658D",
"y%	c #35577A",
"z%	c #748595",
"A%	c #F8FDFF",
"B%	c #FDFFFC",
"C%	c #C4C9CD",
"D%	c #2A3F52",
"E%	c #6289A8",
"F%	c #6995B0",
"G%	c #7B9EB1",
"H%	c #87A8BB",
"I%	c #7EA6C0",
"J%	c #86A9BC",
"K%	c #8EB1C4",
"L%	c #9BBED2",
"M%	c #99B9CE",
"N%	c #85A4B9",
"O%	c #7090A5",
"P%	c #608397",
"Q%	c #52788B",
"R%	c #4B6D88",
"S%	c #456782",
"T%	c #476A86",
"U%	c #4C6F8D",
"V%	c #446888",
"W%	c #426688",
"X%	c #355F85",
"Y%	c #44688A",
"Z%	c #375E7F",
"`%	c #356083",
" &	c #365571",
".&	c #C4CED8",
"+&	c #5B6C7C",
"@&	c #416683",
"#&	c #6E9AB5",
"$&	c #85A6B9",
"%&	c #84ACC6",
"&&	c #8DB2C4",
"*&	c #91B4C7",
"=&	c #95B4C8",
"-&	c #98B7CC",
";&	c #9BBBD2",
">&	c #88ACC4",
",&	c #7095AF",
"'&	c #5A7F99",
")&	c #537696",
"!&	c #507391",
"~&	c #4E718F",
"{&	c #4A6E8E",
"]&	c #486C8E",
"^&	c #3E6488",
"/&	c #40668B",
"(&	c #345E86",
"_&	c #436787",
":&	c #2F5878",
"<&	c #67859D",
"[&	c #F4FBFF",
"}&	c #DEE1EA",
"|&	c #334657",
"1&	c #588099",
"2&	c #72A1BB",
"3&	c #7BA3BC",
"4&	c #90AAC1",
"5&	c #8AAFC9",
"6&	c #8EB4CB",
"7&	c #92B6CE",
"8&	c #94B7CD",
"9&	c #8CB0C8",
"0&	c #7FA4BE",
"a&	c #6C93B0",
"b&	c #57809E",
"c&	c #517595",
"d&	c #4E7292",
"e&	c #517492",
"f&	c #4C7090",
"g&	c #4B7293",
"h&	c #466E92",
"i&	c #3F6A8D",
"j&	c #31546A",
"k&	c #325676",
"l&	c #345A7E",
"m&	c #405B76",
"n&	c #DCE9F1",
"o&	c #FDFEF9",
"p&	c #FFFDFE",
"q&	c #BDC6CF",
"r&	c #294352",
"s&	c #6389A0",
"t&	c #81A6C1",
"u&	c #8FB0C3",
"v&	c #93B4C7",
"w&	c #92B3C6",
"x&	c #90B0C5",
"y&	c #7AA2BC",
"z&	c #6591AE",
"A&	c #517E9D",
"B&	c #4C779A",
"C&	c #4E7699",
"D&	c #4C7497",
"E&	c #517899",
"F&	c #547898",
"G&	c #537895",
"H&	c #4D708C",
"I&	c #476C87",
"J&	c #3D607C",
"K&	c #3A546D",
"L&	c #BACAD9",
"M&	c #FFFCF7",
"N&	c #B8C1C8",
"O&	c #2A4153",
"P&	c #6387A1",
"Q&	c #7CA9C6",
"R&	c #7B9FB5",
"S&	c #86A9BF",
"T&	c #89ACC2",
"U&	c #86AAC0",
"V&	c #7EA4BB",
"W&	c #7098B2",
"X&	c #628BA7",
"Y&	c #55819E",
"Z&	c #537C9C",
"`&	c #4A7597",
" *	c #4C7799",
".*	c #527EA1",
"+*	c #4D789A",
"@*	c #537A99",
"#*	c #557894",
"$*	c #50728D",
"%*	c #3E6680",
"&*	c #3C576C",
"**	c #B0BCC8",
"=*	c #FBFBFD",
"-*	c #FEFFFA",
";*	c #FFFDFF",
">*	c #FCFBF6",
",*	c #C3C9D5",
"'*	c #3F5666",
")*	c #52778A",
"!*	c #74A2BC",
"~*	c #77A3BE",
"{*	c #74A0BB",
"]*	c #729CB5",
"^*	c #6E98B1",
"/*	c #6991AB",
"(*	c #5E86A0",
"_*	c #4C748E",
":*	c #4E738E",
"<*	c #537A97",
"[*	c #507B9D",
"}*	c #4D7B9D",
"|*	c #5782A4",
"1*	c #517895",
"2*	c #446783",
"3*	c #4D697F",
"4*	c #BACAD7",
"5*	c #FFFDFA",
"6*	c #FFFBFB",
"7*	c #FAF8FB",
"8*	c #DFE6EC",
"9*	c #738287",
"0*	c #385E75",
"a*	c #577C96",
"b*	c #6F97B1",
"c*	c #6E97B3",
"d*	c #638FAC",
"e*	c #628FAE",
"f*	c #5583A4",
"g*	c #356384",
"h*	c #38617F",
"i*	c #557E9E",
"j*	c #507D9E",
"k*	c #4E7B9C",
"l*	c #557E9C",
"m*	c #476B85",
"n*	c #48677C",
"o*	c #7792A5",
"p*	c #DAE6F2",
"q*	c #FFFCF8",
"r*	c #FFFDFD",
"s*	c #F6FEFF",
"t*	c #FDFDFB",
"u*	c #C1CFD8",
"v*	c #758793",
"w*	c #415868",
"x*	c #47667B",
"y*	c #527792",
"z*	c #4A7595",
"A*	c #497799",
"B*	c #48789C",
"C*	c #497494",
"D*	c #497290",
"E*	c #446B88",
"F*	c #41637C",
"G*	c #486376",
"H*	c #7E909C",
"I*	c #C8D3D9",
"J*	c #FAFDFF",
"K*	c #FFFEF6",
"L*	c #FCFEFD",
"M*	c #DCE3E9",
"N*	c #ABB9C2",
"O*	c #7C8F9E",
"P*	c #607789",
"Q*	c #536C80",
"R*	c #476277",
"S*	c #647B8D",
"T*	c #8295A4",
"U*	c #B1BFCA",
"V*	c #DEE7EE",
"W*	c #FDFCF8",
"X*	c #FBFDFA",
"Y*	c #FAFCFB",
"Z*	c #FDFBFE",
"`*	c #FAFFFB",
" =	c #FFFBFF",
".=	c #FFFEF9",
"+=	c #FDFDFF",
"@=	c #FFFBFC",
"#=	c #FEFFFD",
"$=	c #FFFAF7",
"%=	c #FFFCFD",
"  . + . @ # $ % & * = - ; > , ' ) ! ~ { ] ^ / $ ( _ $ : ^ < . $ ",
"*   # [ # * ^ < } | 1 2 3 4 5 6 7 8 9 0 a b c d ^   e # * < . f ",
"* . g $   h i j k l m n o p q r s t u v w x y z A < . B + . . C ",
"D # $ $ E F G H I J K L M N O P Q R S T U V W X Y Z `  .# # + ( ",
"* . . E ..+.@.#.$.%.&.K *.=.-.;.>.,.'.).!.~.{.].^./.(.h * B . _.",
"# * :.<.[.}.|.1.J 2.3.4.5.6.7.8.9.0.a.b.c.d.e.f.g.h.i.j.h + . * ",
"k.< l.m.n.o.p.q.r.2.s.t.u.v.w.x.y.z.A.B.C.D.E.F.G.H.I.J.K.^ @ L.",
"M.N.O.P.Q.R.S.T.U.R.V.W.X.Y.Z.`. +.+++@+#+$+%+&+*+=+-+;+>+N.@ . ",
"# ,+'+)+!+~+{+]+^+/+(+_+:+<+[+}+|+1+2+3+4+5+6+7+8+9+8+0+a+b+# . ",
"c+d+e+f+g+h+i+j+k+l+m+n+o+p+q+r+s+t+u+v+w+x+y+z+A+B+C+H.D+E+F+. ",
"G+H+I+J+K+L+M+N+O+P+Q+R+S+T+U+V+W+X+Y+Z+`+ @.@+@@@#@$@%@&@*@=@# ",
"-@;@>@,@'@h+)@!@~@{@]@^@/@(@_@:@<@[@}@|@1@2@3@4@5@6@7@8@9@0@a@b@",
"c@d@$.e@f@g@h@i@j@k@l@m@n@o@p@q@r@s@t@u@v@w@x@y@z@A@B@C@D@E@F@G@",
"H@I@J@K@'@L@M@P+N@O@P@Q@R@S@T@U@V@W@X@Y@Z@`@ #.#+#@###$#%#&#*#G@",
"=#-#;#>#f@,#R.'#)#!#~#{#]#^#/#(#_#:#<#[#}#|#1#2#3#4#5#6#7#8#9## ",
"0#a#b#c#d#e#f#g#h#i#j#k#l#m#n#o#p#q#r#s#t#u#v#w#x#y#z#A#B#C#D#C ",
"E#F#G#H#I#J#K#L#M#N#O#P#Q#R#S#T#U#V#W#X#Y#Z#`# $.$+$@$#$$$%$&$*$",
"=$-$;$>$,$'$)$!$~${$]$^$/$($_$:$<$[$}$|$1$2$3$4$5$6$7$8$M 9$0$^ ",
"a$b$c$d$e$f$g$h$i$j$k$l$m$n$o$p$q$r$s$t$u$v$w$>#x$y$z$A$B$$.C$h ",
"D$E$F$G$H$I$J$K$) L$M$N$O$P$Q$R$S$T$U$V$W$X$Y$Z$`$ %.%+%@%#%$%%%",
"&%*%=%-%;%>%,%'%)%!%~%{%]%^%/%(%_%:%<%[%}%|%1%2%3%$.4%5%6%7%8%9%",
"h 0%a%b%c%d%e%f%g%h%i%j%k%l%m%n%o%p%q%r%s%t%u%v%w%f#%.x%y%z%A%B%",
"@ C%D%E%F%G%H%I%J%K%L%M%N%O%P%Q%R%S%T%U%V%W%X.V.X%Y%Z%`% &.&C C ",
"M.( +&@&#&G%$&%&&&*&=&-&;&>&,&'&)&!&U%~&{&]&^&/&(&g+_&:&<&[&$ C ",
"^ . }&|&1&2&3&4&5&6&7&8&9&0&a&b&c&d&~&e&f&g&h&i&j&k&l&m&n&o&M.p&",
"* C . q&r&s&z@t&u&v&w&x&>&y&z&A&B&C&D&E&F&G&~&H&I&J&K&L&A%b@# * ",
"( [ M&# N&O&P&Q&R&S&T&U&V&W&X&Y&Z&`& *.*+*@*#*$*%*&***=*$ -*F+^ ",
";*# M.>*. ,*'*)*!*~*{*]*^*/*(*_*:*<*[*z#}*|*1*2*3*4*. 5*$ * * * ",
"6*L.< ^ 7*C 8*9*0*a*b*c*d*e*f*g*h*i*j*k*l*m*n*o*p*< 5*5*c+^ . q*",
"r** h s*. _ 5*t*u*v*w*x*y*z*A*B*C*D*E*F*G*H*I*< ( # b@* J*c+B K*",
"# c+J** @ b@$ C # L*M*N*O*P*Q*R*Q*S*T*U*V*^ . W*_ # X*Y*. Z*# b@",
"`*.  =C .=M.c+( % # + c+* _.+=C c+* . # [   . * @=* ^ #=$=%=+ h "};
