/* XPM */
static const char * IconPoseDark_xpm[] = {
"32 32 700 2",
"  	c #FEFCFD",
". 	c #FDFDFD",
"+ 	c #FEFEFE",
"@ 	c #FDFFFE",
"# 	c #FFFEFF",
"$ 	c #FBF9FA",
"% 	c #FCFCFC",
"& 	c #FBFDFC",
"* 	c #FCFEFD",
"= 	c #FBFFFE",
"- 	c #FCFFFF",
"; 	c #FEFFFF",
"> 	c #FFFFFF",
", 	c #FAFEFF",
"' 	c #F9F9F9",
") 	c #F7F7F7",
"! 	c #000100",
"~ 	c #010302",
"{ 	c #FAFCFB",
"] 	c #F9FDFC",
"^ 	c #FDFEFF",
"/ 	c #FFFDFE",
"( 	c #FAFEFD",
"_ 	c #F9FFFF",
": 	c #F8FAF9",
"< 	c #000201",
"[ 	c #010101",
"} 	c #FBFBFB",
"| 	c #FFFFFD",
"1 	c #FEFFFD",
"2 	c #F8FEFE",
"3 	c #F6FFFE",
"4 	c #F7FFFF",
"5 	c #000302",
"6 	c #F9FBFA",
"7 	c #000000",
"8 	c #F5F7F6",
"9 	c #FDFDFB",
"0 	c #FCFEFB",
"a 	c #FEFEFC",
"b 	c #F5FFFF",
"c 	c #F8FEFC",
"d 	c #FBFFFF",
"e 	c #F7FBFA",
"f 	c #020202",
"g 	c #FEFDFB",
"h 	c #FFFEFC",
"i 	c #FDFFFC",
"j 	c #F6FEFF",
"k 	c #F6FCFA",
"l 	c #050706",
"m 	c #020403",
"n 	c #F7FDFB",
"o 	c #FFFEFB",
"p 	c #F8FDFF",
"q 	c #F8FCFB",
"r 	c #F7FFF2",
"s 	c #FDFBFF",
"t 	c #F9FCFF",
"u 	c #F8FCFF",
"v 	c #F1FFE9",
"w 	c #FFFBFA",
"x 	c #FCFDFF",
"y 	c #FEFDFF",
"z 	c #000200",
"A 	c #FBFFFA",
"B 	c #030000",
"C 	c #000600",
"D 	c #FCFCFA",
"E 	c #FFFCFF",
"F 	c #F2FFFF",
"G 	c #FAFFFF",
"H 	c #FBFCF7",
"I 	c #FEF9FD",
"J 	c #F8FDF9",
"K 	c #FFF6FA",
"L 	c #F6FFFF",
"M 	c #F8FFF0",
"N 	c #FFF9FF",
"O 	c #FAFFF9",
"P 	c #F5FFFD",
"Q 	c #FFFAFD",
"R 	c #FFF6F6",
"S 	c #F4FFFF",
"T 	c #F4FFF7",
"U 	c #F2FDF7",
"V 	c #FBFFFD",
"W 	c #FFF9F9",
"X 	c #FFFCFD",
"Y 	c #080000",
"Z 	c #050100",
"` 	c #080001",
" .	c #F6FFFD",
"..	c #FAFFFE",
"+.	c #FFF7FF",
"@.	c #FFFFFA",
"#.	c #FBFDFA",
"$.	c #F8FFFF",
"%.	c #F6FCF8",
"&.	c #FFFDFF",
"*.	c #FDF4F5",
"=.	c #F8FFF1",
"-.	c #F2FAFF",
";.	c #F5F8FD",
">.	c #F8FFFA",
",.	c #ECFFF5",
"'.	c #F4FDFA",
").	c #F5FEFB",
"!.	c #EAFEFF",
"~.	c #E6FFFB",
"{.	c #F4FFFA",
"].	c #F3FDF4",
"^.	c #F8F3F0",
"/.	c #FFFAF2",
"(.	c #F1FEF5",
"_.	c #EFFDFD",
":.	c #FDFBFC",
"<.	c #F2FFEE",
"[.	c #B2C7CA",
"}.	c #C0B5C5",
"|.	c #CFC5C4",
"1.	c #C5C1BE",
"2.	c #BFBDB0",
"3.	c #7FD6E9",
"4.	c #09F1F3",
"5.	c #62E8C5",
"6.	c #D3B6C8",
"7.	c #C5B8BF",
"8.	c #B3C2BD",
"9.	c #D1CBCF",
"0.	c #99A7A8",
"a.	c #424C56",
"b.	c #2E404C",
"c.	c #4F5150",
"d.	c #37343D",
"e.	c #46535C",
"f.	c #A1A6AC",
"g.	c #D1D4CD",
"h.	c #B5C2B1",
"i.	c #C0BBB7",
"j.	c #D3BFCA",
"k.	c #CBC3C0",
"l.	c #B8C2BA",
"m.	c #CDB5C2",
"n.	c #BECCCD",
"o.	c #BABDC6",
"p.	c #C2C0B4",
"q.	c #D0C5BF",
"r.	c #FFFEEE",
"s.	c #C1BCC3",
"t.	c #A4A4A6",
"u.	c #A0ABAF",
"v.	c #B0A19E",
"w.	c #B8B0A5",
"x.	c #B2A9A4",
"y.	c #8A6867",
"z.	c #928690",
"A.	c #C1B0BA",
"B.	c #AFADAE",
"C.	c #CAC6C7",
"D.	c #AE8A96",
"E.	c #365550",
"F.	c #35A086",
"G.	c #D9FFFF",
"H.	c #C2FCF0",
"I.	c #3E9082",
"J.	c #395151",
"K.	c #A39595",
"L.	c #BDBAB1",
"M.	c #C6C2BF",
"N.	c #BABFC2",
"O.	c #BBC9BA",
"P.	c #AFB0AB",
"Q.	c #B69FB3",
"R.	c #9F9FAB",
"S.	c #9FAFAC",
"T.	c #B3BDB5",
"U.	c #C8B9C0",
"V.	c #F7FFFA",
"W.	c #AEBCBC",
"X.	c #050500",
"Y.	c #000017",
"Z.	c #001F1C",
"`.	c #33322D",
" +	c #BBD0C9",
".+	c #716F85",
"++	c #424740",
"@+	c #090100",
"#+	c #625C5C",
"$+	c #5D5F5E",
"%+	c #2E3935",
"&+	c #DEDADB",
"*+	c #FFFAFE",
"=+	c #E6F5EE",
"-+	c #F7EDEE",
";+	c #F4F2F7",
">+	c #F5F8FF",
",+	c #DEDBE2",
"'+	c #2C3530",
")+	c #4D4E49",
"!+	c #C6B7BC",
"~+	c #B0CAC7",
"{+	c #DED5E8",
"]+	c #373830",
"^+	c #12000C",
"/+	c #031A12",
"(+	c #050507",
"_+	c #A09A8E",
":+	c #C7BFCC",
"<+	c #FAFDFF",
"[+	c #8B7B6C",
"}+	c #666762",
"|+	c #598892",
"1+	c #03CFC4",
"2+	c #775D60",
"3+	c #777173",
"4+	c #594747",
"5+	c #2F372C",
"6+	c #0B0203",
"7+	c #45444A",
"8+	c #4E817C",
"9+	c #689995",
"0+	c #B6A6B1",
"a+	c #967B82",
"b+	c #908D86",
"c+	c #968186",
"d+	c #86928E",
"e+	c #8B8B8B",
"f+	c #C0A6B1",
"g+	c #728D86",
"h+	c #396D60",
"i+	c #6E7679",
"j+	c #8A8F93",
"k+	c #535458",
"l+	c #6E655C",
"m+	c #755347",
"n+	c #06CFC7",
"o+	c #528189",
"p+	c #48515A",
"q+	c #7F8061",
"r+	c #FEFEFF",
"s+	c #02060F",
"t+	c #48403E",
"u+	c #004741",
"v+	c #731C3E",
"w+	c #31423C",
"x+	c #3C323A",
"y+	c #43424A",
"z+	c #3F4E47",
"A+	c #515058",
"B+	c #222035",
"C+	c #318D8A",
"D+	c #8FEEE8",
"E+	c #5C6272",
"F+	c #525156",
"G+	c #5F645E",
"H+	c #545D58",
"I+	c #476758",
"J+	c #4D4F4A",
"K+	c #75696D",
"L+	c #A8E8D8",
"M+	c #358876",
"N+	c #111C22",
"O+	c #2A2730",
"P+	c #403E4B",
"Q+	c #35393A",
"R+	c #364A49",
"S+	c #5E2B30",
"T+	c #08494D",
"U+	c #50434C",
"V+	c #010008",
"W+	c #FBFCFE",
"X+	c #F5FAFE",
"Y+	c #1A0D07",
"Z+	c #D4FFF3",
"`+	c #0EF8F9",
" @	c #FED9D3",
".@	c #E0EDE3",
"+@	c #DCD7DE",
"@@	c #D9E7E8",
"#@	c #E8E9E1",
"$@	c #DCD2D0",
"%@	c #98887B",
"&@	c #85706F",
"*@	c #F5D8DA",
"=@	c #C9AEA5",
"-@	c #8B8180",
";@	c #65746D",
">@	c #897388",
",@	c #7D746B",
"'@	c #80827F",
")@	c #B6B0B0",
"!@	c #F0D9DF",
"~@	c #856686",
"{@	c #958699",
"]@	c #D3E9DC",
"^@	c #DCE6F0",
"/@	c #EADEDE",
"(@	c #D7ECE5",
"_@	c #FAD7D5",
":@	c #0BFAF7",
"<@	c #D3FAE7",
"[@	c #190A11",
"}@	c #FFF5F9",
"|@	c #F7FBFE",
"1@	c #080806",
"2@	c #44614F",
"3@	c #036C72",
"4@	c #685954",
"5@	c #484E40",
"6@	c #5C5857",
"7@	c #4E4F54",
"8@	c #576160",
"9@	c #454C52",
"0@	c #4A5656",
"a@	c #93A5AF",
"b@	c #B6C4C4",
"c@	c #484937",
"d@	c #504647",
"e@	c #7D717F",
"f@	c #7C798A",
"g@	c #71806D",
"h@	c #48424C",
"i@	c #4C4149",
"j@	c #B0B4A5",
"k@	c #908E99",
"l@	c #514E5F",
"m@	c #4E534F",
"n@	c #4A5254",
"o@	c #5D4D58",
"p@	c #475443",
"q@	c #62514A",
"r@	c #0B6D7A",
"s@	c #4D5F53",
"t@	c #030D02",
"u@	c #FDF8FF",
"v@	c #000205",
"w@	c #000500",
"x@	c #080429",
"y@	c #0A0603",
"z@	c #060405",
"A@	c #010000",
"B@	c #05020B",
"C@	c #020C0B",
"D@	c #203A37",
"E@	c #577671",
"F@	c #80908F",
"G@	c #A4A7B0",
"H@	c #BEC0B2",
"I@	c #C9D0D6",
"J@	c #B7B9AB",
"K@	c #A7B1A8",
"L@	c #717276",
"M@	c #466A66",
"N@	c #0B3A28",
"O@	c #130A00",
"P@	c #090000",
"Q@	c #000300",
"R@	c #00000B",
"S@	c #070400",
"T@	c #010329",
"U@	c #F8F8F8",
"V@	c #06030A",
"W@	c #07060C",
"X@	c #12024D",
"Y@	c #000A00",
"Z@	c #0B0215",
"`@	c #060009",
" #	c #000800",
".#	c #0D0101",
"+#	c #0C0100",
"@#	c #192028",
"##	c #929B96",
"$#	c #3E3E48",
"%#	c #000610",
"&#	c #0A0F12",
"*#	c #0E0000",
"=#	c #5C495D",
"-#	c #BCB5C5",
";#	c #80989A",
">#	c #0A202D",
",#	c #050007",
"'#	c #020500",
")#	c #000900",
"!#	c #0A0410",
"~#	c #0A0313",
"{#	c #000403",
"]#	c #030042",
"^#	c #06070B",
"/#	c #F6FFFA",
"(#	c #FBFDF8",
"_#	c #090004",
":#	c #070013",
"<#	c #000055",
"[#	c #04000A",
"}#	c #04000B",
"|#	c #030B00",
"1#	c #040309",
"2#	c #1B1E25",
"3#	c #8E8DAD",
"4#	c #B1A8A9",
"5#	c #504434",
"6#	c #332966",
"7#	c #131294",
"8#	c #000D33",
"9#	c #1B1519",
"0#	c #21171F",
"a#	c #525254",
"b#	c #C1BCB6",
"c#	c #867C84",
"d#	c #140D15",
"e#	c #05040C",
"f#	c #030502",
"g#	c #080006",
"h#	c #00000F",
"i#	c #000400",
"j#	c #000957",
"k#	c #05000C",
"l#	c #0C010F",
"m#	c #F7FAF1",
"n#	c #FCFFFB",
"o#	c #0D0014",
"p#	c #0B0146",
"q#	c #040500",
"r#	c #070700",
"s#	c #030005",
"t#	c #070602",
"u#	c #000106",
"v#	c #03010E",
"w#	c #6E6D75",
"x#	c #BBB9BC",
"y#	c #443B40",
"z#	c #1E165F",
"A#	c #3041E9",
"B#	c #0D44FF",
"C#	c #0018AB",
"D#	c #090223",
"E#	c #32341C",
"F#	c #0D190D",
"G#	c #3B403C",
"H#	c #C4D0BC",
"I#	c #5D6C55",
"J#	c #000710",
"K#	c #0D0206",
"L#	c #010002",
"M#	c #020605",
"N#	c #040100",
"O#	c #00064B",
"P#	c #0D0212",
"Q#	c #0D0007",
"R#	c #FEFFFA",
"S#	c #0A0A0A",
"T#	c #02000B",
"U#	c #090246",
"V#	c #000007",
"W#	c #030200",
"X#	c #080403",
"Y#	c #040300",
"Z#	c #040203",
"`#	c #160E1B",
" $	c #9E958E",
".$	c #D5D0B3",
"+$	c #120E0B",
"@$	c #060974",
"#$	c #072DEA",
"$$	c #0B63FB",
"%$	c #0732E3",
"&$	c #140022",
"*$	c #620E1B",
"=$	c #150013",
"-$	c #0E1618",
";$	c #E7D3DF",
">$	c #8A8D96",
",$	c #070506",
"'$	c #100108",
")$	c #000501",
"!$	c #03060B",
"~$	c #040045",
"{$	c #000A04",
"]$	c #010506",
"^$	c #000709",
"/$	c #000C62",
"($	c #000417",
"_$	c #040013",
":$	c #000504",
"<$	c #111507",
"[$	c #939685",
"}$	c #D7D8D2",
"|$	c #1E2213",
"1$	c #000117",
"2$	c #000C75",
"3$	c #001C9A",
"4$	c #1A0064",
"5$	c #9F0D1A",
"6$	c #D30221",
"7$	c #53002C",
"8$	c #122021",
"9$	c #ECDFD7",
"0$	c #8B7D7A",
"a$	c #0A0F13",
"b$	c #000B00",
"c$	c #040002",
"d$	c #010010",
"e$	c #07031C",
"f$	c #00095D",
"g$	c #03030D",
"h$	c #F6FBFF",
"i$	c #080400",
"j$	c #0B0020",
"k$	c #09037F",
"l$	c #0E0206",
"m$	c #000012",
"n$	c #04040C",
"o$	c #040000",
"p$	c #02000E",
"q$	c #0E0611",
"r$	c #979195",
"s$	c #C4C6C5",
"t$	c #07080C",
"u$	c #2C242F",
"v$	c #241C27",
"w$	c #010006",
"x$	c #2C0B16",
"y$	c #B8003E",
"z$	c #E5287A",
"A$	c #572A47",
"B$	c #001512",
"C$	c #C1CAC9",
"D$	c #8B8B7F",
"E$	c #0A0B06",
"F$	c #0F0000",
"G$	c #01060C",
"H$	c #0F0004",
"I$	c #01067E",
"J$	c #00041E",
"K$	c #F4FFFB",
"L$	c #FFFCFC",
"M$	c #08002E",
"N$	c #010400",
"O$	c #000002",
"P$	c #000509",
"Q$	c #040108",
"R$	c #38383A",
"S$	c #BBCCC4",
"T$	c #78897F",
"U$	c #131313",
"V$	c #504E53",
"W$	c #182327",
"X$	c #0D010B",
"Y$	c #612541",
"Z$	c #7A4A72",
"`$	c #141220",
" %	c #868D93",
".%	c #B7C1CA",
"+%	c #2B3733",
"@%	c #0E0008",
"#%	c #060002",
"$%	c #020300",
"%%	c #060030",
"&%	c #010007",
"*%	c #070000",
"=%	c #FBF4FB",
"-%	c #000F16",
";%	c #030162",
">%	c #100011",
",%	c #010914",
"'%	c #020400",
")%	c #060805",
"!%	c #08020C",
"~%	c #4B3F4D",
"{%	c #D5CAD0",
"]%	c #918D8A",
"^%	c #030301",
"/%	c #000D06",
"(%	c #000912",
"_%	c #94908F",
":%	c #CEC9C5",
"<%	c #3E3842",
"[%	c #090003",
"}%	c #090504",
"|%	c #010B15",
"1%	c #0C0010",
"2%	c #000461",
"3%	c #020C15",
"4%	c #050505",
"5%	c #FFF4FD",
"6%	c #F3FFFF",
"7%	c #130006",
"8%	c #080300",
"9%	c #0A0702",
"0%	c #000304",
"a%	c #0F0100",
"b%	c #030106",
"c%	c #03010C",
"d%	c #080007",
"e%	c #362E2B",
"f%	c #C4C6BB",
"g%	c #9C9B99",
"h%	c #493946",
"i%	c #5E5A51",
"j%	c #3D433F",
"k%	c #A7A4AD",
"l%	c #BBB1A7",
"m%	c #313325",
"n%	c #010A0F",
"o%	c #0E0301",
"p%	c #100509",
"q%	c #000704",
"r%	c #F1FFFE",
"s%	c #FCF5FC",
"t%	c #23090A",
"u%	c #B6D0D1",
"v%	c #17F5E0",
"w%	c #DCA8B4",
"x%	c #A8BFB7",
"y%	c #BABEBF",
"z%	c #B3B8BC",
"A%	c #B8BCAB",
"B%	c #C4B9BD",
"C%	c #A9B5C3",
"D%	c #5A9897",
"E%	c #2A6A5C",
"F%	c #3B4A43",
"G%	c #A79D9C",
"H%	c #FAFCF9",
"I%	c #FFFBFE",
"J%	c #F0FBFD",
"K%	c #A491A5",
"L%	c #4F4440",
"M%	c #29684D",
"N%	c #4F948F",
"O%	c #B6C5CA",
"P%	c #BBB4BB",
"Q%	c #BCB7BE",
"R%	c #BCBDBF",
"S%	c #D5A7B1",
"T%	c #1AF1DF",
"U%	c #B4CECF",
"V%	c #230B0B",
"W%	c #F6FBFE",
"X%	c #081013",
"Y%	c #060117",
"Z%	c #001209",
"`%	c #090B1A",
" &	c #0E0816",
".&	c #100A00",
"+&	c #100B12",
"@&	c #0C0612",
"#&	c #0B060A",
"$&	c #0F0C15",
"%&	c #1D010D",
"&&	c #12070B",
"*&	c #0B0811",
"=&	c #060700",
"-&	c #050C04",
";&	c #00030F",
">&	c #0E070E",
",&	c #170B0D",
"'&	c #0D0900",
")&	c #040B15",
"!&	c #0D0C1C",
"~&	c #00140A",
"{&	c #0E021A",
"]&	c #061012",
"^&	c #FFFBFD",
"/&	c #FFFAFF",
"(&	c #F6F9F2",
"_&	c #F2FFF6",
":&	c #FEFCFF",
"<&	c #F3FEFF",
"[&	c #EFFFFE",
"}&	c #F3FFF4",
"|&	c #FFFFF5",
"1&	c #F6FFF9",
"2&	c #FEFFF7",
"3&	c #F8FFF5",
"4&	c #F6FFFC",
"5&	c #FAF7F2",
"6&	c #FFF6FD",
"7&	c #FFFBFF",
"8&	c #FFFAFB",
"9&	c #FEFBFF",
"0&	c #F7FFF9",
"a&	c #F9FBED",
"b&	c #F2FFFD",
"c&	c #FFF8F9",
"d&	c #F8FFFD",
"e&	c #FBFBF9",
"f&	c #FFFCF7",
"g&	c #FFFCF9",
"h&	c #FFF6F7",
"i&	c #FCFDF8",
"j&	c #FCFFFA",
"k&	c #F5FDFF",
"l&	c #FFF4FF",
"m&	c #F5FFFA",
"n&	c #F7FFFB",
"o&	c #FDF9F8",
"p&	c #F1FFED",
"q&	c #F9FFF8",
"    . . + @ @ @ # $ + + % % . . & + % % . @ * = - ; + . # > > * ",
"  . . . * * , , ' + > ) % ! ~ ! ! ! . > . { & ] , ^ + + / > > ; ",
". . * * ( , _ _ ; * : ; { < ! ; ! ! [ } > ; - ] ] @ > +   + | 1 ",
". * * ( _ 2 3 4 = - - - ( ! 5 6 ; * 7 7 > 8 - ( = ; > +   9 9 0 ",
"9 a @ ( _ 3 3 b c d ] e = ! ! ; e ; ! f ; ; ( d - ; > + g a a 0 ",
"h a i = _ 3 j b d k - ] ] < ! @ - 6 l 7 6 @ ( d = @ + 9 h | | 0 ",
"h | | @ , 2 j j d e - * ; 7 [ + - 6 ! m @ - ( n = @ a a h | | i ",
"o | | @ , p j 4 ] - ( @ & 7 7 / ( - < ! @ q ( d = ; | a h | | i ",
"r 4 s t u 0 & v w ; 4 x y 5 z A f B C D E d , F G H I J K L E M ",
"1 N O P Q R S T a U V W X Y Z z 7 `  .4 k ..> L +.d @.#.$.( %.&.",
"*.X =.-.d ;.# $._ _ V >.,.'.N N ).# !.~.{.].^.# /.t (._.:., <.# ",
"b [.}.|.1.2.3.4.5.6.7.8.9.0.a.b.c.d.e.f.g.h.i.j.k.l.m.n.o.p.q.t ",
"r.s.t.u.v.w.x.y.z.A.B.C.D.E.F.G.V H.I.J.K.L.M.N.O.P.Q.R.S.T.U.V.",
"- W.X.Y.Z.`. +.+++@+#+$+%+&+*+=+-+;+>+,+'+)+!+~+{+]+^+/+(+_+:+<+",
"+.[+}+|+1+2+3+4+5+6+7+8+9+0+a+b+c+d+e+f+g+h+i+j+k+l+m+n+o+p+q+- ",
"r+s+t+u+v+w+x+y+z+A+B+C+D+E+F+G+H+I+J+K+L+M+N+O+P+Q+R+S+T+U+V+W+",
"X+Y+Z+`+ @.@+@@@#@$@%@&@*@=@-@;@>@,@'@)@!@~@{@]@^@/@(@_@:@<@[@}@",
"|@1@2@3@4@5@6@7@8@9@0@a@b@c@d@e@f@g@h@i@j@k@l@m@n@o@p@q@r@s@t@u@",
"r+v@w@x@z B y@z@A@B@C@D@E@F@G@H@I@J@K@L@M@N@O@P@Q@R@S@Y T@l Q@$.",
"U@V@W@X@Y@Z@`@ #.#+#B @###j@$#%#&#*#=#-#;#>#,#'#)#!#~#{#]#B@^#/#",
"(#_#:#<# #[#}#|#1#! 2#3#4#5#6#7#8#9#0#a#b#c#d#e#f#g#h#i#j#k#l#m#",
"n#Y o#p#q#r#s#t#u#v#w#x#y#z#A#B#C#D#E#F#G#H#I#J#K#L#M#N#O#P#Q#R#",
"c S#T#U#V#W#X#Y#Z#`# $.$+$@$#$$$%$&$*$=$-$;$>$,$i#'$)$!$~$l#{$/ ",
"4 ]$^$/$($_$Z w@:$<$[$}$|$1$2$3$4$5$6$7$8$9$0$a$b$c$d$e$f$g${$h$",
"} i$j$k$l$m$n$o$p$q$r$s$t$u$v$w$x$y$z$A$B$C$D$E$F$G$:#H$I$J$+#K$",
"L$! V#M$N$Y o$O$P$Q$R$S$T$U$V$W$X$Y$Z$`$ %.%+%@%#%z W#$%%%&%*%g ",
"=%m -%;% #>%Y ,%'%)%!%~%{%]%z ^%A@/%(%_%:%<%[%}%|%*%1%i#2%3%4%5%",
"6%{#A@7%Y@8%9%0%a%b%c%d%e%f%g%h%i%j%k%l%m%n%! o$O$a%o%)#p%z q%r%",
"s%t%u%v%w%x%y%z%A%B%C%D%E%F%G%H%I%J%K%L%M%N%O%P%Q%R%x%S%T%U%V%W%",
"# z X%Y%Z%`% &.&,$+&@&B@z@o$#&$&%&&&*&=&-&;&>&,&'&)&!&~&{&]&B # ",
"% D ^&/&&.(&a /&_&# :&L <&# | T [&}&X |&1&$.2&3&# 4&5&6&7&} 8&/ ",
"*+9&0&a&b&N c&d&- e&f&g&h&# i&j&, 9 k&- l&N m&n&| o&/&} p&q&7&= "};
