/* XPM */
static const char * IconPoseImage_xpm[] = {
"32 32 540 2",
"  	c #FAFFFA",
". 	c #FEFFFD",
"+ 	c #FFFCFE",
"@ 	c #FFFAFF",
"# 	c #FFFEFF",
"$ 	c #F8FFFF",
"% 	c #FBFFFA",
"& 	c #FFFDFA",
"* 	c #FEFEFF",
"= 	c #FFFDFF",
"- 	c #FCFFFA",
"; 	c #FFFBFF",
"> 	c #FEFFFF",
", 	c #FFFEFA",
"' 	c #FAFFFF",
") 	c #FAFEFD",
"! 	c #FFFFFB",
"~ 	c #FFFDFC",
"{ 	c #FCFFFF",
"] 	c #FCFEFD",
"^ 	c #FFFFFF",
"/ 	c #FBFBFB",
"( 	c #FDFDFD",
"_ 	c #FDFEFF",
": 	c #FAFFFE",
"< 	c #FDFCFF",
"[ 	c #FFFCFD",
"} 	c #FBFFFF",
"| 	c #FFFFFD",
"1 	c #F8FDF7",
"2 	c #FDFBFF",
"3 	c #F9FFFF",
"4 	c #FFFEFC",
"5 	c #FEFCFD",
"6 	c #FCFFFD",
"7 	c #FAFEFF",
"8 	c #F7FFFA",
"9 	c #FCFCFC",
"0 	c #FEFEFE",
"a 	c #FEFDFB",
"b 	c #FFFBF9",
"c 	c #FEFFF8",
"d 	c #F6FFFA",
"e 	c #F9FBFA",
"f 	c #F4FFFB",
"g 	c #FFFAFA",
"h 	c #F9FFFD",
"i 	c #F2FFFF",
"j 	c #FFF9FD",
"k 	c #FCFAFB",
"l 	c #FFFDFD",
"m 	c #FFFCFA",
"n 	c #FFFEFD",
"o 	c #FFFCFF",
"p 	c #FAFCFF",
"q 	c #FEFCFF",
"r 	c #FCFFF8",
"s 	c #FFFFF6",
"t 	c #FFFBF8",
"u 	c #FBFCFE",
"v 	c #EEFFF7",
"w 	c #FCFEF9",
"x 	c #FFFDFE",
"y 	c #FAFAFA",
"z 	c #F9FFF3",
"A 	c #FFFDF9",
"B 	c #FDFEF6",
"C 	c #FAFFF7",
"D 	c #F8FFFD",
"E 	c #FFFAF8",
"F 	c #FDFDFB",
"G 	c #F7FFFF",
"H 	c #F6FFFD",
"I 	c #FBFFFE",
"J 	c #F9F9F9",
"K 	c #FFFAFE",
"L 	c #F6FFFB",
"M 	c #F6FFFF",
"N 	c #FEFFFB",
"O 	c #FFFBFC",
"P 	c #F8FEFE",
"Q 	c #FFF8FE",
"R 	c #FFF9FF",
"S 	c #FDFFFC",
"T 	c #FDFDFF",
"U 	c #F6FFF7",
"V 	c #C0C8CB",
"W 	c #BBB9C6",
"X 	c #C3C4C8",
"Y 	c #C6C3BE",
"Z 	c #C3B7C1",
"` 	c #81D9E7",
" .	c #02FBF5",
"..	c #60E8C4",
"+.	c #DAB6C0",
"@.	c #C4BEC0",
"#.	c #B8BEBE",
"$.	c #D7CDCB",
"%.	c #A2A3A5",
"&.	c #474654",
"*.	c #394048",
"=.	c #544F55",
"-.	c #343D42",
";.	c #435056",
">.	c #A2A3A8",
",.	c #D0CCCD",
"'.	c #BCBDB8",
").	c #BFBDBE",
"!.	c #CDBEC5",
"~.	c #C3C3C3",
"{.	c #BCBCBC",
"].	c #BFBFBF",
"^.	c #BEBEBE",
"/.	c #C2C2C2",
"(.	c #C5C5C5",
"_.	c #FFFFF8",
":.	c #C4B8BA",
"<.	c #A9A7AA",
"[.	c #A0A8AA",
"}.	c #A3A5A4",
"|.	c #B1B2AD",
"1.	c #B3ABA8",
"2.	c #836668",
"3.	c #9B8592",
"4.	c #B1B4AD",
"5.	c #B2B2B0",
"6.	c #C7BEC1",
"7.	c #9E9492",
"8.	c #35524E",
"9.	c #32A795",
"0.	c #CDFEFF",
"a.	c #C0FFF9",
"b.	c #389381",
"c.	c #3C5A58",
"d.	c #A8979D",
"e.	c #C0BCB9",
"f.	c #B8C3BD",
"g.	c #BFBFC1",
"h.	c #C4C4C4",
"i.	c #AFAFAF",
"j.	c #A9A9A9",
"k.	c #A4A4A4",
"l.	c #A7A7A7",
"m.	c #BDBDBD",
"n.	c #BBB5B9",
"o.	c #010300",
"p.	c #000508",
"q.	c #071B1C",
"r.	c #36332A",
"s.	c #C4CCCF",
"t.	c #727176",
"u.	c #464644",
"v.	c #020204",
"w.	c #5E5E5C",
"x.	c #60625D",
"y.	c #393536",
"z.	c #E6DAE6",
"A.	c #FCF6F8",
"B.	c #F7FAE9",
"C.	c #F0EDF4",
"D.	c #F8F5FE",
"E.	c #FFF0F9",
"F.	c #DED9D6",
"G.	c #2C312A",
"H.	c #464D45",
"I.	c #C3B7B9",
"J.	c #C2C6C9",
"K.	c #D3D7DA",
"L.	c #383B40",
"M.	c #050100",
"N.	c #021C1B",
"O.	c #000207",
"P.	c #9DA29C",
"Q.	c #BFBDC0",
"R.	c #867F77",
"S.	c #66656B",
"T.	c #617D81",
"U.	c #05CCC5",
"V.	c #7C5F59",
"W.	c #77726C",
"X.	c #504C4D",
"Y.	c #313332",
"Z.	c #010000",
"`.	c #444446",
" +	c #518581",
".+	c #6A9B95",
"++	c #B2A8A7",
"@+	c #8A8182",
"#+	c #8A8997",
"$+	c #8A8C81",
"%+	c #918B8F",
"&+	c #868982",
"*+	c #B7ABAB",
"=+	c #6B9297",
"-+	c #3D6F6C",
";+	c #777D79",
">+	c #898A8F",
",+	c #585858",
"'+	c #6D5F5C",
")+	c #725B53",
"!+	c #0ACFC8",
"~+	c #627F83",
"{+	c #4C454D",
"]+	c #838379",
"^+	c #090013",
"/+	c #464042",
"(+	c #004D55",
"_+	c #64252E",
":+	c #393D46",
"<+	c #3C313F",
"[+	c #3F4448",
"}+	c #435047",
"|+	c #575258",
"1+	c #1E2134",
"2+	c #31898A",
"3+	c #95EAE5",
"4+	c #64616A",
"5+	c #5A5051",
"6+	c #57665F",
"7+	c #535B50",
"8+	c #4E635C",
"9+	c #4E544A",
"0+	c #726668",
"a+	c #9FEFEC",
"b+	c #30817B",
"c+	c #121214",
"d+	c #292F2F",
"e+	c #373F42",
"f+	c #443846",
"g+	c #3E3E48",
"h+	c #60292F",
"i+	c #044853",
"j+	c #464445",
"k+	c #070011",
"l+	c #FAFFFC",
"m+	c #130A03",
"n+	c #DBFFEF",
"o+	c #02FFFF",
"p+	c #FFDADB",
"q+	c #E7E3E2",
"r+	c #DFE1DC",
"s+	c #DAE4E3",
"t+	c #EAE5E2",
"u+	c #D9DADC",
"v+	c #8E858A",
"w+	c #896F6E",
"x+	c #F9DCD8",
"y+	c #C0B1AC",
"z+	c #84837F",
"A+	c #74706F",
"B+	c #807A86",
"C+	c #806D71",
"D+	c #8C8384",
"E+	c #B4B4B6",
"F+	c #FAD1E3",
"G+	c #866779",
"H+	c #948D95",
"I+	c #DBE2DA",
"J+	c #DDE7E6",
"K+	c #E5E6E1",
"L+	c #E5E4E2",
"M+	c #FFD9DA",
"N+	c #05FFFF",
"O+	c #D8FDEB",
"P+	c #0F0800",
"Q+	c #00090A",
"R+	c #495F53",
"S+	c #00706C",
"T+	c #64534B",
"U+	c #4D524B",
"V+	c #564F56",
"W+	c #52525A",
"X+	c #575852",
"Y+	c #4D4E49",
"Z+	c #535758",
"`+	c #93A29F",
" @	c #B6C1BB",
".@	c #52514C",
"+@	c #43423E",
"@@	c #74787B",
"#@	c #768485",
"$@	c #767772",
"%@	c #4C4147",
"&@	c #3F4447",
"*@	c #ADB4AC",
"=@	c #86938A",
"-@	c #545255",
";@	c #54534E",
">@	c #505058",
",@	c #534C53",
"'@	c #50574F",
")@	c #5F4C45",
"!@	c #00716B",
"~@	c #4A5E53",
"{@	c #000C0D",
"]@	c #010006",
"^@	c #080000",
"/@	c #050024",
"(@	c #010004",
"_@	c #090806",
":@	c #000300",
"<@	c #06000B",
"[@	c #000005",
"}@	c #030406",
"|@	c #1A423A",
"1@	c #527473",
"2@	c #89848B",
"3@	c #A9ABA8",
"4@	c #BDBDB3",
"5@	c #C9D1C2",
"6@	c #BBBAB6",
"7@	c #B0B1B3",
"8@	c #816D78",
"9@	c #4A6963",
"0@	c #123C2E",
"a@	c #060606",
"b@	c #000002",
"c@	c #000302",
"d@	c #000200",
"e@	c #060004",
"f@	c #000000",
"g@	c #080025",
"h@	c #060000",
"i@	c #040005",
"j@	c #FFF6FF",
"k@	c #020400",
"l@	c #000404",
"m@	c #0B014A",
"n@	c #000202",
"o@	c #000405",
"p@	c #000107",
"q@	c #000800",
"r@	c #040000",
"s@	c #182224",
"t@	c #91999B",
"u@	c #B8ADAB",
"v@	c #3C4540",
"w@	c #05030E",
"x@	c #180812",
"y@	c #090003",
"z@	c #424C4B",
"A@	c #C1B8BD",
"B@	c #829694",
"C@	c #07201D",
"D@	c #080006",
"E@	c #040002",
"F@	c #000500",
"G@	c #00050B",
"H@	c #040003",
"I@	c #000044",
"J@	c #000204",
"K@	c #050500",
"L@	c #000100",
"M@	c #030014",
"N@	c #000068",
"O@	c #000106",
"P@	c #040009",
"Q@	c #0B0000",
"R@	c #000502",
"S@	c #000400",
"T@	c #1B161C",
"U@	c #90879C",
"V@	c #B7AEA7",
"W@	c #4D4930",
"X@	c #2A285A",
"Y@	c #140EAC",
"Z@	c #00092D",
"`@	c #181621",
" #	c #262127",
".#	c #495153",
"+#	c #C6B7B2",
"@#	c #858084",
"##	c #12111F",
"$#	c #0E0000",
"%#	c #000009",
"&#	c #010200",
"*#	c #01006A",
"=#	c #020014",
"-#	c #030000",
";#	c #F9FFF8",
">#	c #0C0111",
",#	c #00004F",
"'#	c #000600",
")#	c #060006",
"!#	c #01000D",
"~#	c #050503",
"{#	c #6F746E",
"]#	c #BEC1C8",
"^#	c #3A353C",
"/#	c #211962",
"(#	c #3345F1",
"_#	c #0A45FF",
":#	c #001AAB",
"<#	c #04011E",
"[#	c #2C3216",
"}#	c #101E0F",
"|#	c #3A3E3F",
"1#	c #C5CCC5",
"2#	c #606757",
"3#	c #060807",
"4#	c #05060B",
"5#	c #00000C",
"6#	c #000039",
"7#	c #08030A",
"8#	c #010100",
"9#	c #040004",
"0#	c #140B0E",
"a#	c #9F9395",
"b#	c #D3D0BF",
"c#	c #14140C",
"d#	c #00006B",
"e#	c #072BFB",
"f#	c #0367FF",
"g#	c #012DD6",
"h#	c #180026",
"i#	c #520C14",
"j#	c #190214",
"k#	c #0E1619",
"l#	c #DDD7E3",
"m#	c #8B8893",
"n#	c #080903",
"o#	c #FFFEFB",
"p#	c #000313",
"q#	c #01096C",
"r#	c #00000E",
"s#	c #010005",
"t#	c #030102",
"u#	c #121116",
"v#	c #949590",
"w#	c #D9DAD4",
"x#	c #17190B",
"y#	c #02071D",
"z#	c #00066F",
"A#	c #0018A3",
"B#	c #130A65",
"C#	c #A80015",
"D#	c #DD0431",
"E#	c #4C0031",
"F#	c #181820",
"G#	c #E7E2DC",
"H#	c #888886",
"I#	c #0D060D",
"J#	c #F7FFFB",
"K#	c #060100",
"L#	c #080012",
"M#	c #020683",
"N#	c #0D0005",
"O#	c #00000B",
"P#	c #010002",
"Q#	c #020100",
"R#	c #020300",
"S#	c #0E0A1B",
"T#	c #949293",
"U#	c #C4C4C2",
"V#	c #0B0A0F",
"W#	c #2A2529",
"X#	c #232027",
"Y#	c #290717",
"Z#	c #C6003B",
"`#	c #DF287A",
" $	c #552C54",
".$	c #040E10",
"+$	c #CACACC",
"@$	c #858680",
"#$	c #070E07",
"$$	c #000004",
"%$	c #00001C",
"&$	c #3C373E",
"*$	c #C1C5D0",
"=$	c #7D877E",
"-$	c #151807",
";$	c #4E4C4F",
">$	c #1D221E",
",$	c #060009",
"'$	c #5F2454",
")$	c #734C79",
"!$	c #081110",
"~$	c #8C9695",
"{$	c #B6BAC6",
"]$	c #33342F",
"^$	c #00030F",
"/$	c #030260",
"($	c #03000B",
"_$	c #040013",
":$	c #000407",
"<$	c #4B444B",
"[$	c #D4CBCC",
"}$	c #8A8A88",
"|$	c #070001",
"1$	c #030106",
"2$	c #040605",
"3$	c #969487",
"4$	c #CDC2C0",
"5$	c #453A42",
"6$	c #060007",
"7$	c #020200",
"8$	c #000408",
"9$	c #070000",
"0$	c #0C0000",
"a$	c #070008",
"b$	c #342E2E",
"c$	c #C6C6BC",
"d$	c #9A9F9B",
"e$	c #3E403F",
"f$	c #5B5653",
"g$	c #354141",
"h$	c #A7A5B3",
"i$	c #B8B9B3",
"j$	c #2B302A",
"k$	c #ADD9C2",
"l$	c #15EDFF",
"m$	c #D9ACA6",
"n$	c #B1C1C0",
"o$	c #B8B7BC",
"p$	c #B3BDBE",
"q$	c #B9B8B6",
"r$	c #C5BDBB",
"s$	c #A7BCBD",
"t$	c #52959E",
"u$	c #2D6862",
"v$	c #454744",
"w$	c #A992A4",
"x$	c #FFFBFE",
"y$	c #9C8C97",
"z$	c #564848",
"A$	c #28675E",
"B$	c #509B96",
"C$	c #B7BEB7",
"D$	c #C0B7BA",
"E$	c #010101",
"F$	c #0B0B0B",
"G$	c #090909",
"H$	c #0A0A0A",
"I$	c #0C0C0C",
"J$	c #040404",
"K$	c #050505",
"L$	c #0D0D0D",
"M$	c #0E0E0E",
"N$	c #080808",
"O$	c #F8F8F8",
"  . + @ # $ % & * = # - ; > , $ ' ) ! ~ * { ] , ^ ^ / ^ ^ ^ ( ^ ",
"= _ : { > < _ * [ } | 1 2 3 4 _ # 5 ! 6 7 { } 8 ( ^ ^ ^ 9 ^ ^ 0 ",
"a b c d = @ # e c f g h i ' j ; k l m l ^ _ 0 n ^ ( ^ 0 0 ^ ^ ^ ",
"o 3 p q r s ; { t 6 # u ; # v n | % w l x ] # @ ^ 0 ^ ^ 0 y ^ ^ ",
"z & [ ( n A B C o ^ } ; ^ D . E F h G H I ^ > 7 9 ^ ^ 0 ^ ^ ^ J ",
"> K I L n ~ 6 ~ M } 3 { N O P | # Q R > : S # T 0 ^ 9 ^ ^ ( y ^ ",
"U V W X Y Z `  ...+.@.#.$.%.&.*.=.-.;.>.,.'.).!.~.{.].~.^./.(./ ",
"_.:.<.[.}.|.1.2.3.4.5.6.7.8.9.0.o a.b.c.d.e.f.g.h.i.j.k.l.m.m.^ ",
"> n.o.p.q.r.s.t.u.v.w.x.y.z.A.B.C.D.E.F.G.H.I.J.K.L.M.N.O.P.Q.# ",
"{ R.S.T.U.V.W.X.Y.Z.`. +.+++@+#+$+%+&+*+=+-+;+>+,+'+)+!+~+{+]+0 ",
"I ^+/+(+_+:+<+[+}+|+1+2+3+4+5+6+7+8+9+0+a+b+c+d+e+f+g+h+i+j+k+I ",
"l+m+n+o+p+q+r+s+t+u+v+w+x+y+z+A+B+C+D+E+F+G+H+I+J+K+L+M+N+O+P+6 ",
"= Q+R+S+T+U+V+W+X+Y+Z+`+ @.@+@@@#@$@%@&@*@=@-@;@>@,@'@)@!@~@{@= ",
"@ ]@^@/@Z.(@_@:@<@[@}@|@1@2@3@4@5@6@7@8@9@0@a@b@c@d@e@f@g@h@i@o ",
"j@k@l@m@n@o@p@q@r@q@r@s@t@u@v@w@x@y@z@A@B@C@D@E@F@G@l@H@I@J@K@@ ",
"r L@M@N@o.O@P@Q@R@S@T@U@V@W@X@Y@Z@`@ #.#+#@###:@$#%#[@&#*#=#-#;#",
"| h@>#,#L@'#d@)#!#~#{#]#^#/#(#_#:#<#[#}#|#1#2#3#)#d@'#L@,#>#h@| ",
"T 4#5#6#7#:@8#9#S@0#a#b#c#d#e#f#g#h#i#j#k#l#m#n#9#8#:@7#6#5#4#T ",
"o#:@p#q#r#s#t#L@L@u#v#w#x#y#z#A#B#C#D#E#F#G#H#I#L@t#s#r#q#p#:@o#",
"J#K#L#M#N#O#P#Q#R#S#T#U#V#W#X#L@Y#Z#`# $.$+$@$#$Q#P#O#N#M#L#K#J#",
"o $$d@%$S@S@b@L@d@i@&$*$=$-$;$>$,$'$)$!$~${$]$d@L@b@S@S@%$d@$$o ",
"; d@^$/$($'#:@_$&#:$n@<$[$}$O#|$1$:@2$3$4$5$d@6$_$:@'#($/$^$d@; ",
"h Z.7$5#8$9$0$r@a$5#:@Z.b$c$d$e$f$g$h$i$j$5#d@L@r@0$9$8$5#7$Z.h ",
"M m+k$l$m$n$o$p$q$r$s$t$u$v$w$_.x$3 y$z$A$B$C$D$p$o$n$m$l$k$m+M ",
"0 E$F$G$G$H$I$G$G$H$G$a@J$K$G$L$M$F$N$K$K$a@G$F$G$I$H$G$G$F$E$0 ",
"^ 0 9 ^ ^ ( 9 ^ ^ ^ ^ ^ 0 0 ^ ^ ^ ^ ^ 0 0 0 ^ ^ ^ 9 ( ^ ^ 9 0 ^ ",
"( ^ ( ^ ^ ^ 9 ^ ^ 0 0 ^ ^ ^ ^ 0 0 0 ^ ^ ^ ^ ^ ^ ^ 9 ^ ^ ^ ( ^ ( ",
"^ O$^ ( 0 ( ^ ^ ^ 0 0 0 ^ ^ 0 0 ^ ^ ^ ^ ^ ^ ^ ^ ^ ^ ( 0 ( ^ O$^ ",
"^ ^ ( ( ^ ( y ^ ^ ^ ^ ^ ^ ^ ^ ^ ^ ^ ^ 0 ^ ^ ^ ^ ^ y ( ^ ( ( ^ ^ ",
"( ^ ^ ( 0 ^ ^ ^ ( 0 ^ ^ 0 0 0 0 0 0 0 0 0 0 0 0 ^ ^ ^ 0 ( ^ ^ ( ",
"^ ^ ( 0 ^ / ^ 9 0 ^ ^ ^ ^ ^ ^ 0 ^ ^ ^ ^ ^ ^ ^ ^ 9 ^ / ^ 0 ( ^ ^ ",
"^ ( ^ ^ 9 ^ ( ^ ^ ^ 0 0 ^ ^ ^ ^ ^ ^ 0 0 0 ^ ^ ^ ^ ( ^ 9 ^ ^ ( ^ "};
