/* XPM */
static const char * IconNonUtilisationShutterCentrage_xpm[] = {
"32 32 876 2",
"  	c #FDFDFD",
". 	c #FFFFFF",
"+ 	c #FCFCFC",
"@ 	c #FFFFFD",
"# 	c #FDFDFB",
"$ 	c #FFFEFA",
"% 	c #FFFEFB",
"& 	c #FFFBF8",
"* 	c #FFFDFD",
"= 	c #F5FFFE",
"- 	c #E0E9EE",
"; 	c #AEC6E2",
"> 	c #86ACC1",
", 	c #688DA8",
"' 	c #6783AA",
") 	c #5E8DAB",
"! 	c #6E94AB",
"~ 	c #86AACA",
"{ 	c #9AC1D2",
"] 	c #D4DAF4",
"^ 	c #E4F7FF",
"/ 	c #F9FFFF",
"( 	c #FEFDFB",
"_ 	c #FFFCFF",
": 	c #FFFCF8",
"< 	c #FBFAF8",
"[ 	c #FCFFFF",
"} 	c #FAFFFF",
"| 	c #FEFEFE",
"1 	c #FFFDF9",
"2 	c #FEFFFF",
"3 	c #FBFAF6",
"4 	c #FCFEFD",
"5 	c #FBFFFF",
"6 	c #C3D7D5",
"7 	c #7E9AA8",
"8 	c #436475",
"9 	c #3F5D81",
"0 	c #42688C",
"a 	c #507B8C",
"b 	c #537F9A",
"c 	c #588AA1",
"d 	c #6E9AB3",
"e 	c #80A8C1",
"f 	c #88B4BD",
"g 	c #90A7B5",
"h 	c #8CA6B5",
"i 	c #AFC2C8",
"j 	c #E4EAE0",
"k 	c #EFFFFF",
"l 	c #FEFAF7",
"m 	c #FDFEFF",
"n 	c #FAFEFF",
"o 	c #FEFEFC",
"p 	c #FDF9F6",
"q 	c #FFFFFA",
"r 	c #D4E4F1",
"s 	c #778C9D",
"t 	c #2A4D83",
"u 	c #325E79",
"v 	c #3B6780",
"w 	c #456DA1",
"x 	c #586591",
"y 	c #4776A2",
"z 	c #487C94",
"A 	c #2A5776",
"B 	c #5F93BA",
"C 	c #87B3E4",
"D 	c #B5C9E4",
"E 	c #A8D1D3",
"F 	c #B2D8EF",
"G 	c #A0C1D0",
"H 	c #9BACC6",
"I 	c #A1C5D3",
"J 	c #EDF8FE",
"K 	c #FCFCFA",
"L 	c #F9FDFE",
"M 	c #F7FBFE",
"N 	c #BFCDDA",
"O 	c #4A647B",
"P 	c #2C4E6A",
"Q 	c #3B628D",
"R 	c #32647F",
"S 	c #40647E",
"T 	c #396999",
"U 	c #F3FF0D",
"V 	c #42789A",
"W 	c #4F78AC",
"X 	c #507997",
"Y 	c #6199BE",
"Z 	c #83BAD8",
"` 	c #EAFC06",
" .	c #A7D3EC",
"..	c #A9DCEF",
"+.	c #B9E6EB",
"@.	c #B6D9F5",
"#.	c #A2C4D0",
"$.	c #95A9B4",
"%.	c #D9E8EF",
"&.	c #F6FEFF",
"*.	c #F8FCFF",
"=.	c #BCC6D0",
"-.	c #354B60",
";.	c #315271",
">.	c #375F83",
",.	c #30587C",
"'.	c #3E6B8C",
").	c #46638D",
"!.	c #38688E",
"~.	c #FFFF02",
"{.	c #3F759B",
"].	c #537FAE",
"^.	c #5D89A6",
"/.	c #6D9BCC",
"(.	c #90BFD9",
"_.	c #FFFD00",
":.	c #A6D1E4",
"<.	c #AAD8E7",
"[.	c #B4DAED",
"}.	c #B7DBF1",
"|.	c #BDDDF2",
"1.	c #B6D1E2",
"2.	c #8AA1AF",
"3.	c #D6E7EF",
"4.	c #FDFFFE",
"5.	c #FBFCFE",
"6.	c #F5FDFF",
"7.	c #C0CED9",
"8.	c #354A5D",
"9.	c #304E68",
"0.	c #395D7F",
"a.	c #3A688A",
"b.	c #365D86",
"c.	c #3C6488",
"d.	c #3D6692",
"e.	c #FBFF06",
"f.	c #427594",
"g.	c #487DA9",
"h.	c #5688AD",
"i.	c #79A2B6",
"j.	c #97BECF",
"k.	c #B2D8E5",
"l.	c #B8D4E9",
"m.	c #B7DAF0",
"n.	c #BED8F1",
"o.	c #B3DCF0",
"p.	c #95B8CB",
"q.	c #ABCCDD",
"r.	c #839DAC",
"s.	c #DAEBF3",
"t.	c #F7FFFF",
"u.	c #FEFDF8",
"v.	c #DCEAF3",
"w.	c #3C5569",
"x.	c #2F4E6A",
"y.	c #3F6282",
"z.	c #214567",
"A.	c #325678",
"B.	c #37678F",
"C.	c #315680",
"D.	c #396484",
"E.	c #3B6190",
"F.	c #FBFF02",
"G.	c #406E8F",
"H.	c #4976A0",
"I.	c #4D81A6",
"J.	c #92BBDB",
"K.	c #F5FF0B",
"L.	c #B3D7E7",
"M.	c #BCD8E6",
"N.	c #BADFE7",
"O.	c #B7D7E4",
"P.	c #A3D2D8",
"Q.	c #486E83",
"R.	c #9EC4D9",
"S.	c #ADD0E4",
"T.	c #859FAE",
"U.	c #E7F4FA",
"V.	c #FBFBFB",
"W.	c #FFFEF7",
"X.	c #6E818F",
"Y.	c #2C4C65",
"Z.	c #355C7D",
"`.	c #365C80",
" +	c #37597C",
".+	c #3A5B7A",
"++	c #2C5976",
"@+	c #395F84",
"#+	c #3E5D8C",
"$+	c #36627D",
"%+	c #FFFE04",
"&+	c #416B91",
"*+	c #527190",
"=+	c #518198",
"-+	c #6E9CB4",
";+	c #8EC2D7",
">+	c #FAFF03",
",+	c #AFD3E3",
"'+	c #B0D5DB",
")+	c #B1D7EC",
"!+	c #ABD8DD",
"~+	c #B1D6F3",
"{+	c #AAD3E9",
"]+	c #ABD5ED",
"^+	c #B0D8F1",
"/+	c #9BBACC",
"(+	c #A7B8C0",
"_+	c #F9FEFF",
":+	c #FFFDFF",
"<+	c #BFCFC5",
"[+	c #294167",
"}+	c #385773",
"|+	c #36587B",
"1+	c #325C84",
"2+	c #345D89",
"3+	c #335873",
"4+	c #395B7E",
"5+	c #3A5D93",
"6+	c #425E90",
"7+	c #F8FF00",
"8+	c #35557C",
"9+	c #3F5260",
"0+	c #3B5876",
"a+	c #4C6675",
"b+	c #667B8C",
"c+	c #FAFF00",
"d+	c #AFCBE0",
"e+	c #B1D3DF",
"f+	c #B2CFEF",
"g+	c #A2D0DF",
"h+	c #ABD1E4",
"i+	c #AFC9EA",
"j+	c #AAD0DD",
"k+	c #AACADF",
"l+	c #AECFE0",
"m+	c #7BA0B3",
"n+	c #D3E8ED",
"o+	c #FCFDFF",
"p+	c #FAFFF3",
"q+	c #687A90",
"r+	c #294769",
"s+	c #38587E",
"t+	c #3C5C85",
"u+	c #355683",
"v+	c #35557E",
"w+	c #405978",
"x+	c #3B5D80",
"y+	c #3D5981",
"z+	c #3D5B75",
"A+	c #415367",
"B+	c #FEFE00",
"C+	c #506262",
"D+	c #5A5D56",
"E+	c #3A4348",
"F+	c #2C3F43",
"G+	c #33464C",
"H+	c #FAFF07",
"I+	c #597A89",
"J+	c #8EB6B5",
"K+	c #A3C5E1",
"L+	c #A2CFD5",
"M+	c #A3C6D9",
"N+	c #A2C3D4",
"O+	c #9BC3DC",
"P+	c #A4C9E3",
"Q+	c #9CC1D4",
"R+	c #8EB3CD",
"S+	c #A0B4BD",
"T+	c #FFFEFF",
"U+	c #D5E5E5",
"V+	c #284356",
"W+	c #325571",
"X+	c #385B6F",
"Y+	c #345672",
"Z+	c #335970",
"`+	c #365F75",
" @	c #3B5B84",
".@	c #355B82",
"+@	c #3D5B77",
"@@	c #3A5661",
"#@	c #404E59",
"$@	c #FFFF07",
"%@	c #88947C",
"&@	c #97967A",
"*@	c #70744F",
"=@	c #5B5547",
"-@	c #251F23",
";@	c #FCFE07",
">@	c #3B4E5C",
",@	c #526F81",
"'@	c #8BA8D2",
")@	c #9BC4DA",
"!@	c #96B9D5",
"~@	c #8EC1D4",
"{@	c #8ABED6",
"]@	c #8CB7D7",
"^@	c #8DB9D6",
"/@	c #87B8D6",
"(@	c #7396AA",
"_@	c #E4EAF6",
":@	c #FFFAFF",
"<@	c #A2ADC1",
"[@	c #263E56",
"}@	c #3C5D86",
"|@	c #34547A",
"1@	c #395B74",
"2@	c #385C7E",
"3@	c #345580",
"4@	c #395376",
"5@	c #38567C",
"6@	c #465A75",
"7@	c #4D5C63",
"8@	c #70715F",
"9@	c #F8F907",
"0@	c #7F7D64",
"a@	c #786D51",
"b@	c #887C6C",
"c@	c #8D7C5E",
"d@	c #6D5D39",
"e@	c #FFFB02",
"f@	c #1D1F12",
"g@	c #404958",
"h@	c #4F6674",
"i@	c #8CAEC7",
"j@	c #92B6CE",
"k@	c #8EB2CA",
"l@	c #8BB4D2",
"m@	c #84AFD1",
"n@	c #82AED5",
"o@	c #7FB3CB",
"p@	c #6793AC",
"q@	c #BBCDD9",
"r@	c #638B93",
"s@	c #294864",
"t@	c #4C557C",
"u@	c #EEFF0B",
"v@	c #FBFE00",
"w@	c #FFFD0C",
"x@	c #FFFF06",
"y@	c #FFFF01",
"z@	c #FBFF04",
"A@	c #FBFB05",
"B@	c #FCFF00",
"C@	c #FEFE0A",
"D@	c #BDBA97",
"E@	c #AAAF91",
"F@	c #A2AA93",
"G@	c #B8C09B",
"H@	c #C5BEA4",
"I@	c #FFFC00",
"J@	c #FDFD00",
"K@	c #FFF907",
"L@	c #FDFA00",
"M@	c #FEFF04",
"N@	c #FEFF00",
"O@	c #FFFB00",
"P@	c #EEFF00",
"Q@	c #859EC7",
"R@	c #649BB9",
"S@	c #94B4BF",
"T@	c #FFF8FB",
"U@	c #495676",
"V@	c #375766",
"W@	c #325982",
"X@	c #40688B",
"Y@	c #2F5480",
"Z@	c #345D7D",
"`@	c #315670",
" #	c #3C5A76",
".#	c #35597D",
"+#	c #4C5C75",
"@#	c #666F6E",
"##	c #948D85",
"$#	c #A9A28F",
"%#	c #C8C6B7",
"&#	c #C4C6AE",
"*#	c #CAC7B4",
"=#	c #C9D0C9",
"-#	c #D7D3C7",
";#	c #A89F78",
">#	c #7B6D62",
",#	c #2F2724",
"'#	c #304148",
")#	c #476973",
"!#	c #6297A7",
"~#	c #6A92B5",
"{#	c #6895BC",
"]#	c #659BB7",
"^#	c #6798B9",
"/#	c #6895B4",
"(#	c #5D8CB8",
"_#	c #7998AC",
":#	c #FBFCF7",
"<#	c #374568",
"[#	c #38586F",
"}#	c #346174",
"|#	c #376282",
"1#	c #366181",
"2#	c #335779",
"3#	c #3E5C76",
"4#	c #445E77",
"5#	c #555770",
"6#	c #6F696D",
"7#	c #9A8977",
"8#	c #A6A590",
"9#	c #C9C6B5",
"0#	c #BEC0BD",
"a#	c #BFC2AF",
"b#	c #C4C2B6",
"c#	c #CCC1AB",
"d#	c #9A9086",
"e#	c #927C71",
"f#	c #3A291F",
"g#	c #2C333B",
"h#	c #3F5165",
"i#	c #597D9F",
"j#	c #537DA7",
"k#	c #5386A5",
"l#	c #4F88A6",
"m#	c #568796",
"n#	c #4F729C",
"o#	c #5581A6",
"p#	c #62849F",
"q#	c #FFFFF6",
"r#	c #243E4B",
"s#	c #395C70",
"t#	c #2D5078",
"u#	c #34517B",
"v#	c #496688",
"w#	c #3D6185",
"x#	c #3B628B",
"y#	c #3B6185",
"z#	c #446A77",
"A#	c #4E5B64",
"B#	c #5E5F4F",
"C#	c #827263",
"D#	c #A2A590",
"E#	c #C6BDB4",
"F#	c #BCBFA4",
"G#	c #C5BABE",
"H#	c #C5BDBA",
"I#	c #CEC0C0",
"J#	c #79795F",
"K#	c #82765C",
"L#	c #3F372C",
"M#	c #202D33",
"N#	c #496B8E",
"O#	c #4B7899",
"P#	c #4A7296",
"Q#	c #4F7898",
"R#	c #507391",
"S#	c #2F546F",
"T#	c #487BA6",
"U#	c #557C9B",
"V#	c #2F4251",
"W#	c #3B5F6D",
"X#	c #456C93",
"Y#	c #406086",
"Z#	c #4D6F8A",
"`#	c #466F8D",
" $	c #44708D",
".$	c #43648D",
"+$	c #517283",
"@$	c #506276",
"#$	c #616161",
"$$	c #8D847F",
"%$	c #A0A489",
"&$	c #BFC7B8",
"*$	c #B2BE98",
"=$	c #BABAB2",
"-$	c #B2B6B7",
";$	c #CFC9BB",
">$	c #9F9589",
",$	c #8D8077",
"'$	c #443F3B",
")$	c #2D3134",
"!$	c #45556E",
"~$	c #436187",
"{$	c #416C8E",
"]$	c #446E98",
"^$	c #4B729B",
"/$	c #487D9C",
"($	c #3D7598",
"_$	c #5A798E",
":$	c #FDFCFF",
"<$	c #485868",
"[$	c #395A69",
"}$	c #436AA1",
"|$	c #547E97",
"1$	c #4B758E",
"2$	c #4B7993",
"3$	c #487298",
"4$	c #57799C",
"5$	c #5A7797",
"6$	c #627885",
"7$	c #6A6E77",
"8$	c #8E857C",
"9$	c #AEA190",
"0$	c #D1C8C3",
"a$	c #CCC2A9",
"b$	c #CAB6B5",
"c$	c #D1D3BE",
"d$	c #D8D6A6",
"e$	c #AA9F81",
"f$	c #837E6B",
"g$	c #4E4D53",
"h$	c #4F5B57",
"i$	c #364E68",
"j$	c #426782",
"k$	c #43638A",
"l$	c #3C6585",
"m$	c #3A6588",
"n$	c #426D90",
"o$	c #416D92",
"p$	c #3E6A91",
"q$	c #657F96",
"r$	c #FBFFFD",
"s$	c #597C82",
"t$	c #3C586D",
"u$	c #676AA1",
"v$	c #EAFF0C",
"w$	c #FFFF05",
"x$	c #FDFF04",
"y$	c #FDFF01",
"z$	c #F8FF04",
"A$	c #A79A77",
"B$	c #827D69",
"C$	c #85846F",
"D$	c #9C926F",
"E$	c #A38F77",
"F$	c #F9FF00",
"G$	c #FFFE01",
"H$	c #F9F900",
"I$	c #FFFF03",
"J$	c #FBFF00",
"K$	c #FFFF08",
"L$	c #EDFF00",
"M$	c #566A9F",
"N$	c #2F617C",
"O$	c #829FAD",
"P$	c #FFF9F9",
"Q$	c #99A3AF",
"R$	c #2B4051",
"S$	c #5C7F93",
"T$	c #5E84A9",
"U$	c #6288AF",
"V$	c #658B9E",
"W$	c #7297A7",
"X$	c #6F93A3",
"Y$	c #7295AB",
"Z$	c #6F90B1",
"`$	c #6A8C98",
" %	c #5F7368",
".%	c #887C6E",
"+%	c #817359",
"@%	c #887765",
"#%	c #86846B",
"$%	c #FAFF06",
"%%	c #374641",
"&%	c #4C5E62",
"*%	c #405A73",
"=%	c #3F627E",
"-%	c #3A6285",
";%	c #376284",
">%	c #386785",
",%	c #356490",
"'%	c #396892",
")%	c #3B6796",
"!%	c #315875",
"~%	c #A7BDD2",
"{%	c #F6FFFF",
"]%	c #CCE4EE",
"^%	c #24424D",
"/%	c #577C96",
"(%	c #5D87AF",
"_%	c #6993A9",
":%	c #7698B3",
"<%	c #7898B1",
"[%	c #7E9FB2",
"}%	c #849EB9",
"|%	c #84A1AF",
"1%	c #769AB2",
"2%	c #6E889F",
"3%	c #B4BFB9",
"4%	c #D4E2D1",
"5%	c #D7E8D8",
"6%	c #D5DAD6",
"7%	c #9B9FA2",
"8%	c #FDFB06",
"9%	c #445A65",
"0%	c #41526E",
"a%	c #435B7F",
"b%	c #426279",
"c%	c #3E5E87",
"d%	c #3B5F7F",
"e%	c #3D5C8A",
"f%	c #3D5E87",
"g%	c #42688F",
"h%	c #3C618D",
"i%	c #405C74",
"j%	c #D3E1E1",
"k%	c #F6FBFF",
"l%	c #5A6672",
"m%	c #3C5C67",
"n%	c #6494AB",
"o%	c #679BA6",
"p%	c #7AA0B5",
"q%	c #7D9EB1",
"r%	c #81A2C3",
"s%	c #87ACBF",
"t%	c #85A8BC",
"u%	c #7CA9BC",
"v%	c #739CA0",
"w%	c #87A1B8",
"x%	c #8CA9B7",
"y%	c #86A5AA",
"z%	c #5B7E84",
"A%	c #466A6A",
"B%	c #FCFF01",
"C%	c #3B657B",
"D%	c #456189",
"E%	c #426289",
"F%	c #3E5F8A",
"G%	c #3B5C7D",
"H%	c #395F8C",
"I%	c #396282",
"J%	c #3A6689",
"K%	c #3E6A8D",
"L%	c #375378",
"M%	c #7C8594",
"N%	c #FDFDFF",
"O%	c #FDFFF1",
"P%	c #FFFEF6",
"Q%	c #CACABE",
"R%	c #2C3D4D",
"S%	c #6487AF",
"T%	c #6793AE",
"U%	c #7B9EB4",
"V%	c #8AA8C2",
"W%	c #82A5C1",
"X%	c #83ACBE",
"Y%	c #91B0CC",
"Z%	c #97C0D2",
"`%	c #96BAD0",
" &	c #FFF700",
".&	c #7193B6",
"+&	c #5F8496",
"@&	c #527883",
"#&	c #4B698D",
"$&	c #466883",
"%&	c #FFFE00",
"&&	c #406F8B",
"*&	c #4D6E8F",
"=&	c #36667C",
"-&	c #315E7B",
";&	c #426E8B",
">&	c #31607E",
",&	c #305B8E",
"'&	c #39586A",
")&	c #C7CCDF",
"!&	c #FFF9FF",
"~&	c #5D6C81",
"{&	c #416478",
"]&	c #7398C2",
"^&	c #7FA1AA",
"/&	c #81A8AF",
"(&	c #7DAECC",
"_&	c #8CB2BD",
":&	c #96AFC5",
"<&	c #97B5D1",
"[&	c #98B6D2",
"}&	c #FFF900",
"|&	c #85ADC6",
"1&	c #6C93B2",
"2&	c #597F92",
"3&	c #527696",
"4&	c #507393",
"5&	c #FFFA08",
"6&	c #49758E",
"7&	c #4F6789",
"8&	c #4F6D93",
"9&	c #41657F",
"0&	c #43638C",
"a&	c #366289",
"b&	c #375A78",
"c&	c #466884",
"d&	c #305A70",
"e&	c #6286A0",
"f&	c #ECFEFF",
"g&	c #FEFFFA",
"h&	c #FDFEF8",
"i&	c #FAFEFD",
"j&	c #DDE0E9",
"k&	c #334657",
"l&	c #588099",
"m&	c #72A1BB",
"n&	c #7AA2BB",
"o&	c #8FA9C0",
"p&	c #86ADCC",
"q&	c #92B5CB",
"r&	c #8CB9CC",
"s&	c #95B8CC",
"t&	c #FDFF00",
"u&	c #7CA4C8",
"v&	c #6A91B0",
"w&	c #59809D",
"x&	c #4E7594",
"y&	c #53749D",
"z&	c #F7FD00",
"A&	c #54769C",
"B&	c #516C8A",
"C&	c #43718B",
"D&	c #416893",
"E&	c #305369",
"F&	c #315575",
"G&	c #345A7E",
"H&	c #DBE8F0",
"I&	c #FFFCFD",
"J&	c #BDC6CF",
"K&	c #294352",
"L&	c #6389A0",
"M&	c #7CA4BE",
"N&	c #80A5C0",
"O&	c #8EB5BC",
"P&	c #99B1D3",
"Q&	c #92B1C5",
"R&	c #8FAFC4",
"S&	c #FFFE02",
"T&	c #77A0C0",
"U&	c #6493A7",
"V&	c #517F96",
"W&	c #4B7698",
"X&	c #517691",
"Y&	c #FFFE05",
"Z&	c #4E7B9C",
"`&	c #56739D",
" *	c #557A97",
".*	c #4B748A",
"+*	c #4D6F8B",
"@*	c #476C86",
"#*	c #3D607C",
"$*	c #3A546D",
"%*	c #B9C9D8",
"&*	c #F7FDFD",
"**	c #FEFEFF",
"=*	c #FDFCFA",
"-*	c #FEFBF6",
";*	c #B8C1C8",
">*	c #2A4153",
",*	c #6387A1",
"'*	c #7CA9C6",
")*	c #74A1B6",
"!*	c #8BA7BF",
"~*	c #92ABCA",
"{*	c #FFFD01",
"]*	c #6E95B4",
"^*	c #6392A4",
"/*	c #55819A",
"(*	c #567CA0",
"_*	c #4E7096",
":*	c #4B81A5",
"<*	c #4E7592",
"[*	c #517B91",
"}*	c #517899",
"|*	c #52718D",
"1*	c #3F6781",
"2*	c #3C576C",
"3*	c #B0BDC6",
"4*	c #FAFAFC",
"5*	c #FDFEF9",
"6*	c #F9FAFC",
"7*	c #FAF9F4",
"8*	c #C2C8D4",
"9*	c #3E5565",
"0*	c #52778A",
"a*	c #73A6B9",
"b*	c #769DBA",
"c*	c #78A1B7",
"d*	c #7098BB",
"e*	c #F1FF00",
"f*	c #6A93B3",
"g*	c #58859C",
"h*	c #4C748E",
"i*	c #4F7290",
"j*	c #577B91",
"k*	c #F0FF00",
"l*	c #457B9F",
"m*	c #507D9E",
"n*	c #5984A7",
"o*	c #51789F",
"p*	c #446979",
"q*	c #4D697F",
"r*	c #B9C9D6",
"s*	c #FFFDF7",
"t*	c #FFFEF9",
"u*	c #FFFAFA",
"v*	c #FAFFFE",
"w*	c #F7F5F8",
"x*	c #DEE5EB",
"y*	c #728186",
"z*	c #37587B",
"A*	c #588195",
"B*	c #699ABA",
"C*	c #6F9AAD",
"D*	c #7284AA",
"E*	c #608EB0",
"F*	c #5987A9",
"G*	c #36647E",
"H*	c #39627E",
"I*	c #537EA1",
"J*	c #60789A",
"K*	c #4B7C9D",
"L*	c #537A9B",
"M*	c #476A7E",
"N*	c #486779",
"O*	c #7791AA",
"P*	c #D9E6EF",
"Q*	c #FFFCF9",
"R*	c #FFFDF8",
"S*	c #FFFBF5",
"T*	c #FFFCFC",
"U*	c #F8FFFF",
"V*	c #F3FBFE",
"W*	c #FFFCFB",
"X*	c #C5CED7",
"Y*	c #718A8E",
"Z*	c #355C63",
"`*	c #48647C",
" =	c #537893",
".=	c #4B779A",
"+=	c #46739C",
"@=	c #4A789A",
"#=	c #457291",
"$=	c #49778E",
"%=	c #3B6F85",
"&=	c #4A627A",
"*=	c #8390A3",
"==	c #CAD3DA",
"-=	c #F9FDFF",
";=	c #FFFDF5",
">=	c #F9FCFF",
",=	c #FFFDFA",
"'=	c #F9FFF1",
")=	c #D7E6EB",
"!=	c #AEBBC4",
"~=	c #7C8F95",
"{=	c #61778C",
"]=	c #526C85",
"^=	c #48607A",
"/=	c #536B83",
"(=	c #667C94",
"_=	c #799596",
":=	c #ADC0CE",
"<=	c #DDE9E7",
"[=	c #FBFEF5",
"}=	c #FFFEFD",
"|=	c #FAFCF9",
"1=	c #F8FAF9",
"2=	c #FBF9FA",
"3=	c #FAFFFB",
"4=	c #FFFAFE",
"5=	c #FFFDFE",
"6=	c #FFFDF6",
"7=	c #FCFAFD",
"8=	c #FFFBFF",
"9=	c #FCFFFD",
"0=	c #FFFFFB",
"a=	c #FEFDFF",
"b=	c #FEFEF6",
"c=	c #F8FFFD",
"d=	c #FBFFF8",
"e=	c #FFFBFC",
"f=	c #FBFFFE",
"g=	c #FEFFFD",
"h=	c #FDF8F5",
"i=	c #FFFDFB",
"  . + @ # $ % & * = - ; > , ' ) ! ~ { ] ^ / ( _   % : < [ } | 1 ",
"2   @ 3 @ 4 5 5 6 7 8 9 0 a b c d e f g h i j k 5   l @ m n . & ",
"m o p q + / r s t u v w x y z A B C D E F G H I J 5 . ( K | | @ ",
"L @ % % M N O P Q R S T U V W X Y Z `  ...+.@.#.$.%.&.4 @ @     ",
"2   | *.=.-.;.>.,.'.).!.~.{.].^./.(._.:.<.[.}.|.1.2.3./ 4.( . 5.",
"@ 2 6.7.8.9.0.>.a.b.c.d.e.f.g.h.i.j.~.k.l.m.n.o.p.q.r.s.t.+ . 2 ",
"u.5 v.w.x.y.z.A.B.C.D.E.F.G.H.I.i.J.K.L.M.N.O.P.Q.R.S.T.U.[   V.",
"W.} X.Y.Z.`. +.+++@+#+$+%+&+*+=+-+;+>+,+'+)+!+~+{+]+^+/+(+_+| . ",
":+<+[+}+|+1+2+3+3+4+5+6+7+8+9+0+a+b+c+d+e+f+g+h+i+j+k+l+m+n+o+p+",
"[ q+r+s+t+u+v+w+x+y+z+A+B+C+D+E+F+G+H+I+J+K+L+M+N+O+P+Q+R+S++ T+",
"U+V+W+X+Y+Z+`+ @.@+@@@#@$@%@&@*@=@-@;@>@,@'@)@!@~@{@]@^@/@(@_@:@",
"<@[@}@|@1@2@3@4@5@6@7@8@9@0@a@b@c@d@e@f@g@h@i@j@k@l@m@n@o@p@q@@ ",
"r@s@t@u@v@w@x@y@z@A@B@C@y@D@E@F@G@H@I@J@K@x@L@M@N@O@O@P@Q@R@S@T@",
"U@V@W@X@Y@Z@`@ #.#+#@###$#%#&#*#=#-#;#>#,#'#)#!#~#{#]#^#/#(#_#:#",
"<#[#}#1+|#1#2#3#4#5#6#7#8#9#0#a#b#c#d#e#f#g#h#i#j#k#l#m#n#o#p#q#",
"r#s#t#u#v#w#x#y#z#A#B#C#D#E#F#G#H#I#J#K#L#M#A+N#O#P#Q#R#S#T#U#_ ",
"V#W#X#Y#Z#`# $.$+$@$#$$$%$&$*$=$-$;$>$,$'$)$!$~${$]$^$^$/$($_$:$",
"<$[$}$|$1$2$3$4$5$6$7$8$9$0$a$b$c$d$e$f$g$h$i$j$k$l$m$n$o$p$q$r$",
"s$t$u$v$M@w$x$N@B@y$c+z$~.A$B$C$D$E$K@F$G$O@H$I$J$O@K$L$M$N$O$P$",
"Q$R$S$T$U$V$W$X$Y$Z$`$ %v@.%+%@%#%0@$%%%&%*%=%-%;%>%,%'%)%!%~%{%",
"]%^%/%(%_%:%<%[%}%|%1%2%N@3%4%5%6%7%8%9%0%a%b%c%d%e%f%g%h%i%j%[ ",
"k%l%m%n%o%p%q%r%s%t%u%v%y@w%x%y%z%A%B%C%D%E%F%G%H%I%J%K%L%M%N%O%",
"P%Q%R%S%T%U%V%W%X%Y%Z%`% &.&+&@&#&$&%&&&*&c.B.=&-&;&>&,&'&)&!&:+",
"} 5 ~&{&]&^&/&(&_&:&<&[&}&|&1&2&3&4&5&6&7&8&9&0&a&b&c&d&e&f&g&h&",
"i&. j&k&l&m&n&o&p&q&r&s&t&u&v&w&x&y&z&A&B&P#C&D&E&F&G&i%H&h&q I&",
"m T+. J&K&L&M&N&O&P&Q&R&S&T&U&V&W&X&Y&Z&`& *.*+*@*#*$*%*&*q @ 2 ",
"**=*-*@ ;*>*,*'*)*!*~*s%{*]*^*/*(*_*O@:*<*[*}*|*1*2*3*4*q 5*6*[ ",
":+@ q 7*. 8*9*0*a*b*c*d*e*f*g*h*i*j*k*l*m*n*o*p*q*r*. s*t*4.2 m ",
"u*V.v*[ w*T+x*y*z*A*B*C*D*E*F*G*H*I*J*K*L*M*N*O*P*5 Q*R*4 5 . S*",
"T*2 U*V*. W*Q*K X*Y*Z*`* =.=+=@=#=$=%=S &=*===U*N%@ g&2 -=o+( ;=",
"@ o+>=2 K $ ,=T+:@'=)=!=~={=]=^=/=(=_=:=<=. _ [=}=@ |=1=. 2=@ 5*",
"3=. 4=5=u.q m **6=@ 7=m 8=V.9=0=a=b=& c=o+W._ d=e=2 f=g=h=i=V.t."};
