/* XPM */
static const char * IconForceShutterClose_xpm[] = {
"32 32 820 2",
"  	c #FCFFFF",
". 	c #FFFFFF",
"+ 	c #FFFDFE",
"@ 	c #FFFEFF",
"# 	c #FEFFFD",
"$ 	c #FDFFFA",
"% 	c #FFFFFB",
"& 	c #FFFDFA",
"* 	c #FFFEFC",
"= 	c #FBFFFF",
"- 	c #DAE6F2",
"; 	c #B5CADF",
"> 	c #96B1CC",
", 	c #7FA0BF",
"' 	c #7194B2",
") 	c #6E93B0",
"! 	c #79A1BB",
"~ 	c #93B6CC",
"{ 	c #B1CDDB",
"] 	c #CEE4EF",
"^ 	c #E3F4FC",
"/ 	c #F7FFFF",
"( 	c #FEFFFF",
"_ 	c #FFFEFA",
": 	c #FFFEFD",
"< 	c #FDFCFA",
"[ 	c #FFFCFC",
"} 	c #FEFEFF",
"| 	c #FFFFFD",
"1 	c #FEFDFB",
"2 	c #FDFDFD",
"3 	c #F9FFFF",
"4 	c #C7DBE6",
"5 	c #879EAC",
"6 	c #527185",
"7 	c #446882",
"8 	c #3F6886",
"9 	c #446F8F",
"0 	c #507D9A",
"a 	c #6491AE",
"b 	c #6C99B8",
"c 	c #759FB8",
"d 	c #83A6B9",
"e 	c #8BA8B8",
"f 	c #97B1BE",
"g 	c #C0D4DD",
"h 	c #E2EDF3",
"i 	c #FAFFFF",
"j 	c #FDFDFF",
"k 	c #FFFEFB",
"l 	c #FAFCFB",
"m 	c #FAFCF7",
"n 	c #DAE8F5",
"o 	c #839DAC",
"p 	c #3E637E",
"q 	c #345B7A",
"r 	c #356082",
"s 	c #3E6C90",
"t 	c #48789E",
"u 	c #4C7EA1",
"v 	c #3D6E8E",
"w 	c #3F708E",
"x 	c #71A6C8",
"y 	c #8CBBD9",
"z 	c #A2CCE4",
"A 	c #ABD1E4",
"B 	c #A5CADC",
"C 	c #92B3C4",
"D 	c #93ADBC",
"E 	c #C2D8E5",
"F 	c #EBF5FF",
"G 	c #FDFCF8",
"H 	c #FCFCFA",
"I 	c #FCFCFE",
"J 	c #FEFEFE",
"K 	c #FEFFFA",
"L 	c #FBFCFF",
"M 	c #BFCBD9",
"N 	c #587289",
"O 	c #2E536E",
"P 	c #31577E",
"Q 	c #3B628B",
"R 	c #3D6892",
"S 	c #3C6993",
"T 	c #41709A",
"U 	c #47779F",
"V 	c #416F93",
"W 	c #487698",
"X 	c #6FA5C7",
"Y 	c #88B9D7",
"Z 	c #A0CDE4",
"` 	c #A9D3E9",
" .	c #B0DAF0",
"..	c #BDE6FA",
"+.	c #ADD2E5",
"@.	c #8AABBC",
"#.	c #A6B9C7",
"$.	c #E0EEF7",
"%.	c #FBFBFB",
"&.	c #FAFBFF",
"*.	c #B9C6CF",
"=.	c #486175",
"-.	c #274A66",
";.	c #33597E",
">.	c #3E6189",
",.	c #3A6087",
"'.	c #3A618C",
").	c #3E6994",
"!.	c #3D6A94",
"~.	c #5484AA",
"{.	c #5C8CB2",
"].	c #6FA1C2",
"^.	c #90BFD9",
"/.	c #9FC9DF",
"(.	c #ACD5E7",
"_.	c #B5DEF2",
":.	c #B0DBEE",
"<.	c #BBE1F6",
"[.	c #C1E6F9",
"}.	c #A3BECF",
"|.	c #95ACBA",
"1.	c #DCEDF5",
"2.	c #F8FFFF",
"3.	c #FCFBF9",
"4.	c #FAFFFE",
"5.	c #C3CDD9",
"6.	c #415B6C",
"7.	c #284C64",
"8.	c #396081",
"9.	c #3B5E84",
"0.	c #365F7F",
"a.	c #3B6688",
"b.	c #3B6689",
"c.	c #3E6B92",
"d.	c #3A6A90",
"e.	c #407297",
"f.	c #4C80A5",
"g.	c #568CB0",
"h.	c #78A7C5",
"i.	c #99C3DB",
"j.	c #ABD0E2",
"k.	c #B2D6E6",
"l.	c #B1D6E8",
"m.	c #B8DEF1",
"n.	c #BBE1F4",
"o.	c #8BB0C2",
"p.	c #95B8CB",
"q.	c #A0C1D2",
"r.	c #8CA6B5",
"s.	c #DBECF6",
"t.	c #FCFEFD",
"u.	c #F8FCFF",
"v.	c #DBE7F3",
"w.	c #4E6479",
"x.	c #254762",
"y.	c #385C7C",
"z.	c #24486A",
"A.	c #3B5D80",
"B.	c #366183",
"C.	c #325D80",
"D.	c #386489",
"E.	c #3F6B90",
"F.	c #3F6D91",
"G.	c #437397",
"H.	c #5A8AAE",
"I.	c #7BA8C7",
"J.	c #95BDD6",
"K.	c #ADD0E3",
"L.	c #BBDCEB",
"M.	c #B7DBEB",
"N.	c #BADFF1",
"O.	c #B6DBED",
"P.	c #7C9FB2",
"Q.	c #7399AC",
"R.	c #B8DEF3",
"S.	c #95B8CE",
"T.	c #99B3C4",
"U.	c #EBF8FF",
"V.	c #F9FDFE",
"W.	c #758C9A",
"X.	c #264861",
"Y.	c #3A5C7F",
"Z.	c #3C5E83",
"`.	c #2D4F72",
" +	c #365B78",
".+	c #365E82",
"++	c #335A81",
"@+	c #3B6188",
"#+	c #3F628A",
"$+	c #3D6086",
"%+	c #496C92",
"&+	c #4E7197",
"*+	c #5A7EA2",
"=+	c #75A2C1",
"-+	c #9EC6DF",
";+	c #ACCFE2",
">+	c #AFCFDE",
",+	c #B9DAE9",
"'+	c #B4D9EB",
")+	c #AFD2E5",
"!+	c #ADD6E8",
"~+	c #ABD5EB",
"{+	c #ABD3EC",
"]+	c #8AA9BE",
"^+	c #B3C3D0",
"/+	c #FEFEFC",
"(+	c #C4CED8",
"_+	c #354E64",
":+	c #315273",
"<+	c #395D81",
"[+	c #365A7E",
"}+	c #385C80",
"|+	c #375B7F",
"1+	c #37597E",
"2+	c #355C79",
"3+	c #37607E",
"4+	c #3C6488",
"5+	c #3D6080",
"6+	c #365569",
"7+	c #354F60",
"8+	c #3B5169",
"9+	c #426271",
"0+	c #658294",
"a+	c #90ADBF",
"b+	c #B0D4E4",
"c+	c #AAD4E2",
"d+	c #A6D2DF",
"e+	c #A9CEE0",
"f+	c #ADCBE3",
"g+	c #A9CCDF",
"h+	c #A4CEE6",
"i+	c #A8CEE3",
"j+	c #9CC0D6",
"k+	c #7EA6BF",
"l+	c #D1E7F4",
"m+	c #FDFEFF",
"n+	c #758390",
"o+	c #29435C",
"p+	c #375A7A",
"q+	c #35597B",
"r+	c #385C7E",
"s+	c #315575",
"t+	c #3B5F7F",
"u+	c #3C5F7F",
"v+	c #35536F",
"w+	c #36505F",
"x+	c #43585B",
"y+	c #4B5A5F",
"z+	c #495561",
"A+	c #405455",
"B+	c #36474E",
"C+	c #43555F",
"D+	c #637D8C",
"E+	c #9DC0D4",
"F+	c #A6CCE1",
"G+	c #A4CADF",
"H+	c #A2C5D9",
"I+	c #9DC2D5",
"J+	c #9CC8E1",
"K+	c #9BC4DA",
"L+	c #99BFD4",
"M+	c #7EA8C0",
"N+	c #A7C1D0",
"O+	c #F9FDFF",
"P+	c #D8E2EB",
"Q+	c #374A5B",
"R+	c #2F4D69",
"S+	c #3A5E82",
"T+	c #365C81",
"U+	c #37597C",
"V+	c #365A7C",
"W+	c #365E78",
"X+	c #355677",
"Y+	c #395270",
"Z+	c #495B67",
"`+	c #616E65",
" @	c #768171",
".@	c #81877B",
"+@	c #81847D",
"@@	c #7A8074",
"#@	c #757B6F",
"$@	c #505954",
"%@	c #425059",
"&@	c #536C82",
"*@	c #8FB1CC",
"=@	c #9CC2D9",
"-@	c #98BED1",
";@	c #99BFD6",
">@	c #8BB7D2",
",@	c #90BAD2",
"'@	c #92BAD3",
")@	c #88B2CB",
"!@	c #85A4B8",
"~@	c #E0EBF1",
"{@	c #A3B5C3",
"]@	c #284157",
"^@	c #395C7A",
"/@	c #355B80",
"(@	c #385B7B",
"_@	c #3B607B",
":@	c #3C5775",
"<@	c #4E5F71",
"[@	c #6E7870",
"}@	c #7E8671",
"|@	c #808571",
"1@	c #828675",
"2@	c #888C75",
"3@	c #848575",
"4@	c #848772",
"5@	c #888C7B",
"6@	c #5B6660",
"7@	c #425460",
"8@	c #567087",
"9@	c #8CB0C8",
"0@	c #89B2C6",
"a@	c #8BB5CE",
"b@	c #83B0CD",
"c@	c #87B5CF",
"d@	c #85AFC8",
"e@	c #87B3CE",
"f@	c #779BB3",
"g@	c #C6D8E4",
"h@	c #FBFCFE",
"i@	c #788FA1",
"j@	c #28435E",
"k@	c #3A5E80",
"l@	c #365D84",
"m@	c #385E83",
"n@	c #365979",
"o@	c #375877",
"p@	c #4D637A",
"q@	c #6A7676",
"r@	c #7E836F",
"s@	c #7F846E",
"t@	c #7B8175",
"u@	c #7B8473",
"v@	c #7E896B",
"w@	c #83897D",
"x@	c #7B836E",
"y@	c #828C71",
"z@	c #828E78",
"A@	c #52615C",
"B@	c #415764",
"C@	c #6C8CA3",
"D@	c #82AAC4",
"E@	c #7AA6C3",
"F@	c #7EABCA",
"G@	c #77A6C4",
"H@	c #7DA9C4",
"I@	c #80ACC7",
"J@	c #618DAA",
"K@	c #A6C0D1",
"L@	c #577086",
"M@	c #25435F",
"N@	c #416587",
"O@	c #3E668A",
"P@	c #3A6085",
"Q@	c #365A7A",
"R@	c #3B5A79",
"S@	c #5A6D7B",
"T@	c #737E70",
"U@	c #7A7E67",
"V@	c #7A8171",
"W@	c #7C867E",
"X@	c #7D897B",
"Y@	c #7C896F",
"Z@	c #7C887E",
"`@	c #798675",
" #	c #7A876D",
".#	c #838D72",
"+#	c #6F7A69",
"@#	c #445656",
"##	c #526E83",
"$#	c #6F93B3",
"%#	c #6B97B4",
"&#	c #6F9CBB",
"*#	c #6F9DBE",
"=#	c #739FBA",
"-#	c #749DB9",
";#	c #618FB0",
">#	c #85A5BC",
",#	c #40596F",
"'#	c #2B4965",
")#	c #436789",
"!#	c #3B6186",
"~#	c #3E6488",
"{#	c #3F6385",
"]#	c #3D6181",
"^#	c #365D7E",
"/#	c #405D7B",
"(#	c #62757B",
"_#	c #7A8372",
":#	c #7F826D",
"<#	c #7D8375",
"[#	c #7C867B",
"}#	c #7E8677",
"|#	c #778272",
"1#	c #768173",
"2#	c #777F70",
"3#	c #7D8170",
"4#	c #7F8374",
"5#	c #4A5954",
"6#	c #405B6E",
"7#	c #5E84A8",
"8#	c #5E89A9",
"9#	c #5F8CAB",
"0#	c #5E8CAD",
"a#	c #46728D",
"b#	c #446E87",
"c#	c #5688AB",
"d#	c #7397B1",
"e#	c #394F66",
"f#	c #35506B",
"g#	c #385A7D",
"h#	c #2C5277",
"i#	c #476B8F",
"j#	c #426688",
"k#	c #446888",
"l#	c #3F6687",
"m#	c #486680",
"n#	c #64777B",
"o#	c #767C6E",
"p#	c #787A6C",
"q#	c #7A8072",
"r#	c #7E8774",
"s#	c #828773",
"t#	c #8B877B",
"u#	c #808870",
"v#	c #797C75",
"w#	c #7C7C74",
"x#	c #7F7F73",
"y#	c #55605C",
"z#	c #3A5566",
"A#	c #50769A",
"B#	c #507B9B",
"C#	c #527D9D",
"D#	c #5684A5",
"E#	c #547D99",
"F#	c #4C748E",
"G#	c #4A7EA3",
"H#	c #678CA7",
"I#	c #41586A",
"J#	c #335267",
"K#	c #456A87",
"L#	c #3D6684",
"M#	c #517897",
"N#	c #507590",
"O#	c #4D728D",
"P#	c #4E7390",
"Q#	c #59758D",
"R#	c #687C7D",
"S#	c #6E7762",
"T#	c #73795D",
"U#	c #75806F",
"V#	c #737F75",
"W#	c #7B8374",
"X#	c #868872",
"Y#	c #7C8975",
"Z#	c #7C8475",
"`#	c #7A7C71",
" $	c #7B7B6F",
".$	c #72786C",
"+$	c #4F6260",
"@$	c #3C5967",
"#$	c #486D8A",
"$$	c #466D8C",
"%$	c #4A7095",
"&$	c #48769A",
"*$	c #4B7C9C",
"=$	c #547EA4",
"-$	c #406E90",
";$	c #68899A",
">$	c #53687B",
",$	c #304C62",
"'$	c #547996",
")$	c #547D9D",
"!$	c #557E9C",
"~$	c #5E839E",
"{$	c #567E98",
"]$	c #5E82A2",
"^$	c #6D8492",
"/$	c #757C74",
"($	c #787967",
"_$	c #7C8071",
":$	c #7B8378",
"<$	c #7A8277",
"[$	c #7D8173",
"}$	c #7F8778",
"|$	c #7E8575",
"1$	c #7B7E6D",
"2$	c #797D6C",
"3$	c #6D776C",
"4$	c #4C5F63",
"5$	c #37566B",
"6$	c #42668A",
"7$	c #406989",
"8$	c #40668D",
"9$	c #416E95",
"0$	c #3E6F90",
"a$	c #477197",
"b$	c #3C678A",
"c$	c #7493A5",
"d$	c #788B9C",
"e$	c #233D54",
"f$	c #5A7D9B",
"g$	c #5780A0",
"h$	c #628BA9",
"i$	c #6088A2",
"j$	c #658AA4",
"k$	c #638BA4",
"l$	c #6491B0",
"m$	c #718EA0",
"n$	c #778183",
"o$	c #747468",
"p$	c #797F71",
"q$	c #7E8075",
"r$	c #7D806F",
"s$	c #868B74",
"t$	c #7D8975",
"u$	c #5C6D67",
"v$	c #445B69",
"w$	c #405F7E",
"x$	c #3D5E87",
"y$	c #3D6588",
"z$	c #3D648D",
"A$	c #427094",
"B$	c #416B91",
"C$	c #88A2B3",
"D$	c #A6B6C6",
"E$	c #21374E",
"F$	c #50728E",
"G$	c #6089A7",
"H$	c #6891AD",
"I$	c #6991AA",
"J$	c #719AB0",
"K$	c #729BB1",
"L$	c #6F9DAD",
"M$	c #7798A7",
"N$	c #7D8E96",
"O$	c #757E79",
"P$	c #747B69",
"Q$	c #798169",
"R$	c #777F67",
"S$	c #7B806C",
"T$	c #7F8174",
"U$	c #7E8271",
"V$	c #818D79",
"W$	c #6D7E74",
"X$	c #465C67",
"Y$	c #3C5774",
"Z$	c #426288",
"`$	c #3A5C82",
" %	c #386288",
".%	c #39638B",
"+%	c #3B678E",
"@%	c #3F6C93",
"#%	c #3E698C",
"$%	c #3F617D",
"%%	c #ACBFCE",
"&%	c #DAE4F0",
"*%	c #273A4B",
"=%	c #486881",
"-%	c #668DAA",
";%	c #668FAB",
">%	c #769EB7",
",%	c #789EB3",
"'%	c #7AA0B5",
")%	c #82A8B3",
"!%	c #85A6B5",
"~%	c #87A1B2",
"{%	c #788F97",
"]%	c #6E817D",
"^%	c #6E7F6F",
"/%	c #757F74",
"(%	c #748074",
"_%	c #62736D",
":%	c #4A6169",
"<%	c #3F5A75",
"[%	c #3D5B81",
"}%	c #3B5D82",
"|%	c #396087",
"1%	c #406A90",
"2%	c #386083",
"3%	c #4C667D",
"4%	c #D8E2EC",
"5%	c #6B7986",
"6%	c #29455A",
"7%	c #688CA6",
"8%	c #7199B3",
"9%	c #7CA2B9",
"0%	c #7FA3B9",
"a%	c #85AABD",
"b%	c #8DACBE",
"c%	c #90AFC4",
"d%	c #90B0C9",
"e%	c #86A4BC",
"f%	c #7794A4",
"g%	c #6E878E",
"h%	c #6A7C80",
"i%	c #6B797A",
"j%	c #607473",
"k%	c #576F73",
"l%	c #496370",
"m%	c #456179",
"n%	c #456689",
"o%	c #416389",
"p%	c #3B5F83",
"q%	c #3B6281",
"r%	c #375E85",
"s%	c #3E6689",
"t%	c #41678B",
"u%	c #3D648B",
"v%	c #2F5673",
"w%	c #8093A2",
"x%	c #FAFDFF",
"y%	c #CBD6DC",
"z%	c #223C4D",
"A%	c #50728B",
"B%	c #7297B1",
"C%	c #7A9EB6",
"D%	c #87AAC0",
"E%	c #8CAFC3",
"F%	c #8FADC5",
"G%	c #95B5CC",
"H%	c #99BCD0",
"I%	c #9ABDD1",
"J%	c #91B1C8",
"K%	c #809EB6",
"L%	c #6C8AA2",
"M%	c #59788D",
"N%	c #517285",
"O%	c #496980",
"P%	c #4A6C88",
"Q%	c #4F7292",
"R%	c #4B6F8F",
"S%	c #426988",
"T%	c #386084",
"U%	c #416A88",
"V%	c #3F6383",
"W%	c #40647C",
"X%	c #C0CDD6",
"Y%	c #FFFFFA",
"Z%	c #F6FEFF",
"`%	c #748B99",
" &	c #224259",
".&	c #7094AC",
"+&	c #80A3B9",
"@&	c #8AAAC1",
"#&	c #8FAFC4",
"$&	c #95B7D0",
"%&	c #97BBCB",
"&&	c #99BBC4",
"*&	c #9FC0C9",
"=&	c #9BBACE",
"-&	c #89ADC7",
";&	c #7099B7",
">&	c #52819D",
",&	c #4D7598",
"'&	c #4B7397",
")&	c #4B7196",
"!&	c #4A7190",
"~&	c #4A728B",
"{&	c #476F88",
"]&	c #436B8E",
"^&	c #3F6894",
"/&	c #2B4F73",
"(&	c #2F5771",
"_&	c #416482",
":&	c #2F5174",
"<&	c #7296AC",
"[&	c #F5FEFF",
"}&	c #FFFCFA",
"|&	c #F9FEFF",
"1&	c #DEEBF4",
"2&	c #485B69",
"3&	c #3B5669",
"4&	c #82A2B7",
"5&	c #81A5BD",
"6&	c #8EB4CB",
"7&	c #93B3CA",
"8&	c #98B7CC",
"9&	c #9EBDD2",
"0&	c #9CBDD0",
"a&	c #92B5C9",
"b&	c #83A9BE",
"c&	c #6B95AD",
"d&	c #548099",
"e&	c #4D7493",
"f&	c #49708F",
"g&	c #4D728F",
"h&	c #4E7594",
"i&	c #4E7797",
"j&	c #477295",
"k&	c #406C8F",
"l&	c #3E617D",
"m&	c #2A5170",
"n&	c #55738B",
"o&	c #D9E7F2",
"p&	c #FFFCF9",
"q&	c #F6FDFF",
"r&	c #C7D5DE",
"s&	c #2D4351",
"t&	c #456176",
"u&	c #83A7BF",
"v&	c #85AAC4",
"w&	c #91B5C5",
"x&	c #94B8C8",
"y&	c #8DB0C6",
"z&	c #7EA3BE",
"A&	c #688FAE",
"B&	c #567EA1",
"C&	c #4E7A9D",
"D&	c #4E799B",
"E&	c #4B7698",
"F&	c #507999",
"G&	c #527998",
"H&	c #567B98",
"I&	c #517693",
"J&	c #4E718D",
"K&	c #486F8E",
"L&	c #2F526E",
"M&	c #4C687E",
"N&	c #B6C6D3",
"O&	c #FFFBF8",
"P&	c #F6FBFF",
"Q&	c #C4D2DB",
"R&	c #364D5D",
"S&	c #446378",
"T&	c #7FA3BB",
"U&	c #85ABBE",
"V&	c #8AB0C3",
"W&	c #8DB1C7",
"X&	c #89ADC5",
"Y&	c #80A5BF",
"Z&	c #7198B5",
"`&	c #628BAB",
" *	c #5A82A5",
".*	c #537C9C",
"+*	c #4C7799",
"@*	c #537FA2",
"#*	c #4F7A9C",
"$*	c #587F9E",
"%*	c #597C98",
"&*	c #50728D",
"**	c #305776",
"=*	c #4D697F",
"-*	c #B7C4CD",
";*	c #FCFCFC",
">*	c #CEDBE3",
",*	c #546A78",
"'*	c #375263",
")*	c #698BA7",
"!*	c #7A9DB9",
"~*	c #85A8C4",
"{*	c #7BA3BD",
"]*	c #6F98B4",
"^*	c #6894B1",
"/*	c #5988A4",
"(*	c #477694",
"_*	c #3A5D79",
":*	c #527996",
"<*	c #517C9E",
"[*	c #4C7A9C",
"}*	c #5480A3",
"|*	c #547FA1",
"1*	c #446B88",
"2*	c #40637F",
"3*	c #628098",
"4*	c #BFCFDC",
"5*	c #FFFBF7",
"6*	c #FAFEFF",
"7*	c #FCFDFF",
"8*	c #E4EDF2",
"9*	c #97A4AC",
"0*	c #3C556B",
"a*	c #456177",
"b*	c #5D7D94",
"c*	c #6D91AB",
"d*	c #5485A5",
"e*	c #4A7B9B",
"f*	c #416887",
"g*	c #527B9B",
"h*	c #527D9F",
"i*	c #4D789A",
"j*	c #446D8B",
"k*	c #3D617B",
"l*	c #577389",
"m*	c #8AA3B7",
"n*	c #F9FAFC",
"o*	c #D2E1E4",
"p*	c #8B9CA3",
"q*	c #4D636E",
"r*	c #395972",
"s*	c #3E617F",
"t*	c #3F6589",
"u*	c #3A6585",
"v*	c #355E7C",
"w*	c #335A77",
"x*	c #3F617A",
"y*	c #557083",
"z*	c #8C9EAA",
"A*	c #CDD8DE",
"B*	c #F7FCFF",
"C*	c #FCFFFB",
"D*	c #F9FFFD",
"E*	c #E4EEF0",
"F*	c #BDCBD4",
"G*	c #92A2AF",
"H*	c #748595",
"I*	c #637589",
"J*	c #5A6C80",
"K*	c #607B8E",
"L*	c #738D9E",
"M*	c #90A6B4",
"N*	c #B9CAD4",
"O*	c #DEE9EF",
"P*	c #F6FBFE",
"Q*	c #FDFFFE",
"R*	c #FAFAFA",
"S*	c #FAFEFD",
"  . + @ # $ % & * = - ; > , ' ) ! ~ { ] ^ / ( _ @ : _ <   = . [ ",
"} . | 1 | 2 = 3 4 5 6 7 8 9 0 a b c d e f g h i   j k % l   } @ ",
"@ . m % @ } n o p q r s t u v w x y z A B C D E F = . G H . I @ ",
"@ J K | L M N O P Q R S T U V W X Y Z `  ...+.@.#.$.3 ( | < . . ",
"= %.@ &.*.=.-.;.>.,.'.).!.U ~.{.].^./.(._.:.<.[.}.|.1.2.( 3.. ( ",
"4.( } 5.6.7.8.9.0.a.b.c.d.e.f.g.h.i.j.k.l.m.n.o.p.q.r.s.3 . | t.",
"% u.v.w.x.y.z.A.r B.C.D.E.F.G.H.I.J.K.L.M.N.O.P.Q.R.S.T.U.V.| | ",
"& = W.X.Y.Z.`. +.+++@+#+$+%+&+*+=+-+;+>+,+l.'+)+!+~+{+]+^+= /+% ",
"( (+_+:+<+[+}+|+1+2+3+4+5+6+7+8+9+0+a+b+c+d+e+f+g+h+i+j+k+l+| m+",
"i n+o+p+<+|+q+r+s+t+u+v+w+x+y+z+A+B+C+D+E+F+G+H+I+J+K+L+M+N+O+( ",
"P+Q+R+S+T+}+U+V+W+X+Y+Z+`+ @.@+@@@#@$@%@&@*@=@-@;@>@,@'@)@!@~@( ",
"{@]@^@/@T+}+(@(@_@:@<@[@}@|@1@2@3@4@5@6@7@8@9@0@a@b@c@d@e@f@g@h@",
"i@j@k@l@m@V+n@y.o@p@q@r@s@t@u@v@w@x@y@z@A@B@C@D@E@F@G@H@I@J@K@( ",
"L@M@N@O@P@k@Q@Q@R@S@T@U@V@W@X@Y@Z@`@ #.#+#@###$#%#&#*#=#-#;#>#. ",
",#'#)#!#~#{#]#^#/#(#_#:#<#[#}#1@|#1#2#3#4#5#6#7#8#9#0#a#b#c#d#% ",
"e#f#g#h#i#j#k#l#m#n#o#p#q#r#s#t#u#o#v#w#x#y#z#A#B#C#D#E#F#G#H#_ ",
"I#J#K#L#M#N#O#P#Q#R#S#T#U#V#W#X#Y#Z#`# $.$+$@$#$$$%$&$*$=$-$;$@ ",
">$,$'$)$!$~$~${$]$^$/$($_$:$<$[$}$|$1$2$3$4$5$6$7$8$9$0$a$b$c$. ",
"d$e$f$g$h$i$j$k$l$m$n$o$($3#V@p$q$r$s$t$u$v$w$x$y$z$c.A$B$l#C$m+",
"D$E$F$G$H$I$J$K$L$M$N$O$P$Q$R$S$T$U$V$W$X$Y$Z$`$ %.%+%@%#%$%%%  ",
"&%*%=%-%;%>%,%'%)%!%~%{%]%^%+#2$/%(%_%:%<%[%}%]#|% %1%+%2%3%4%O+",
"= 5%6%7%8%9%0%a%b%c%d%e%f%g%h%i%j%k%l%m%n%o%p%q%r%s%t%u%v%w%x%  ",
"H y%z%A%B%C%D%E%F%G%H%I%J%K%L%M%N%O%P%Q%R%S%~#T%!#U%V%|+W%X%+   ",
"Y%Z%`% &.&+&@&#&$&%&&&*&=&-&;&>&,&'&)&!&~&{&]&^&/&(&_&:&<&[&}&# ",
"( |&1&2&3&4&5&6&7&8&9&0&a&b&c&d&e&f&g&'$h&i&j&k&l&q%m&n&o&m+p&k ",
"| . q&r&s&t&u&v&w&x&p.a&y&z&A&B&C&D&E&F&G&H&I&J&K&L&M&N&= 2 . ( ",
"k O&. P&Q&R&S&T&U&V&W&X&Y&Z&`& *.*+*D&@*#*$*%*&***=*-*( | ;*  i ",
"| : & | |&>*,*'*)*!*~*{*]*^*/*(*_*:*<*[*}*|*1*2*3*4*m+5*k m+6*m+",
"6*7*| k <   8*9*0*a*b*c*H$9#d*e*f*g*h*i*j*k*l*m*o&= * k n*  . _ ",
"=   2 * | | J ( o*p*q*z#r*s*j#t*u*v*w*x*y*z*A*B*( . 2 (     < _ ",
"( m+( . 2 . @ + C*D*E*F*G*H*I*J*K*L*M*N*O*P*Q*% O&J   u.. 3.| R*",
"| | t.(   ( . . + . m+= = = S*# =   ( | /+(     k m+= m+_ _ R*3 "};
