/* XPM */
static const char * IconPoseBias_xpm[] = {
"32 32 699 2",
"  	c #FEFCFD",
". 	c #FDFDFD",
"+ 	c #FEFEFE",
"@ 	c #FDFFFE",
"# 	c #FFFDFE",
"$ 	c #FCFAFB",
"% 	c #FAFAFA",
"& 	c #FFFFFF",
"* 	c #FBFBFB",
"= 	c #FCFCFC",
"- 	c #FEFFFF",
"; 	c #F9FBFA",
"> 	c #FBFDFC",
", 	c #FCFFFF",
"' 	c #FFFEFF",
") 	c #FCFEFD",
"! 	c #FAFEFF",
"~ 	c #000201",
"{ 	c #000100",
"] 	c #000000",
"^ 	c #030303",
"/ 	c #F9F9F9",
"( 	c #FDFEFF",
"_ 	c #FAFEFD",
": 	c #F9FFFF",
"< 	c #020202",
"[ 	c #F9FDFC",
"} 	c #FFFFFD",
"| 	c #FEFFFD",
"1 	c #F8FEFE",
"2 	c #F6FFFE",
"3 	c #F7FFFF",
"4 	c #FBFFFE",
"5 	c #F8FCFB",
"6 	c #000302",
"7 	c #FAFCFB",
"8 	c #020403",
"9 	c #FDFDFB",
"0 	c #FCFEFB",
"a 	c #FEFEFC",
"b 	c #F5FFFF",
"c 	c #FBFFFF",
"d 	c #F6FCFA",
"e 	c #FEFDFB",
"f 	c #FFFEFC",
"g 	c #FDFFFC",
"h 	c #F6FEFF",
"i 	c #F9FFFD",
"j 	c #F8FEFC",
"k 	c #F7FBFA",
"l 	c #F6FAF9",
"m 	c #010302",
"n 	c #FFFEFB",
"o 	c #F8FDFF",
"p 	c #F7FFF2",
"q 	c #FDFBFF",
"r 	c #F9FCFF",
"s 	c #F8FCFF",
"t 	c #F1FFE9",
"u 	c #FFFBFA",
"v 	c #FCFDFF",
"w 	c #FEFDFF",
"x 	c #000200",
"y 	c #FBFFFA",
"z 	c #030000",
"A 	c #000600",
"B 	c #FCFCFA",
"C 	c #FFFCFF",
"D 	c #F2FFFF",
"E 	c #FAFFFF",
"F 	c #FBFCF7",
"G 	c #FEF9FD",
"H 	c #F8FDF9",
"I 	c #FFF6FA",
"J 	c #F6FFFF",
"K 	c #F8FFF0",
"L 	c #FFF9FF",
"M 	c #FAFFF9",
"N 	c #F5FFFD",
"O 	c #FFFAFD",
"P 	c #FFF6F6",
"Q 	c #F4FFFF",
"R 	c #F4FFF7",
"S 	c #F2FDF7",
"T 	c #FBFFFD",
"U 	c #FFF9F9",
"V 	c #FFFCFD",
"W 	c #080000",
"X 	c #050100",
"Y 	c #080001",
"Z 	c #F6FFFD",
"` 	c #FAFFFE",
" .	c #FFF7FF",
"..	c #FFFFFA",
"+.	c #FBFDFA",
"@.	c #F8FFFF",
"#.	c #F6FCF8",
"$.	c #FFFDFF",
"%.	c #FDF4F5",
"&.	c #F8FFF1",
"*.	c #F2FAFF",
"=.	c #F5F8FD",
"-.	c #F8FFFA",
";.	c #ECFFF5",
">.	c #F4FDFA",
",.	c #F5FEFB",
"'.	c #EAFEFF",
").	c #E6FFFB",
"!.	c #F4FFFA",
"~.	c #F3FDF4",
"{.	c #F8F3F0",
"].	c #FFFAF2",
"^.	c #F1FEF5",
"/.	c #EFFDFD",
"(.	c #FDFBFC",
"_.	c #F2FFEE",
":.	c #B2C7CA",
"<.	c #C0B5C5",
"[.	c #CFC5C4",
"}.	c #C5C1BE",
"|.	c #BFBDB0",
"1.	c #7FD6E9",
"2.	c #09F1F3",
"3.	c #62E8C5",
"4.	c #D3B6C8",
"5.	c #C5B8BF",
"6.	c #B3C2BD",
"7.	c #D1CBCF",
"8.	c #99A7A8",
"9.	c #424C56",
"0.	c #2E404C",
"a.	c #4F5150",
"b.	c #37343D",
"c.	c #46535C",
"d.	c #A1A6AC",
"e.	c #D1D4CD",
"f.	c #B5C2B1",
"g.	c #C0BBB7",
"h.	c #D3BFCA",
"i.	c #CBC3C0",
"j.	c #B8C2BA",
"k.	c #CDB5C2",
"l.	c #BECCCD",
"m.	c #BABDC6",
"n.	c #C2C0B4",
"o.	c #D0C5BF",
"p.	c #FFFEEE",
"q.	c #C1BCC3",
"r.	c #A4A4A6",
"s.	c #A0ABAF",
"t.	c #B0A19E",
"u.	c #B8B0A5",
"v.	c #B2A9A4",
"w.	c #8A6867",
"x.	c #928690",
"y.	c #C1B0BA",
"z.	c #AFADAE",
"A.	c #CAC6C7",
"B.	c #AE8A96",
"C.	c #365550",
"D.	c #35A086",
"E.	c #D9FFFF",
"F.	c #C2FCF0",
"G.	c #3E9082",
"H.	c #395151",
"I.	c #A39595",
"J.	c #BDBAB1",
"K.	c #C6C2BF",
"L.	c #BABFC2",
"M.	c #BBC9BA",
"N.	c #AFB0AB",
"O.	c #B69FB3",
"P.	c #9F9FAB",
"Q.	c #9FAFAC",
"R.	c #B3BDB5",
"S.	c #C8B9C0",
"T.	c #F7FFFA",
"U.	c #AEBCBC",
"V.	c #050500",
"W.	c #000017",
"X.	c #001F1C",
"Y.	c #33322D",
"Z.	c #BBD0C9",
"`.	c #716F85",
" +	c #424740",
".+	c #090100",
"++	c #625C5C",
"@+	c #5D5F5E",
"#+	c #2E3935",
"$+	c #DEDADB",
"%+	c #FFFAFE",
"&+	c #E6F5EE",
"*+	c #F7EDEE",
"=+	c #F4F2F7",
"-+	c #F5F8FF",
";+	c #DEDBE2",
">+	c #2C3530",
",+	c #4D4E49",
"'+	c #C6B7BC",
")+	c #B0CAC7",
"!+	c #DED5E8",
"~+	c #373830",
"{+	c #12000C",
"]+	c #031A12",
"^+	c #050507",
"/+	c #A09A8E",
"(+	c #C7BFCC",
"_+	c #FAFDFF",
":+	c #8B7B6C",
"<+	c #666762",
"[+	c #598892",
"}+	c #03CFC4",
"|+	c #775D60",
"1+	c #777173",
"2+	c #594747",
"3+	c #2F372C",
"4+	c #0B0203",
"5+	c #45444A",
"6+	c #4E817C",
"7+	c #689995",
"8+	c #B6A6B1",
"9+	c #967B82",
"0+	c #908D86",
"a+	c #968186",
"b+	c #86928E",
"c+	c #8B8B8B",
"d+	c #C0A6B1",
"e+	c #728D86",
"f+	c #396D60",
"g+	c #6E7679",
"h+	c #8A8F93",
"i+	c #535458",
"j+	c #6E655C",
"k+	c #755347",
"l+	c #06CFC7",
"m+	c #528189",
"n+	c #48515A",
"o+	c #7F8061",
"p+	c #FEFEFF",
"q+	c #02060F",
"r+	c #48403E",
"s+	c #004741",
"t+	c #731C3E",
"u+	c #31423C",
"v+	c #3C323A",
"w+	c #43424A",
"x+	c #3F4E47",
"y+	c #515058",
"z+	c #222035",
"A+	c #318D8A",
"B+	c #8FEEE8",
"C+	c #5C6272",
"D+	c #525156",
"E+	c #5F645E",
"F+	c #545D58",
"G+	c #476758",
"H+	c #4D4F4A",
"I+	c #75696D",
"J+	c #A8E8D8",
"K+	c #358876",
"L+	c #111C22",
"M+	c #2A2730",
"N+	c #403E4B",
"O+	c #35393A",
"P+	c #364A49",
"Q+	c #5E2B30",
"R+	c #08494D",
"S+	c #50434C",
"T+	c #010008",
"U+	c #FBFCFE",
"V+	c #F5FAFE",
"W+	c #1A0D07",
"X+	c #D4FFF3",
"Y+	c #0EF8F9",
"Z+	c #FED9D3",
"`+	c #E0EDE3",
" @	c #DCD7DE",
".@	c #D9E7E8",
"+@	c #E8E9E1",
"@@	c #DCD2D0",
"#@	c #98887B",
"$@	c #85706F",
"%@	c #F5D8DA",
"&@	c #C9AEA5",
"*@	c #8B8180",
"=@	c #65746D",
"-@	c #897388",
";@	c #7D746B",
">@	c #80827F",
",@	c #B6B0B0",
"'@	c #F0D9DF",
")@	c #856686",
"!@	c #958699",
"~@	c #D3E9DC",
"{@	c #DCE6F0",
"]@	c #EADEDE",
"^@	c #D7ECE5",
"/@	c #FAD7D5",
"(@	c #0BFAF7",
"_@	c #D3FAE7",
":@	c #190A11",
"<@	c #FFF5F9",
"[@	c #F7FBFE",
"}@	c #080806",
"|@	c #44614F",
"1@	c #036C72",
"2@	c #685954",
"3@	c #484E40",
"4@	c #5C5857",
"5@	c #4E4F54",
"6@	c #576160",
"7@	c #454C52",
"8@	c #4A5656",
"9@	c #93A5AF",
"0@	c #B6C4C4",
"a@	c #484937",
"b@	c #504647",
"c@	c #7D717F",
"d@	c #7C798A",
"e@	c #71806D",
"f@	c #48424C",
"g@	c #4C4149",
"h@	c #B0B4A5",
"i@	c #908E99",
"j@	c #514E5F",
"k@	c #4E534F",
"l@	c #4A5254",
"m@	c #5D4D58",
"n@	c #475443",
"o@	c #62514A",
"p@	c #0B6D7A",
"q@	c #4D5F53",
"r@	c #030D02",
"s@	c #FDF8FF",
"t@	c #000205",
"u@	c #000500",
"v@	c #080429",
"w@	c #0A0603",
"x@	c #060405",
"y@	c #010000",
"z@	c #05020B",
"A@	c #020C0B",
"B@	c #203A37",
"C@	c #577671",
"D@	c #80908F",
"E@	c #A4A7B0",
"F@	c #BEC0B2",
"G@	c #C9D0D6",
"H@	c #B7B9AB",
"I@	c #A7B1A8",
"J@	c #717276",
"K@	c #466A66",
"L@	c #0B3A28",
"M@	c #130A00",
"N@	c #090000",
"O@	c #000300",
"P@	c #00000B",
"Q@	c #070400",
"R@	c #010329",
"S@	c #050706",
"T@	c #F8F8F8",
"U@	c #06030A",
"V@	c #07060C",
"W@	c #12024D",
"X@	c #000A00",
"Y@	c #0B0215",
"Z@	c #060009",
"`@	c #000800",
" #	c #0D0101",
".#	c #0C0100",
"+#	c #192028",
"@#	c #929B96",
"##	c #3E3E48",
"$#	c #000610",
"%#	c #0A0F12",
"&#	c #0E0000",
"*#	c #5C495D",
"=#	c #BCB5C5",
"-#	c #80989A",
";#	c #0A202D",
">#	c #050007",
",#	c #020500",
"'#	c #000900",
")#	c #0A0410",
"!#	c #0A0313",
"~#	c #000403",
"{#	c #030042",
"]#	c #06070B",
"^#	c #F6FFFA",
"/#	c #FBFDF8",
"(#	c #090004",
"_#	c #070013",
":#	c #000055",
"<#	c #04000A",
"[#	c #04000B",
"}#	c #030B00",
"|#	c #040309",
"1#	c #1B1E25",
"2#	c #8E8DAD",
"3#	c #B1A8A9",
"4#	c #504434",
"5#	c #332966",
"6#	c #131294",
"7#	c #000D33",
"8#	c #1B1519",
"9#	c #21171F",
"0#	c #525254",
"a#	c #C1BCB6",
"b#	c #867C84",
"c#	c #140D15",
"d#	c #05040C",
"e#	c #030502",
"f#	c #080006",
"g#	c #00000F",
"h#	c #000400",
"i#	c #000957",
"j#	c #05000C",
"k#	c #0C010F",
"l#	c #F7FAF1",
"m#	c #FCFFFB",
"n#	c #0D0014",
"o#	c #0B0146",
"p#	c #040500",
"q#	c #070700",
"r#	c #030005",
"s#	c #070602",
"t#	c #000106",
"u#	c #03010E",
"v#	c #6E6D75",
"w#	c #BBB9BC",
"x#	c #443B40",
"y#	c #1E165F",
"z#	c #3041E9",
"A#	c #0D44FF",
"B#	c #0018AB",
"C#	c #090223",
"D#	c #32341C",
"E#	c #0D190D",
"F#	c #3B403C",
"G#	c #C4D0BC",
"H#	c #5D6C55",
"I#	c #000710",
"J#	c #0D0206",
"K#	c #010002",
"L#	c #020605",
"M#	c #040100",
"N#	c #00064B",
"O#	c #0D0212",
"P#	c #0D0007",
"Q#	c #FEFFFA",
"R#	c #0A0A0A",
"S#	c #02000B",
"T#	c #090246",
"U#	c #000007",
"V#	c #030200",
"W#	c #080403",
"X#	c #040300",
"Y#	c #040203",
"Z#	c #160E1B",
"`#	c #9E958E",
" $	c #D5D0B3",
".$	c #120E0B",
"+$	c #060974",
"@$	c #072DEA",
"#$	c #0B63FB",
"$$	c #0732E3",
"%$	c #140022",
"&$	c #620E1B",
"*$	c #150013",
"=$	c #0E1618",
"-$	c #E7D3DF",
";$	c #8A8D96",
">$	c #070506",
",$	c #100108",
"'$	c #000501",
")$	c #03060B",
"!$	c #040045",
"~$	c #000A04",
"{$	c #010506",
"]$	c #000709",
"^$	c #000C62",
"/$	c #000417",
"($	c #040013",
"_$	c #000504",
":$	c #111507",
"<$	c #939685",
"[$	c #D7D8D2",
"}$	c #1E2213",
"|$	c #000117",
"1$	c #000C75",
"2$	c #001C9A",
"3$	c #1A0064",
"4$	c #9F0D1A",
"5$	c #D30221",
"6$	c #53002C",
"7$	c #122021",
"8$	c #ECDFD7",
"9$	c #8B7D7A",
"0$	c #0A0F13",
"a$	c #000B00",
"b$	c #040002",
"c$	c #010010",
"d$	c #07031C",
"e$	c #00095D",
"f$	c #03030D",
"g$	c #F6FBFF",
"h$	c #080400",
"i$	c #0B0020",
"j$	c #09037F",
"k$	c #0E0206",
"l$	c #000012",
"m$	c #04040C",
"n$	c #040000",
"o$	c #02000E",
"p$	c #0E0611",
"q$	c #979195",
"r$	c #C4C6C5",
"s$	c #07080C",
"t$	c #2C242F",
"u$	c #241C27",
"v$	c #010006",
"w$	c #2C0B16",
"x$	c #B8003E",
"y$	c #E5287A",
"z$	c #572A47",
"A$	c #001512",
"B$	c #C1CAC9",
"C$	c #8B8B7F",
"D$	c #0A0B06",
"E$	c #0F0000",
"F$	c #01060C",
"G$	c #0F0004",
"H$	c #01067E",
"I$	c #00041E",
"J$	c #F4FFFB",
"K$	c #FFFCFC",
"L$	c #08002E",
"M$	c #010400",
"N$	c #000002",
"O$	c #000509",
"P$	c #040108",
"Q$	c #38383A",
"R$	c #BBCCC4",
"S$	c #78897F",
"T$	c #131313",
"U$	c #504E53",
"V$	c #182327",
"W$	c #0D010B",
"X$	c #612541",
"Y$	c #7A4A72",
"Z$	c #141220",
"`$	c #868D93",
" %	c #B7C1CA",
".%	c #2B3733",
"+%	c #0E0008",
"@%	c #060002",
"#%	c #020300",
"$%	c #060030",
"%%	c #010007",
"&%	c #070000",
"*%	c #FBF4FB",
"=%	c #000F16",
"-%	c #030162",
";%	c #100011",
">%	c #010914",
",%	c #020400",
"'%	c #060805",
")%	c #08020C",
"!%	c #4B3F4D",
"~%	c #D5CAD0",
"{%	c #918D8A",
"]%	c #030301",
"^%	c #000D06",
"/%	c #000912",
"(%	c #94908F",
"_%	c #CEC9C5",
":%	c #3E3842",
"<%	c #090003",
"[%	c #090504",
"}%	c #010B15",
"|%	c #0C0010",
"1%	c #000461",
"2%	c #020C15",
"3%	c #050505",
"4%	c #FFF4FD",
"5%	c #F3FFFF",
"6%	c #130006",
"7%	c #080300",
"8%	c #0A0702",
"9%	c #000304",
"0%	c #0F0100",
"a%	c #030106",
"b%	c #03010C",
"c%	c #080007",
"d%	c #362E2B",
"e%	c #C4C6BB",
"f%	c #9C9B99",
"g%	c #493946",
"h%	c #5E5A51",
"i%	c #3D433F",
"j%	c #A7A4AD",
"k%	c #BBB1A7",
"l%	c #313325",
"m%	c #010A0F",
"n%	c #0E0301",
"o%	c #100509",
"p%	c #000704",
"q%	c #F1FFFE",
"r%	c #FCF5FC",
"s%	c #23090A",
"t%	c #B6D0D1",
"u%	c #17F5E0",
"v%	c #DCA8B4",
"w%	c #A8BFB7",
"x%	c #BABEBF",
"y%	c #B3B8BC",
"z%	c #B8BCAB",
"A%	c #C4B9BD",
"B%	c #A9B5C3",
"C%	c #5A9897",
"D%	c #2A6A5C",
"E%	c #3B4A43",
"F%	c #A79D9C",
"G%	c #FAFCF9",
"H%	c #FFFBFE",
"I%	c #F0FBFD",
"J%	c #A491A5",
"K%	c #4F4440",
"L%	c #29684D",
"M%	c #4F948F",
"N%	c #B6C5CA",
"O%	c #BBB4BB",
"P%	c #BCB7BE",
"Q%	c #BCBDBF",
"R%	c #D5A7B1",
"S%	c #1AF1DF",
"T%	c #B4CECF",
"U%	c #230B0B",
"V%	c #F6FBFE",
"W%	c #081013",
"X%	c #060117",
"Y%	c #001209",
"Z%	c #090B1A",
"`%	c #0E0816",
" &	c #100A00",
".&	c #100B12",
"+&	c #0C0612",
"@&	c #0B060A",
"#&	c #0F0C15",
"$&	c #1D010D",
"%&	c #12070B",
"&&	c #0B0811",
"*&	c #060700",
"=&	c #050C04",
"-&	c #00030F",
";&	c #0E070E",
">&	c #170B0D",
",&	c #0D0900",
"'&	c #040B15",
")&	c #0D0C1C",
"!&	c #00140A",
"~&	c #0E021A",
"{&	c #061012",
"]&	c #FFFBFD",
"^&	c #FFFAFF",
"/&	c #F6F9F2",
"(&	c #F2FFF6",
"_&	c #FEFCFF",
":&	c #F3FEFF",
"<&	c #EFFFFE",
"[&	c #F3FFF4",
"}&	c #FFFFF5",
"|&	c #F6FFF9",
"1&	c #FEFFF7",
"2&	c #F8FFF5",
"3&	c #F6FFFC",
"4&	c #FAF7F2",
"5&	c #FFF6FD",
"6&	c #FFFBFF",
"7&	c #FFFAFB",
"8&	c #FEFBFF",
"9&	c #F7FFF9",
"0&	c #F9FBED",
"a&	c #F2FFFD",
"b&	c #FFF8F9",
"c&	c #F8FFFD",
"d&	c #FBFBF9",
"e&	c #FFFCF7",
"f&	c #FFFCF9",
"g&	c #FFF6F7",
"h&	c #FCFDF8",
"i&	c #FCFFFA",
"j&	c #F5FDFF",
"k&	c #FFF4FF",
"l&	c #F5FFFA",
"m&	c #F7FFFB",
"n&	c #FDF9F8",
"o&	c #F1FFED",
"p&	c #F9FFF8",
"    . . + @ @ @ # $ + . % . & * . + . = - - ; > , - + . ' & & ) ",
"  . . . ) ) ! ! = + = * & ~ { ~ ] ^ / - ; > > - ! ( + + # & & - ",
". . ) ) _ ! : : @ > - - ) { ~ ) ] < { - - > - ) [ @ & +   + } | ",
". ) ) _ : 1 2 3 4 , 5 4 [ ~ 6 > - 7 8 7 > - ) _ 4 - & +   9 9 0 ",
"9 a @ _ : 2 2 b c d 5 , 5 ~ { @ ) ~ ~ 7 @ , 5 , , - & + e a a 0 ",
"f a g 4 : 2 h b i j , k , { 8 { ~ { - - [ l , , 4 @ + 9 f } } 0 ",
"f } } @ ! 1 h h i , 5 - @ ] ] + ) m { > [ , _ l 4 @ a a f } } g ",
"n } } @ ! o h 3 _ 4 5 - 7 < ] ' @ ) { , , _ 5 , 4 - } a f } } g ",
"p 3 q r s 0 > t u - 3 v w 6 x y < z A B C c ! D E F G H I J C K ",
"| L M N O P Q R a S T U V W X x ] Y Z 3 d ` & J  .c ..+.@._ #.$.",
"%.V &.*.c =.' @.: : T -.;.>.L L ,.' '.).!.~.{.' ].r ^./.(.! _.' ",
"b :.<.[.}.|.1.2.3.4.5.6.7.8.9.0.a.b.c.d.e.f.g.h.i.j.k.l.m.n.o.r ",
"p.q.r.s.t.u.v.w.x.y.z.A.B.C.D.E.T F.G.H.I.J.K.L.M.N.O.P.Q.R.S.T.",
", U.V.W.X.Y.Z.`. +.+++@+#+$+%+&+*+=+-+;+>+,+'+)+!+~+{+]+^+/+(+_+",
" .:+<+[+}+|+1+2+3+4+5+6+7+8+9+0+a+b+c+d+e+f+g+h+i+j+k+l+m+n+o+, ",
"p+q+r+s+t+u+v+w+x+y+z+A+B+C+D+E+F+G+H+I+J+K+L+M+N+O+P+Q+R+S+T+U+",
"V+W+X+Y+Z+`+ @.@+@@@#@$@%@&@*@=@-@;@>@,@'@)@!@~@{@]@^@/@(@_@:@<@",
"[@}@|@1@2@3@4@5@6@7@8@9@0@a@b@c@d@e@f@g@h@i@j@k@l@m@n@o@p@q@r@s@",
"p+t@u@v@x z w@x@y@z@A@B@C@D@E@F@G@H@I@J@K@L@M@N@O@P@Q@W R@S@O@@.",
"T@U@V@W@X@Y@Z@`@ #.#z +#@#h@##$#%#&#*#=#-#;#>#,#'#)#!#~#{#z@]#^#",
"/#(#_#:#`@<#[#}#|#{ 1#2#3#4#5#6#7#8#9#0#a#b#c#d#e#f#g#h#i#j#k#l#",
"m#W n#o#p#q#r#s#t#u#v#w#x#y#z#A#B#C#D#E#F#G#H#I#J#K#L#M#N#O#P#Q#",
"j R#S#T#U#V#W#X#Y#Z#`# $.$+$@$#$$$%$&$*$=$-$;$>$h#,$'$)$!$k#~$# ",
"3 {$]$^$/$($X u@_$:$<$[$}$|$1$2$3$4$5$6$7$8$9$0$a$b$c$d$e$f$~$g$",
"* h$i$j$k$l$m$n$o$p$q$r$s$t$u$v$w$x$y$z$A$B$C$D$E$F$_#G$H$I$.#J$",
"K${ U#L$M$W n$N$O$P$Q$R$S$T$U$V$W$X$Y$Z$`$ %.%+%@%x V##%$%%%&%e ",
"*%8 =%-%`@;%W >%,%'%)%!%~%{%x ]%y@^%/%(%_%:%<%[%}%&%|%h#1%2%3%4%",
"5%~#y@6%X@7%8%9%0%a%b%c%d%e%f%g%h%i%j%k%l%m%{ n$N$0%n%'#o%x p%q%",
"r%s%t%u%v%w%x%y%z%A%B%C%D%E%F%G%H%I%J%K%L%M%N%O%P%Q%w%R%S%T%U%V%",
"' x W%X%Y%Z%`% &>$.&+&z@x@n$@&#&$&%&&&*&=&-&;&>&,&'&)&!&~&{&z ' ",
"= B ]&^&$./&a ^&(&' _&J :&' } R <&[&V }&|&@.1&2&' 3&4&5&6&* 7&# ",
"%+8&9&0&a&L b&c&, d&e&f&g&' h&i&! 9 j&, k&L l&m&} n&^&* o&p&6&4 "};
