/* XPM */
static const char * IconPoseDoubleImage_xpm[] = {
"32 32 642 2",
"  	c #FCFCFC",
". 	c #FFFFFF",
"+ 	c #FEFFFF",
"@ 	c #F7F9F8",
"# 	c #FAFCFB",
"$ 	c #FDFDFD",
"% 	c #FEFEFE",
"& 	c #FCFEFD",
"* 	c #FDFFFE",
"= 	c #FBFBFB",
"- 	c #FCFFFF",
"; 	c #F7FBFA",
"> 	c #FAFAFA",
", 	c #020202",
"' 	c #010101",
") 	c #030303",
"! 	c #F8FAF9",
"~ 	c #FBFDFC",
"{ 	c #F9FDFC",
"] 	c #F5F5F5",
"^ 	c #F8F8F8",
"/ 	c #000000",
"( 	c #FBFFFE",
"_ 	c #040404",
": 	c #000100",
"< 	c #111111",
"[ 	c #D9D9D9",
"} 	c #FAFEFD",
"| 	c #F9F9F9",
"1 	c #F8FCFB",
"2 	c #F9FBFA",
"3 	c #F4F4F4",
"4 	c #060606",
"5 	c #F7F7F7",
"6 	c #F6F6F6",
"7 	c #D6D6D6",
"8 	c #F5F7F6",
"9 	c #DADADA",
"0 	c #FBFDF0",
"a 	c #F6FEFF",
"b 	c #F7FDFD",
"c 	c #FAFDFF",
"d 	c #FFFCFA",
"e 	c #FEF9FF",
"f 	c #000500",
"g 	c #FEF8FA",
"h 	c #FBFAF6",
"i 	c #FAFBF5",
"j 	c #030000",
"k 	c #060007",
"l 	c #FFF9FD",
"m 	c #FFFCF5",
"n 	c #FFFBFC",
"o 	c #FFFFFD",
"p 	c #F3FFF9",
"q 	c #030301",
"r 	c #010002",
"s 	c #030408",
"t 	c #060004",
"u 	c #000104",
"v 	c #FDFEF6",
"w 	c #FFF7FF",
"x 	c #FFFDFF",
"y 	c #FFFCFF",
"z 	c #FFFBFF",
"A 	c #F4FBF3",
"B 	c #FFFFF4",
"C 	c #FCFAFF",
"D 	c #F5FFF7",
"E 	c #FCFFFB",
"F 	c #F5FFFE",
"G 	c #FFF7F4",
"H 	c #F7FCFF",
"I 	c #FEFEFF",
"J 	c #FDFFF7",
"K 	c #F5FFF2",
"L 	c #F3FFFB",
"M 	c #FAFFF9",
"N 	c #FBFFFC",
"O 	c #F9FEFF",
"P 	c #F7F8FC",
"Q 	c #FFFEFF",
"R 	c #F5FEF9",
"S 	c #FEFEFC",
"T 	c #F6FFFC",
"U 	c #FEFFF8",
"V 	c #FCFDFF",
"W 	c #F6FFFB",
"X 	c #FFFEFA",
"Y 	c #F6FAFD",
"Z 	c #F9FFFF",
"` 	c #F7FBFC",
" .	c #C4CBD3",
"..	c #BFB9C5",
"+.	c #C8BDBB",
"@.	c #C8C2CE",
"#.	c #BDC0B7",
"$.	c #84D0E8",
"%.	c #08FCFD",
"&.	c #5BE5CB",
"*.	c #D0B8C5",
"=.	c #C3C3BB",
"-.	c #AFC1B5",
";.	c #DAC5CA",
">.	c #A6A4A7",
",.	c #4E4655",
"'.	c #3F3D53",
").	c #505156",
"!.	c #393C45",
"~.	c #47545C",
"{.	c #A29FA6",
"].	c #CEC8C8",
"^.	c #BBBCB4",
"/.	c #C6BBB9",
"(.	c #CBC2C3",
"_.	c #CEC3C9",
":.	c #BCBBB7",
"<.	c #BFBDC0",
"[.	c #C2C6C9",
"}.	c #BDBFBC",
"|.	c #BBC7C3",
"1.	c #CCBFC8",
"2.	c #FCFEF9",
"3.	c #FAFFEE",
"4.	c #C8B2BE",
"5.	c #A9ABAA",
"6.	c #98AAAE",
"7.	c #A8A7A3",
"8.	c #B5ADAA",
"9.	c #B0ADA8",
"0.	c #7E6A5F",
"a.	c #9C858D",
"b.	c #BEAEB8",
"c.	c #AEAFB1",
"d.	c #BEC4C0",
"e.	c #A38E95",
"f.	c #345051",
"g.	c #3CA68F",
"h.	c #C5FFF3",
"i.	c #FBFFFF",
"j.	c #C2FEF2",
"k.	c #369482",
"l.	c #365955",
"m.	c #AF9CA0",
"n.	c #C4BDB7",
"o.	c #BFC0BA",
"p.	c #BEC0BF",
"q.	c #BAC5C1",
"r.	c #B8B0AE",
"s.	c #ADA7A9",
"t.	c #9EA7A4",
"u.	c #A3AAB2",
"v.	c #BEB8BA",
"w.	c #C5BFBF",
"x.	c #F9FEF8",
"y.	c #BAB3BB",
"z.	c #080405",
"A.	c #000209",
"B.	c #01211E",
"C.	c #323321",
"D.	c #C2D1CC",
"E.	c #6A7183",
"F.	c #444533",
"G.	c #070400",
"H.	c #5A5E5D",
"I.	c #616360",
"J.	c #313534",
"K.	c #E3DEE2",
"L.	c #FFF3F5",
"M.	c #F0FEEF",
"N.	c #FBE9E9",
"O.	c #F9F4F8",
"P.	c #F5F5FD",
"Q.	c #E0D6E1",
"R.	c #292D2E",
"S.	c #474C48",
"T.	c #C6B7BE",
"U.	c #BCC7C9",
"V.	c #D4DAE8",
"W.	c #35362E",
"X.	c #09070A",
"Y.	c #00220A",
"Z.	c #040008",
"`.	c #A89D9B",
" +	c #BDBDC9",
".+	c #FCFBF7",
"++	c #8D807A",
"@+	c #666467",
"#+	c #5C8382",
"$+	c #00D0C7",
"%+	c #805D63",
"&+	c #7F6C6E",
"*+	c #58494C",
"=+	c #353638",
"-+	c #434047",
";+	c #528781",
">+	c #689B94",
",+	c #B6A9B0",
"'+	c #8F7E86",
")+	c #838A90",
"!+	c #8D8A85",
"~+	c #90928D",
"{+	c #858786",
"]+	c #AFADB2",
"^+	c #6C938E",
"/+	c #347265",
"(+	c #707E7F",
"_+	c #92858F",
":+	c #4F585F",
"<+	c #746256",
"[+	c #795650",
"}+	c #09CFC2",
"|+	c #5A8083",
"1+	c #4A4957",
"2+	c #7A8171",
"3+	c #FFFBFB",
"4+	c #FBFFFA",
"5+	c #030512",
"6+	c #443F46",
"7+	c #004A47",
"8+	c #67283B",
"9+	c #353B3B",
"0+	c #473040",
"a+	c #3A4149",
"b+	c #444D4C",
"c+	c #4E5659",
"d+	c #202835",
"e+	c #2C8D84",
"f+	c #8BEDE0",
"g+	c #625F66",
"h+	c #5A4F55",
"i+	c #5C6467",
"j+	c #595B5A",
"k+	c #456556",
"l+	c #56514E",
"m+	c #716269",
"n+	c #A5F1E4",
"o+	c #328073",
"p+	c #14111A",
"q+	c #28312C",
"r+	c #323F45",
"s+	c #413B3D",
"t+	c #3E4152",
"u+	c #60292E",
"v+	c #0A464E",
"w+	c #42474B",
"x+	c #000313",
"y+	c #F6FFF7",
"z+	c #FAFEFF",
"A+	c #110A00",
"B+	c #DFFDF1",
"C+	c #05FFFC",
"D+	c #FCD7DF",
"E+	c #E9E4E1",
"F+	c #DBE0DC",
"G+	c #D5E9E0",
"H+	c #E4E6E1",
"I+	c #DFD8DF",
"J+	c #8C8388",
"K+	c #8C6E6E",
"L+	c #FFDBD9",
"M+	c #C1B0A9",
"N+	c #87827F",
"O+	c #71726D",
"P+	c #7B7C81",
"Q+	c #7F6F72",
"R+	c #88857E",
"S+	c #BDB1B5",
"T+	c #F3D3EB",
"U+	c #816983",
"V+	c #998D97",
"W+	c #DAE2D7",
"X+	c #E5E3E8",
"Y+	c #E6E5E0",
"Z+	c #DFDFE9",
"`+	c #FFD9E3",
" @	c #00FFFC",
".@	c #DCF8EA",
"+@	c #100D00",
"@@	c #FFF6FC",
"#@	c #030A10",
"$@	c #405F57",
"%@	c #0A6E66",
"&@	c #635645",
"*@	c #495645",
"=@	c #575058",
"-@	c #54515C",
";@	c #5B5B5B",
">@	c #494B4A",
",@	c #4F5A54",
"'@	c #93A2A5",
")@	c #B8C4BA",
"!@	c #4E4C3F",
"~@	c #4A434B",
"{@	c #757678",
"]@	c #76828E",
"^@	c #737B6C",
"/@	c #4C424D",
"(@	c #403F45",
"_@	c #ACB7A6",
":@	c #8D8E92",
"<@	c #4D545E",
"[@	c #445751",
"}@	c #4C5059",
"|@	c #574B55",
"1@	c #455A47",
"2@	c #5E5140",
"3@	c #0B6F67",
"4@	c #455C56",
"5@	c #020D11",
"6@	c #000005",
"7@	c #070206",
"8@	c #000323",
"9@	c #070000",
"0@	c #020003",
"a@	c #0A030B",
"b@	c #000400",
"c@	c #040005",
"d@	c #000B00",
"e@	c #20403F",
"f@	c #567377",
"g@	c #818D8B",
"h@	c #A8A7AC",
"i@	c #BCBEB1",
"j@	c #CAD2C5",
"k@	c #BBBAA8",
"l@	c #AFAEAA",
"m@	c #7E6F72",
"n@	c #4B6961",
"o@	c #083F2C",
"p@	c #0D0500",
"q@	c #100000",
"r@	c #010300",
"s@	c #020107",
"t@	c #080002",
"u@	c #010020",
"v@	c #050B0B",
"w@	c #030005",
"x@	c #F7FFFF",
"y@	c #F8FAF7",
"z@	c #030305",
"A@	c #040007",
"B@	c #19024A",
"C@	c #000406",
"D@	c #04000E",
"E@	c #050209",
"F@	c #000900",
"G@	c #090200",
"H@	c #0B0300",
"I@	c #191F2D",
"J@	c #8F969C",
"K@	c #B3B3A7",
"L@	c #414046",
"M@	c #00050F",
"N@	c #130912",
"O@	c #0B0003",
"P@	c #4D4A5B",
"Q@	c #BEB7C7",
"R@	c #819393",
"S@	c #072122",
"T@	c #090000",
"U@	c #040000",
"V@	c #000800",
"W@	c #070209",
"X@	c #04020F",
"Y@	c #090042",
"Z@	c #040507",
"`@	c #F5FFFA",
" #	c #FFFDF6",
".#	c #050110",
"+#	c #000059",
"@#	c #000600",
"##	c #000206",
"$#	c #010006",
"%#	c #040601",
"&#	c #040205",
"*#	c #010000",
"=#	c #1B1A22",
"-#	c #908CA7",
";#	c #B3ABA0",
">#	c #524630",
",#	c #322368",
"'#	c #160F9B",
")#	c #010938",
"!#	c #1F151D",
"~#	c #231921",
"{#	c #4E5251",
"]#	c #C3BCB2",
"^#	c #897C86",
"/#	c #130F1D",
"(#	c #060501",
"_#	c #020006",
":#	c #000408",
"<#	c #00045C",
"[#	c #04000F",
"}#	c #050001",
"|#	c #FCFDF5",
"1#	c #080000",
"2#	c #110013",
"3#	c #00004F",
"4#	c #080300",
"5#	c #000501",
"6#	c #00000A",
"7#	c #020308",
"8#	c #6F6F77",
"9#	c #BCB9C2",
"0#	c #403A3C",
"a#	c #1D175D",
"b#	c #3046F1",
"c#	c #0A47FF",
"d#	c #001AAA",
"e#	c #02071D",
"f#	c #30341B",
"g#	c #0C1912",
"h#	c #3E3F41",
"i#	c #C4CFC1",
"j#	c #566F5A",
"k#	c #00070C",
"l#	c #080003",
"m#	c #020001",
"n#	c #050503",
"o#	c #000300",
"p#	c #090053",
"q#	c #0E0113",
"r#	c #0B0001",
"s#	c #FBFFF9",
"t#	c #F7FFFD",
"u#	c #050507",
"v#	c #000410",
"w#	c #000644",
"x#	c #00000F",
"y#	c #060201",
"z#	c #100E13",
"A#	c #9D9895",
"B#	c #D4CDBB",
"C#	c #18100E",
"D#	c #02056E",
"E#	c #032FF0",
"F#	c #0064FF",
"G#	c #0331DC",
"H#	c #140021",
"I#	c #5B1014",
"J#	c #15010A",
"K#	c #0F1719",
"L#	c #E1D4DE",
"M#	c #8B8C90",
"N#	c #0C0703",
"O#	c #000505",
"P#	c #0A0102",
"Q#	c #000200",
"R#	c #040313",
"S#	c #00003E",
"T#	c #040809",
"U#	c #00040E",
"V#	c #000A5D",
"W#	c #000411",
"X#	c #050006",
"Y#	c #010302",
"Z#	c #939387",
"`#	c #D7DBCA",
" $	c #1D220E",
".$	c #000316",
"+$	c #03086C",
"@$	c #04189F",
"#$	c #180267",
"$$	c #A10918",
"%$	c #D70127",
"&$	c #510134",
"*$	c #161B21",
"=$	c #EEDFDA",
"-$	c #828282",
";$	c #100815",
">$	c #000301",
",$	c #000201",
"'$	c #030004",
")$	c #000815",
"!$	c #00085C",
"~$	c #000711",
"{$	c #F9FAFC",
"]$	c #0E021A",
"^$	c #090188",
"/$	c #0C0500",
"($	c #000009",
"_$	c #080004",
":$	c #00020B",
"<$	c #100718",
"[$	c #9A918A",
"}$	c #C5C5C5",
"|$	c #030617",
"1$	c #272731",
"2$	c #221F28",
"3$	c #010005",
"4$	c #2D0915",
"5$	c #C10036",
"6$	c #E32881",
"7$	c #542B57",
"8$	c #00100F",
"9$	c #C5CAC6",
"0$	c #8B8C84",
"a$	c #090B06",
"b$	c #0D0004",
"c$	c #000207",
"d$	c #05000B",
"e$	c #0A0000",
"f$	c #070489",
"g$	c #060015",
"h$	c #0B0000",
"i$	c #F2FFFD",
"j$	c #FDFAFF",
"k$	c #020200",
"l$	c #000004",
"m$	c #070127",
"n$	c #010204",
"o$	c #030104",
"p$	c #000302",
"q$	c #000602",
"r$	c #010207",
"s$	c #393840",
"t$	c #BFC8C7",
"u$	c #7F877C",
"v$	c #13150A",
"w$	c #4F4F4D",
"x$	c #1B2228",
"y$	c #08000D",
"z$	c #5D264D",
"A$	c #744B75",
"B$	c #0D1311",
"C$	c #8A948C",
"D$	c #B7BAC9",
"E$	c #303538",
"F$	c #0C0000",
"G$	c #FFF9FF",
"H$	c #000C12",
"I$	c #04005E",
"J$	c #000305",
"K$	c #080108",
"L$	c #050213",
"M$	c #06050A",
"N$	c #06030E",
"O$	c #4C404C",
"P$	c #D3C8CC",
"Q$	c #8F8E89",
"R$	c #020100",
"S$	c #000407",
"T$	c #040613",
"U$	c #919189",
"V$	c #CDC9C0",
"W$	c #46394A",
"X$	c #F3FCFB",
"Y$	c #000403",
"Z$	c #0E0000",
"`$	c #000B04",
" %	c #100005",
".%	c #0D0000",
"+%	c #0E0307",
"@%	c #010109",
"#%	c #32342F",
"$%	c #C5C6C0",
"%%	c #9F999B",
"&%	c #473A44",
"*%	c #605951",
"=%	c #394039",
"-%	c #A6A6AE",
";%	c #BDB6AE",
">%	c #2C3228",
",%	c #00060E",
"'%	c #000205",
")%	c #FBFCFF",
"!%	c #1D0709",
"~%	c #B4D2D4",
"{%	c #19F1EE",
"]%	c #D5A6B8",
"^%	c #B0BEBE",
"/%	c #BABABA",
"(%	c #B2BBC4",
"_%	c #B0BBAD",
":%	c #C9BDC1",
"<%	c #ABB5BE",
"[%	c #589993",
"}%	c #27695D",
"|%	c #3D4947",
"1%	c #A49898",
"2%	c #FFFBFA",
"3%	c #A28D9E",
"4%	c #534747",
"5%	c #2B6650",
"6%	c #51998E",
"7%	c #B2C2C2",
"8%	c #C2B0BC",
"9%	c #080D09",
"0%	c #090506",
"a%	c #030E0A",
"b%	c #0B0B0D",
"c%	c #0D0B0C",
"d%	c #090A05",
"e%	c #08090B",
"f%	c #0E090F",
"g%	c #0A050B",
"h%	c #05060A",
"i%	c #040605",
"j%	c #070304",
"k%	c #0D070B",
"l%	c #0E0C11",
"m%	c #130911",
"n%	c #10070A",
"o%	c #080812",
"p%	c #0A0A08",
"q%	c #02050E",
"r%	c #050908",
"s%	c #140B10",
"t%	c #FFFCFE",
"u%	c #FFFCFD",
"v%	c #FFFAFD",
"w%	c #F9F9FB",
"x%	c #F7FFF7",
"y%	c #FDFDFB",
"z%	c #F8FDFF",
"A%	c #F9FFFA",
"B%	c #F1FFFF",
"C%	c #F9FFFB",
"D%	c #FCFBFF",
"E%	c #FCFFFA",
"F%	c #FEFEF2",
"G%	c #FDFFF9",
"H%	c #FDFFFC",
"I%	c #FEFFFD",
"J%	c #F9FFFD",
"K%	c #F9FDFE",
"L%	c #FFFBF8",
"M%	c #FFFEFB",
"N%	c #FFFDFE",
"O%	c #FDFEFF",
"P%	c #FEFAF7",
"Q%	c #FEFFF6",
"R%	c #FFFCFB",
"S%	c #F8FFF4",
"T%	c #FCFCFA",
"U%	c #FFFAFF",
"V%	c #FFFFFB",
"W%	c #FFFEFC",
"X%	c #FDFCF8",
"Y%	c #F9F9F7",
"  . + @ + # $ $ % % % $ % & * & $ = . % .   . $ . % % % % . % % ",
".   # - ; & % . . . = > = + & & . . $ = , ' )   % % % % % % % % ",
"  ! ~ - { + & = % ] . . $ & ~ + ^ $ % / ' = / / . . . . . . . . ",
"= + + ( { * ~ _ / .   ^ / : + & . . $ < [ .   ' % % % % % $ % % ",
"% @ } ( - } ! $ / ' = ) / + + ! | > | ^ . > ' , > = = = > > = = ",
"! ! - 1 - 1 + @ > / / / . ! 2 ~ = = | % 3 4 '   2 2 2 2 2 2 2 2 ",
"! * ; - - ; # 2 $ / ' , 5 & ~ # | $ 6 $ ) / 7 = # # # # # # # # ",
"2 ! - 1 ( ( ! # / , | ' / # 8 ~ | ^ . / / 9 = | # 2 2 2 # # 2 2 ",
"0 a - b c d e f / g h i j k l m n o p q r s t u v - w % x y z A ",
"B C D E F G & H I J K = - L M N O z P x Q R S T C U V Q W X Y Z ",
"`  ...+.@.#.$.%.&.*.=.-.;.>.,.'.).!.~.{.].^./.(._.:.<.[.}.|.1.2.",
"3.4.5.6.7.8.9.0.a.b.c.d.e.f.g.h.i.j.k.l.m.n.o.p.q.r.s.t.u.v.w.x.",
"+ y.z.A.B.C.D.E.F.G.H.I.J.K.L.M.N.O.P.Q.R.S.T.U.V.W.X.Y.Z.`. +Q ",
".+++@+#+$+%+&+*+=+j -+;+>+,+'+)+!+~+{+]+^+/+(+_+:+<+[+}+|+1+2+3+",
"4+5+6+7+8+9+0+a+b+c+d+e+f+g+h+i+j+k+l+m+n+o+p+q+r+s+t+u+v+w+x+y+",
"z+A+B+C+D+E+F+G+H+I+J+K+L+M+N+O+P+Q+R+S+T+U+V+W+X+Y+Z+`+ @.@+@z ",
"@@#@$@%@&@*@=@-@;@>@,@'@)@!@~@{@]@^@/@(@_@:@<@[@}@|@1@2@3@4@5@w ",
"- 6@7@8@9@0@a@b@c@) d@e@f@g@h@i@j@k@l@m@n@o@p@q@r@s@t@' u@v@w@x@",
"y@z@A@B@C@D@E@F@G@H@/ I@J@K@L@M@N@O@P@Q@R@S@T@U@V@W@X@E@Y@k Z@`@",
" #U@.#+#@###$#%#&#*#=#-#;#>#,#'#)#!#~#{#]#^#/#7@(#_#:#b@<#[#}#|#",
"4+1#2#3#4#5#j O@6#7#8#9#0#a#b#c#d#e#f#g#h#i#j#k#l#m#n#o#p#q#r#s#",
"t#u#v#w#x#U@y#7@@#z#A#B#C#D#E#F#G#H#I#J#K#L#M#N#O#P#Q#R#S#[#T#. ",
"- Z@U#V#W#X#Y#Q#b@< Z#`# $.$+$@$#$$$%$&$*$=$-$;$>$,$'$)$!$~$T#{$",
"T 1#]$^$/$($6@_$:$<$[$}$|$1$2$3$4$5$6$7$8$9$0$a$b$c$d$e$f$g$h$i$",
"j$k$l$m$n$o$Q#p$q$r$s$t$u$v$w$x$y$z$A$B$C$D$E$F$p$Q#o$n$m$l$k$j$",
"G$b@H$I$J$K$j L$j M$N$O$P$Q$R$t o#S$T$U$V$W$j F@L$j K$J$I$H$b@G$",
"X$Y$f Z$`$ %.%G.+%w@@%u #%$%%%&%*%=%-%;%>%,%'%9@G..% %`$Z$f Y$X$",
")%!%~%{%]%^%/%(%_%:%<%[%}%|%1%4+2%t#3%4%5%6%7%8%(%/%^%]%{%~%!%)%",
"- : 9%0%a%b%c%d%e%f%g%h%i%j%k%l%m%n%o%5#p%q%r%s%d%c%b%a%0%9%: - ",
"t%u%v%+ x w%% o x%y%Q z%- z o A%B%C%D%E%A%( F%G%o % w%x + v%u%t%",
"H%I%~ C J%- K%; i.. L%L%M%N%. O%- L%y E P%Q Q%u%; K%- J%C ~ I%H%",
"I%t%R%S%T%z U%V%. W%X%V%Y%Q Q o x M H + y G$+ x@V%U%z T%S%R%t%I%"};
