/* XPM */
static const char * IconFanModeHigh_xpm[] = {
"32 32 139 2",
"  	c #FFFFFF",
". 	c #FDFDFD",
"+ 	c #FEFEFE",
"@ 	c #FBFBFB",
"# 	c #DFDFDF",
"$ 	c #8B8B8B",
"% 	c #282828",
"& 	c #171717",
"* 	c #787878",
"= 	c #D2D2D2",
"- 	c #FCFCFC",
"; 	c #F6F6F6",
"> 	c #B0B0B0",
", 	c #626262",
"' 	c #131313",
") 	c #101010",
"! 	c #616161",
"~ 	c #C0C0C0",
"{ 	c #FAFAFA",
"] 	c #121212",
"^ 	c #000000",
"/ 	c #010101",
"( 	c #868686",
"_ 	c #919191",
": 	c #262626",
"< 	c #030303",
"[ 	c #020202",
"} 	c #040404",
"| 	c #636363",
"1 	c #F2F2F2",
"2 	c #F3F3F3",
"3 	c #595959",
"4 	c #050505",
"5 	c #858585",
"6 	c #5B5B5B",
"7 	c #515151",
"8 	c #F8F8F8",
"9 	c #565656",
"0 	c #060606",
"a 	c #7E7E7E",
"b 	c #A9A9A9",
"c 	c #878787",
"d 	c #A7A7A7",
"e 	c #0E0E0E",
"f 	c #DBDBDB",
"g 	c #424242",
"h 	c #6B6B6B",
"i 	c #333333",
"j 	c #111111",
"k 	c #767676",
"l 	c #B5B5B5",
"m 	c #505050",
"n 	c #0D0D0D",
"o 	c #989898",
"p 	c #6C6C6C",
"q 	c #494949",
"r 	c #343434",
"s 	c #979797",
"t 	c #323232",
"u 	c #7A7A7A",
"v 	c #4D4D4D",
"w 	c #F5F5F5",
"x 	c #0C0C0C",
"y 	c #828282",
"z 	c #313131",
"A 	c #545454",
"B 	c #070707",
"C 	c #414141",
"D 	c #E8E8E8",
"E 	c #E6E6E6",
"F 	c #2F2F2F",
"G 	c #181818",
"H 	c #5A5A5A",
"I 	c #4F4F4F",
"J 	c #929292",
"K 	c #DDDDDD",
"L 	c #3F3F3F",
"M 	c #252525",
"N 	c #A2A2A2",
"O 	c #999999",
"P 	c #DCDCDC",
"Q 	c #F4F4F4",
"R 	c #1F1F1F",
"S 	c #C6C6C6",
"T 	c #A3A3A3",
"U 	c #5C5C5C",
"V 	c #6D6D6D",
"W 	c #A6A6A6",
"X 	c #E3E3E3",
"Y 	c #1C1C1C",
"Z 	c #191919",
"` 	c #0B0B0B",
" .	c #BDBDBD",
"..	c #D9D9D9",
"+.	c #ECECEC",
"@.	c #3C3C3C",
"#.	c #141414",
"$.	c #9B9B9B",
"%.	c #CACACA",
"&.	c #8F8F8F",
"*.	c #7D7D7D",
"=.	c #A1A1A1",
"-.	c #474747",
";.	c #151515",
">.	c #838383",
",.	c #6A6A6A",
"'.	c #B4B4B4",
").	c #393939",
"!.	c #AEAEAE",
"~.	c #CDCDCD",
"{.	c #BEBEBE",
"].	c #585858",
"^.	c #7F7F7F",
"/.	c #898989",
"(.	c #6F6F6F",
"_.	c #5E5E5E",
":.	c #606060",
"<.	c #363636",
"[.	c #3E3E3E",
"}.	c #434343",
"|.	c #939393",
"1.	c #909090",
"2.	c #161616",
"3.	c #E0E0E0",
"4.	c #EDEDED",
"5.	c #3A3A3A",
"6.	c #EBEBEB",
"7.	c #222222",
"8.	c #C1C1C1",
"9.	c #2C2C2C",
"0.	c #646464",
"a.	c #CCCCCC",
"b.	c #F1F1F1",
"c.	c #353535",
"d.	c #2B2B2B",
"e.	c #C9C9C9",
"f.	c #717171",
"g.	c #242424",
"h.	c #757575",
"    .   +         .         @       +   @   +   +   .       .   ",
". +   +   # $ % & * = +   +   - .   @   ; > , ' ) ! ~ . -       ",
"    - { $ ] ^ / ^ ^ ' ( . +         . _ : < ^ ^ [ ^ } | 1     + ",
"+   2 3 ^ 4 ^ < [ / ^ ^ 5 .   . . 1 6 ^ } ^ / [ ^ [ [ ^ 7 8   + ",
"+ - 9 ^ < / ^ ^ ^ ^ / < 0 =       , / ^ ^ ^ [ ^ / ^ ^ [ ^ a     ",
"  b / / ^ [ / [ / } ^ ^ ^ c - + d 0 ^ [ ^ 0 ^ ^ / ^ ^ ^ < e f   ",
"+ g [ / ^ ^ ^ ^ ^ ^ < ^ [ h   8 i ^ / ^ [ ^ ^ [ ^ / / [ ^ 0 (   ",
"  j ^ ^ < ^ / ^ ^ [ ^ < ^ k   l / / ^ ^ ^ ^ [ ^ / ^ [ ^ ^ / m   ",
"  n ^ ^ ^ ^ / ^ ^ / ^ ^ / o   p ^ < ^ / ^ / ^ / ^ / ^ < ^ ^ q . ",
"+ r ^ / [ / / ^ ^ ^ / / ^ s   t ^ ^ ^ / [ } ^ ^ ^ < [ ^ [ ^ ,   ",
"  u ^ / ^ ^ ^ ^ / ^ ^ / ^ v w : ^ ^ [ / / ^ ^ < / ^ ^ [ ^ } l   ",
"  = x ^ < / ^ ^ ^ < ^ } ^ ^ y z [ ^ < ^ / < [ ^ ^ ^ ^ ^ < A {   ",
".   , [ ^ ^ < ^ / ^ [ ^ B ^ / < / ^ ^ ^ } ^ ^ / ^ < [ [ C D     ",
"    E F ^ } ^ ^ ^ [ < ^ ^ 4 ^ / ^ [ / B ^ G 3 H C i I J 8   + . ",
"    { K L ^ ^ < } ^ ^ [ [ ^ M N O M / ^ v P   +   + +     @     ",
"+     . Q y R ^ ^ < ^ ^ ^ < S     T < [ 7 U V W D   .   @   .   ",
"    -   .   X o I Y ] Z [ ` E      .^ / ^ / ^ / Z h ..  +       ",
"          {     +   +.! ^ / h D K @.< ^ / ^ ^ ^ ^ / #.$.    + + ",
"    + + %.&.*.( =.s -.} ^ 4 ^ ;.e } ^ ^ < ^ < ^ ^ / ^ ^ >.  .   ",
"@   w ,.0 / ^ < ^ } ^ ^ < / ^ < ^ ^ < ^ ^ / ^ [ ^ ^ B ^ 4 '.    ",
"  + ! [ ^ / ^ ^ ^ ^ / / ^ ^ ^ / r z ^ } ^ < / ^ ^ ^ ^ [ ^ ).8   ",
"+ !.^ ^ / / ^ [ < ^ / ^ ^ 0 ^ [ H ~.j ^ [ ^ / [ ^ ^ ^ [ / ^ {.  ",
". v ^ ^ / ^ [ ^ ^ / ^ } ^ ^ ^ ^ 3   ].^ ^ ^ < ^ ^ < [ ^ ^ ^ ^.+ ",
"  B [ ^ ^ ^ ^ / ^ / [ ^ [ ^ [ ^ /.+ (.^ [ ^ ^ ^ ^ ^ ^ ^ < ^ _.  ",
"  } / ^ ^ [ ^ ^ ^ ^ / ^ [ ^ ^ } ~.. ].^ / / ^ [ ^ ^ ^ / ^ ^ :.+ ",
"  <.^ / ^ ^ } ^ ^ ^ / ^ ^ ^ / [..   }.[ ^ ^ 4 ^ [ ^ ^ [ < ^ |.  ",
"+ 1.^ ^ / < / ^ ^ < ^ ^ / [ / b     7 ^ ^ ^ ^ < ^ / ^ ^ ^ 2.3.  ",
"  4.t ^ [ / ^ < ^ ^ } ^ ^ < A   .   5 / ^ < ^ ^ ^ [ ^ } ^ &.    ",
"  . S G ^ ^ < ^ / ^ ^ B ^ 5.E   +   6.7.^ [ ^ [ < ^ ^ [ k + .   ",
"+     8.9.[ ^ / ^ [ [ [ 0.4.      - - a.M [ ^ ^ ^ ^ G |.      + ",
"    . . b.y c.x x d.(.e.  .   . -     . E f.g.0 g.h...  +   .   ",
"+   +   -     + .   + +     .       .     +           .   .     "};
