/* XPM */
static const char * IconFanModeMedium_xpm[] = {
"32 32 181 2",
"  	c #FDFDFD",
". 	c #FFFFFF",
"+ 	c #FEFEFE",
"@ 	c #FBFBFB",
"# 	c #FCFCFC",
"$ 	c #FAFAFA",
"% 	c #E2E2E2",
"& 	c #7D7D7D",
"* 	c #444444",
"= 	c #1E1E1E",
"- 	c #CACACA",
"; 	c #F8F8F8",
"> 	c #BCBCBC",
", 	c #010101",
"' 	c #030303",
") 	c #000000",
"! 	c #828282",
"~ 	c #D0D0D0",
"{ 	c #5F5F5F",
"] 	c #CBCBCB",
"^ 	c #C2C2C2",
"/ 	c #040404",
"( 	c #333333",
"_ 	c #F9F9F9",
": 	c #F1F1F1",
"< 	c #414141",
"[ 	c #0B0B0B",
"} 	c #767676",
"| 	c #C8C8C8",
"1 	c #080808",
"2 	c #9E9E9E",
"3 	c #646464",
"4 	c #353535",
"5 	c #949494",
"6 	c #B2B2B2",
"7 	c #D8D8D8",
"8 	c #090909",
"9 	c #050505",
"0 	c #020202",
"a 	c #3A3A3A",
"b 	c #A5A5A5",
"c 	c #909090",
"d 	c #A3A3A3",
"e 	c #060606",
"f 	c #616161",
"g 	c #E5E5E5",
"h 	c #EBEBEB",
"i 	c #131313",
"j 	c #171717",
"k 	c #F3F3F3",
"l 	c #E8E8E8",
"m 	c #151515",
"n 	c #DFDFDF",
"o 	c #111111",
"p 	c #979797",
"q 	c #303030",
"r 	c #777777",
"s 	c #6E6E6E",
"t 	c #555555",
"u 	c #ECECEC",
"v 	c #3E3E3E",
"w 	c #737373",
"x 	c #585858",
"y 	c #1C1C1C",
"z 	c #EFEFEF",
"A 	c #DBDBDB",
"B 	c #101010",
"C 	c #AFAFAF",
"D 	c #E0E0E0",
"E 	c #2B2B2B",
"F 	c #959595",
"G 	c #595959",
"H 	c #848484",
"I 	c #383838",
"J 	c #A8A8A8",
"K 	c #F7F7F7",
"L 	c #CDCDCD",
"M 	c #999999",
"N 	c #636363",
"O 	c #D5D5D5",
"P 	c #232323",
"Q 	c #BABABA",
"R 	c #121212",
"S 	c #868686",
"T 	c #424242",
"U 	c #858585",
"V 	c #BBBBBB",
"W 	c #6B6B6B",
"X 	c #B5B5B5",
"Y 	c #D4D4D4",
"Z 	c #292929",
"` 	c #070707",
" .	c #505050",
"..	c #818181",
"+.	c #606060",
"@.	c #D7D7D7",
"#.	c #A4A4A4",
"$.	c #ABABAB",
"%.	c #AEAEAE",
"&.	c #323232",
"*.	c #5C5C5C",
"=.	c #E3E3E3",
"-.	c #B0B0B0",
";.	c #6C6C6C",
">.	c #141414",
",.	c #929292",
"'.	c #F4F4F4",
").	c #CFCFCF",
"!.	c #ADADAD",
"~.	c #BEBEBE",
"{.	c #0E0E0E",
"].	c #E1E1E1",
"^.	c #8A8A8A",
"/.	c #3F3F3F",
"(.	c #191919",
"_.	c #2D2D2D",
":.	c #E9E9E9",
"<.	c #B4B4B4",
"[.	c #DDDDDD",
"}.	c #8E8E8E",
"|.	c #676767",
"1.	c #252525",
"2.	c #CECECE",
"3.	c #474747",
"4.	c #A9A9A9",
"5.	c #F5F5F5",
"6.	c #E6E6E6",
"7.	c #808080",
"8.	c #212121",
"9.	c #575757",
"0.	c #343434",
"a.	c #0F0F0F",
"b.	c #747474",
"c.	c #E7E7E7",
"d.	c #C3C3C3",
"e.	c #8D8D8D",
"f.	c #A0A0A0",
"g.	c #C4C4C4",
"h.	c #161616",
"i.	c #8B8B8B",
"j.	c #BFBFBF",
"k.	c #3D3D3D",
"l.	c #C0C0C0",
"m.	c #545454",
"n.	c #D2D2D2",
"o.	c #1B1B1B",
"p.	c #BDBDBD",
"q.	c #E4E4E4",
"r.	c #D1D1D1",
"s.	c #707070",
"t.	c #B7B7B7",
"u.	c #454545",
"v.	c #2F2F2F",
"w.	c #1F1F1F",
"x.	c #C9C9C9",
"y.	c #A1A1A1",
"z.	c #F2F2F2",
"A.	c #222222",
"B.	c #7F7F7F",
"C.	c #757575",
"D.	c #363636",
"E.	c #787878",
"F.	c #EEEEEE",
"G.	c #272727",
"H.	c #4B4B4B",
"I.	c #8C8C8C",
"J.	c #1A1A1A",
"K.	c #9A9A9A",
"L.	c #404040",
"M.	c #B6B6B6",
"N.	c #464646",
"O.	c #838383",
"P.	c #565656",
"Q.	c #0D0D0D",
"R.	c #282828",
"S.	c #313131",
"T.	c #C7C7C7",
"U.	c #373737",
"V.	c #9F9F9F",
"W.	c #F0F0F0",
"X.	c #C5C5C5",
"  . . . . +   . . .   . . + . . . .   . . . + .   .   . . @ . . ",
". . # . + . . @ $ . . % & * = - . . . . @ . + + . ; . . # . .   ",
"+ . .   . $ . . . . . > , ' ) ! . . # . . ~ { ] # . . . + . # . ",
"+   . . . .   . +   + ^ / ) / ( @ _ . # : < ) [ } _ .   . . . . ",
". . . .   $ . + .   . | 1 ) ) ) 2 . . . 3 ) ' ) 4 ; . . # . .   ",
". + + . # 5 6 .   . + 7 8 9 ) 0 a $ + b / , 0 ) c . $ . + . + . ",
".   . # d , e f g # . h i , ) ) j k l = ) , ) m n . + . + . +   ",
". .   ~ o ) , ) j p @ # q ) ' ) r   s , 0 , , t +   . # . . . + ",
". .   u v ) , ) , ) w . x ' ) y z A B ) , ) ) C .   . + . . @ . ",
"  . . + D E ) ) 0 , E . F ) , G . H ' ) ) I J $   K L M N { _   ",
".   . + . O P , ) / ' Q l R ) S . T ) 9 U _ . V W P ' ) , 0 X . ",
"+ # . . +   Y Z , ) `  .. ..+.@.@ #.T $.+ %.&.0 ) ) ) ) ) ) *.. ",
". . # . @ . + =.* 0 ) ) -.+ .   . . $ . ;.) 0 ) , ) , ) e >.,.  ",
". . . + '.).!.h # U o 9 ~.. @ . #   . # +.) ) ) ) , ) {.;.].. . ",
"  ^.f /.(.` ' _.~.  :.<.@ . . . . @ # . [.2 #.}.|.1. .2..   + . ",
". ) ' ) , ) ) ) ' 3.4.5.. . + .   . . + . :.6.# . #   . # . +   ",
". ` ) ) ) ' ) ' , , , 7.. + + . . . + . : 8./ = 9.4.k   . + . . ",
". 0.a.9 0 ) 0 ) , ) ) b.  . .   + + . + =.j ) , 0 0 y U :.. . $ ",
". ; c.d.J p H H e.f.7 $ @   . . . _ . # . g.= ) ) ) ) ' h.i.z . ",
"# . @ . # . . . # @ j.;.k.l..   + . ; ..m._ n.o.) 0 0 ) ) ) a . ",
". # . . . + _ 3 Z R 0 , , 3 # p.b q.r.` , 9.. X / ) 0 ) ` ) *.. ",
". .   # . + s.) ) ) ) ) >.[.n.1 ) S # R ) , F   d 3 a j ) ' t.+ ",
". + + . . ^.) , / ) , R p.. u.) 0 ;.. v.) ) w.].# . $ h x.y.z.. ",
". . . + #.1 ) ) ) 0 A.l.. B., ) ) C.. D.0 ) ) E.. . . . # .   . ",
"+ . @ F.G., ) ) ) H.[.. I.' ) ' ) 5 # P ) , ) J.=.. + + . . . . ",
". $ . . K.0 0 >.c $ . . L.) 0 ) / M.. N., , , 0 }.; . . $ . . . ",
"+ . . @ . O.P.7 . + # . v , ) , Q.c.# % R.) ) ) S.; . . . . . + ",
"  + . . . . . . + + . _ < ) ) , < . + + d.B ) , ' T.@ . $ . . . ",
". .   . . @ + . .       U.0 , ) }.. + . @ V./ / C.h @ . . # . . ",
"# . + . . . + + # . . # 0., , P W.+ . @ . . p X.  . .   @ . . + ",
".   . @ . . + . . .   . I.N.B r @ . . @ . $ .   .     . .   . . ",
".   . . # . . #   . + + . . .   .   # . + . + . .   + . + . + + "};
