/* XPM */
static const char *IconFanModeOff_xpm[]={
"32 32 533 2",
"#E c #000000",
"#c c #000002",
"cs c #000004",
"bZ c #000005",
"eR c #000007",
"aW c #00000b",
"#s c #000100",
"bs c #000102",
"#A c #000103",
".5 c #000104",
"d3 c #000105",
"a2 c #000108",
"ag c #00010c",
"aG c #00010e",
"aA c #000112",
"#r c #000200",
"#B c #000201",
"ba c #000203",
"#T c #000204",
".6 c #000205",
"ev c #000209",
"bb c #00020d",
"aR c #000300",
"b2 c #000304",
"dd c #000305",
"bA c #000306",
"aa c #000307",
"an c #00030a",
"eG c #000310",
"en c #000400",
"fd c #000405",
"bh c #000406",
"#q c #000407",
"cC c #000408",
"eq c #000507",
"bw c #000516",
"cr c #000608",
"bq c #000717",
"bI c #000a21",
"fc c #000c23",
"#D c #010000",
"a0 c #010002",
"al c #010100",
"cX c #010101",
"br c #010103",
"dK c #010204",
"bl c #010206",
"fq c #010207",
"#t c #010300",
"#u c #010302",
"e2 c #010506",
"aL c #01080e",
"fp c #010818",
"eT c #010c12",
"aM c #020001",
"aF c #020100",
"#C c #020200",
"cb c #020202",
"a1 c #020204",
"#2 c #020307",
"bJ c #020308",
"#Z c #020403",
"ak c #020607",
"b7 c #020609",
"#f c #020700",
"cw c #02090f",
"ch c #020d13",
"#1 c #030000",
"cY c #030002",
".3 c #030004",
"bk c #030007",
"bE c #030009",
"eA c #030102",
".4 c #030200",
"b8 c #030303",
"#F c #030305",
"cZ c #030406",
"ee c #030502",
"eW c #030600",
"d9 c #030706",
"c0 c #03070a",
"bU c #030801",
"eK c #030a10",
"eb c #030e14",
"#U c #040000",
"d4 c #040005",
"#e c #04000a",
"fU c #040203",
"#0 c #040300",
"am c #040400",
"fg c #040406",
"eu c #040603",
"bY c #040b1b",
"dh c #040f15",
"ah c #050000",
"av c #050006",
"aB c #050100",
"#d c #050102",
"e3 c #050402",
"ei c #050500",
"fV c #05090a",
"fG c #050c12",
"ez c #050c1c",
"a8 c #051016",
"b1 c #060000",
"eO c #060200",
"ci c #070000",
"bN c #070200",
"f9 c #07080a",
"b0 c #080000",
"eL c #080300",
"gg c #080808",
"b# c #090909",
"#V c #090b0a",
"eQ c #0a080b",
"eC c #0a0f13",
"eY c #0b050f",
".7 c #0d1114",
"bF c #0f2638",
"f8 c #100b05",
"fv c #101519",
"cc c #102331",
"#3 c #102739",
".2 c #12171b",
"bV c #122533",
"ao c #122534",
"#G c #132634",
"eZ c #132635",
"ct c #132a3c",
"as c #141b2b",
"eS c #14223c",
"cF c #142736",
"ej c #142b3d",
".Q c #150f19",
"aQ c #151014",
"eH c #15233d",
"a3 c #16243e",
"aH c #17253f",
"e. c #172a38",
"du c #181413",
"dv c #181818",
".P c #19171a",
"dL c #19191b",
"cK c #192030",
".F c #1b1b1b",
"dA c #1d1815",
"dc c #1d1918",
"dw c #1d303f",
"fK c #1f2324",
"dt c #201a24",
"gf c #202022",
"bT c #24231e",
"fZ c #24282b",
"gh c #282327",
"#b c #282c2f",
"ec c #284160",
"bz c #294261",
".E c #2a2529",
"g. c #2a2e2f",
"d2 c #2a3f5e",
"b9 c #2a4362",
"ab c #2b405f",
"cq c #2b4463",
"cB c #2c3031",
"af c #2c405b",
"ca c #2d3029",
"bg c #2d415c",
"#p c #2d4261",
"aw c #2d4665",
"f. c #2e3128",
"ep c #2e3235",
"fu c #2e425d",
"fL c #2e4362",
"#S c #2e4766",
"bc c #2f435e",
"cm c #2f4463",
"eo c #30332c",
"az c #30445f",
"er c #313538",
"bx c #314560",
"bQ c #314665",
"aE c #323230",
"fx c #324553",
"aS c #324661",
"ed c #324766",
"bv c #333436",
"cE c #334762",
"f7 c #343440",
"cO c #343839",
"dz c #344863",
"bD c #393438",
"fH c #393a3c",
"dY c #3a4e69",
"cW c #3b3b3d",
"cN c #3d4142",
"fe c #3e3e3e",
"ff c #3f4344",
"c5 c #41588a",
"cJ c #425786",
"aK c #42598b",
"e1 c #425c81",
"f1 c #4267ab",
"dV c #434841",
"a7 c #435982",
"fb c #435d82",
"cg c #445b8d",
"bH c #445e83",
"fF c #44699d",
"fC c #446a99",
"fS c #446aab",
"bo c #446da3",
"au c #454648",
"bR c #454a4e",
"em c #455a89",
"dX c #455b84",
"fz c #4567a4",
"df c #4569a7",
"e# c #456a9e",
"eD c #456aae",
"cH c #456bac",
"a5 c #456ca3",
"e7 c #456ca7",
"e0 c #456ea4",
"bt c #464749",
"cx c #464847",
"ar c #465b8a",
"dg c #465c85",
"bp c #466085",
"fa c #466aa8",
"#n c #466ba2",
"ad c #466baf",
"fM c #466c9b",
"ap c #466cad",
"bn c #466da4",
"dy c #466da8",
"cv c #475c8b",
"fo c #475d86",
"fm c #47669c",
"#J c #4769a6",
".# c #476aa4",
"#5 c #476ca0",
"#Q c #476ca3",
"d0 c #476cb0",
"bW c #476dae",
".w c #476ea5",
"be c #476ea9",
"ek c #48679d",
"eI c #48699c",
"cf c #486aa7",
".x c #486ba5",
"#I c #486da1",
"c. c #486da4",
"bO c #486db1",
"ex c #486eaf",
"dx c #486fa6",
"aU c #486faa",
"#R c #4969a4",
"aT c #496ca6",
"dJ c #496dab",
"ce c #496ea2",
"co c #496ea5",
".Z c #496eb2",
"#o c #496f9e",
"eF c #4a4b4d",
"fT c #4a5f8e",
".Y c #4a66a5",
"eJ c #4a67a9",
"cp c #4a6aa5",
"c2 c #4a6b9e",
"ea c #4a6ca9",
"bf c #4a6da7",
"a6 c #4a6eac",
"el c #4a6fa3",
"fN c #4a6fa6",
"cD c #4a6fb3",
"#H c #4a7095",
"fn c #4a70b1",
"ds c #4b524a",
"fi c #4b669b",
"#m c #4b6ba6",
"bm c #4b6c9f",
"aq c #4b6daa",
"ay c #4b6ea8",
".W c #4b6fad",
"#i c #4b71b2",
"de c #4b72a9",
"ft c #4c5053",
"ew c #4c66a3",
"f3 c #4c679c",
"#4 c #4c6ba1",
"bP c #4c6ca7",
"bd c #4c6d96",
".v c #4c6da0",
"cI c #4c6eab",
"e8 c #4c6fa9",
"#6 c #4c71a5",
"cd c #4c7297",
"cn c #4c72a1",
"cP c #4d5152",
"di c #4d534f",
"ax c #4d689d",
".z c #4d69a8",
"#j c #4d6aac",
"cu c #4d6ca2",
"d1 c #4d6da8",
"e6 c #4d6e97",
"aI c #4d6ea1",
"ey c #4d6fac",
"fB c #4d72a9",
"c# c #4d73a2",
"c6 c #4e555b",
".U c #4e68a5",
"aJ c #4e699e",
"c1 c #4e6aa9",
"bX c #4e6bad",
"aV c #4e6f98",
"f2 c #4e6fa2",
"#P c #4e74a3",
"cG c #4f69a6",
".V c #4f6a9f",
"dZ c #4f6baa",
"c4 c #4f6cae",
"#h c #4f6ea4",
"ac c #4f6faa",
"fh c #4f72ac",
"fy c #4f74a8",
"Qt c #4f76b1",
"by c #506cab",
"dW c #506daf",
".0 c #5070ab",
"cj c #515556",
"#O c #516685",
"f# c #516ba8",
"gl c #516ca1",
"ae c #516dac",
"#g c #526573",
"a4 c #526992",
"c3 c #526da2",
"bG c #536daa",
".y c #536ea3",
"e5 c #545859",
"fA c #555658",
"a9 c #56514b",
"#7 c #566b9a",
"fR c #5670ad",
"cL c #595758",
"#z c #59575a",
"eX c #5b5b5b",
"cM c #5d5c57",
"eN c #5e595f",
".R c #5f6259",
"eM c #605b5f",
"dj c #605f5a",
".O c #616264",
"bK c #616566",
"eh c #616568",
".1 c #617695",
"fW c #646567",
"dI c #656567",
"e9 c #666165",
"d8 c #666769",
"f4 c #677eb0",
"fD c #687d9c",
"bj c #696a6e",
"cl c #696d6e",
"#K c #6980b2",
"aC c #6a6e6f",
"f0 c #6a7f9e",
"#k c #6b81aa",
".G c #6c6c6e",
"g# c #6d6e70",
"dB c #6f6b6a",
"eV c #6f6e69",
"gi c #6f7072",
"dk c #716c66",
"ge c #737375",
"aX c #747879",
"dR c #7b7c7e",
"ai c #7e8285",
"#v c #7f8384",
"bM c #808082",
"d5 c #808485",
"eP c #828385",
".8 c #85898c",
"f6 c #868485",
"aN c #868692",
".D c #868789",
"db c #878382",
"dS c #88888a",
"eU c #88898d",
"dQ c #888c8f",
".A c #8aa3c2",
"gk c #8ba4c3",
"fO c #8ca5c4",
"fj c #8e8f91",
".X c #90a4bf",
"#l c #90a9c8",
".a c #91a5c0",
"gs c #92a6c1",
"#a c #949295",
"cQ c #949899",
"fl c #958f9b",
"dM c #969698",
"dr c #989493",
"bi c #989792",
"bB c #9c979d",
"dU c #9f99a5",
"a# c #a5a0a6",
"dT c #a5a1a2",
"dl c #a6a5ab",
"aj c #a8aaa9",
"fr c #ababab",
".N c #abafb0",
"et c #aeb2b3",
"b3 c #b6b7b9",
"ef c #b6babb",
"aZ c #bcb7b4",
"fE c #bcd3e5",
"eE c #bebec0",
".T c #bed5e7",
"fQ c #c0d3e2",
".u c #c1d4e3",
".S c #c5bfcb",
"dP c #c8cccf",
"ga c #cacbcd",
"fY c #cbcfd0",
"#W c #ced2d5",
"eB c #d0cbd1",
".H c #d0d0d2",
"e4 c #d1ccc9",
"b6 c #d2d2d4",
"at c #d9d7d8",
"c7 c #dad8d9",
"gj c #dcd7dd",
"dC c #dcd8d7",
"f5 c #dce3e9",
"cV c #dddbdc",
".C c #e1dce2",
"gd c #e1e1e3",
"cA c #e1e2e4",
"fJ c #e2e6e7",
"dq c #e5e5e3",
"fI c #e7e7e7",
"cy c #e7e8ea",
"dm c #e9e8e6",
"gm c #e9f4fa",
"fX c #eaeaea",
"#L c #ebf6fc",
"dH c #ece6f2",
"fw c #eeeef0",
"#8 c #eef5fb",
".M c #eff0f2",
"#y c #f4f0f1",
"cR c #f5f6f8",
"d6 c #f6f7f9",
"dp c #f6ffff",
"da c #f7f1f1",
"aD c #f7f3f2",
".l c #f7ffff",
"es c #f8f8fa",
"eg c #f8f9fb",
".k c #f8fdff",
"fP c #f8ffff",
"d7 c #f9f7fa",
"gp c #f9fbfa",
".m c #f9fdfc",
"#w c #f9fdfe",
"#9 c #f9fff9",
".b c #f9ffff",
"gc c #faf8f9",
"cz c #fafafa",
"bC c #fafbfd",
"cU c #fafcfb",
".9 c #fafeff",
"bS c #fbf6fc",
"gb c #fbfaf8",
"d. c #fbfbfb",
"fs c #fbfbfd",
"c9 c #fbfcfe",
"gq c #fbfdfc",
".q c #fbfffa",
"gn c #fbfffd",
".K c #fbfffe",
"#N c #fbffff",
"bL c #fcf8f7",
"ck c #fcfafb",
".s c #fcfcfc",
"c8 c #fcfcff",
".t c #fcfdff",
"d# c #fcfefd",
"dG c #fcfff6",
"#M c #fcfff8",
".B c #fcffff",
".L c #fdf9f8",
"dE c #fdfbfc",
"bu c #fdfcfa",
"aY c #fdfdfd",
"aP c #fdfeff",
"gr c #fdfff9",
"do c #fdfffe",
"dO c #fef9fd",
"## c #fefaf9",
"#. c #fefcfd",
"go c #fefdf8",
"b. c #fefdff",
".o c #fefefc",
"b4 c #fefefe",
"#X c #fefeff",
".c c #fefffa",
".f c #feffff",
"#Y c #fffafa",
"cT c #fffbf8",
".j c #fffbfa",
"dD c #fffbfb",
"dF c #fffbff",
".n c #fffcf9",
".p c #fffcfb",
".i c #fffcfc",
"fk c #fffcfd",
".r c #fffcff",
"#x c #fffdfa",
"dN c #fffdfc",
"b5 c #fffdfd",
"dn c #fffdfe",
".e c #fffdff",
"aO c #fffef8",
".d c #fffef9",
".g c #fffefb",
".h c #fffefd",
".J c #fffeff",
"a. c #fffffa",
"cS c #fffffd",
".I c #ffffff",
"Qt.#.a.b.c.d.e.f.g.h.h.i.g.j.f.k.l.m.h.n.o.f.o.p.q.r.h.s.t.u.v.w",
".x.y.z.A.B.C.D.E.F.G.H.I.J.J.I.f.K.I.L.J.M.N.O.P.Q.R.S.I.T.U.V.W",
".X.Y.Z.0.1.2.3.4.5.6.7.8.9.f#..h.h##.e#a#b.5#c#c#d#e#f#g#h#i#j#k",
".b#l#m#n#o#p#q#r#s#t#s#u#v#w.J#x.g#y#z#A#B#s#C#D#E#F#G#H#I#J#K#L",
"#M#N#O#P#Q#R#S#T#E#U#U#D#V#W#X#Y.o.O.5#Z#s#C#0#1#2#3#4#5#6#7#8#9",
"a.a#aaabacadaeafag#cahah#sai.I.hajak.5#salam#Eanao.Uapaqarasata.",
".eauav.6awaeaxayazaA#caB#saC.faDaE#c#c#CaF#EaGaHaIaJ#jaKaLaMaNaO",
"aPaQ#DaR#TaSaTaUaVazaW#E#uaXaYaZ#1a0a1#D#1a2a3a4a5a6a7a8#raFa9b.",
".gb#ba#B#Ebbbcbdbebfbgbh#rbi.ebjaRbk#U#Eblaobmbnbobpbqbr#Cbsbtbu",
".hbvbs#s#1#cbwbx.#.ybybzbAbBbCbDbkaRbE#cbFbGaJa6bHbIbJ#1#EbsbK.I",
"bLbM.5#tbN#U#caWaS.zbObPbQbRbSbT#1bEbUbV#4bWbXa7bYbZb0b1#Db2b3b4",
"b5b6b7#Z#DbN#1b8bhb9bPc.c#ab.8cacb#ccccdcecfcgch#c#UcibN#Ecj.t#.",
"#xckclbs#s#r#t#saR.5cmcncocpcqcrcsctcu#5#5cvcwaR#C#E#D#Ecxcycz.h",
".h.JcAcB.5.6.5.5#D.3cCab#mcD.zcEcFcGcHcIcJcKcLcMcNcOcPcQcR.IcScT",
"cUaY.JcVcW#cbrcXcYcZ.3c0b9c1aJ.xc2c3c4c5c6c7c8aOc9.B.t.fd.cScScS",
"#Nd#.p.gdadbdcahblcY#D#rddbxbfbededfdgdhdidjdkdldm.I.Idn.h.gcSdo",
"dp.B.h#xcS.fdqdrdsdtdudvcsdwbmdxdybfdzbh#raFcYcsdAdBdCdD.g.j.f#N",
".Bd..hdE.f.B.f.JdFdGdHdIct.UaJdJaT.y.Ycqc0.3dKcYcX#cdLdMdE.J.s.f",
"dN.hdO.JdPdQdRdSdTdUdVcccubWdWdXdYdZd0d1d2d3d4#D.5.6.5bAd5d6.J.h",
"cT.Jd7d8d9#s#E.4#Ebre.#He#eacgebddecbP#ncned.5#r#see#s#ubsefdn.n",
"cSegeh#s#sei#D#1csejek#IelemaLeneoepedcn#nbP#Seqcb#1#U.4#seresb5",
"d#et.5eualal#EevcFewexeyarezeA#DcMeBeC#paceD.zbcaWbrbN#U#sbAeE.h",
"cSeF#c#E#DcbeGeHeI.yeJaKeKaMaWeLeM.feN.5#SdZc3.#azaA#ceO#sbsePdN",
"dNeQ#F#DaBeReSa4.wdJdgeT#r#D#UbZeUdFeVeW#TazaTaUbdcEaW#E#sbseX.g",
".qeY#1cXcseZbm.we0e1ezbr#Ee2#ce3e4.Ie5#scXaWaze6e7e8azdd#raFe9aP",
".rf.#e#cbFf#c3fafbfcbZ#1#Cfdbsfe.h.fff#t#UfgaAazfhfibyawbA.3fj.e",
"fkfl#r#GfmfneJfofpfqciciaFbscZfrdNfsft#r#U#UbraWfubyd0#RbQfv.C.d",
".Ifwfx#HfyfzaKeb#F#1ci#UalbsfA.JdD.IdQ#s#DbN#1#E#Tcqd1fBfCfD.B.c",
".ffEek#6fFarfGaR#EalaF#E#sfHfI.h.gdnfJfK#B#see#seW.5fLfMfNacfOfP",
"fQfRfSeyfTbYfU#DbsbabsfVfWfXcScTdN#..ffYfZ.6.5.5#D.3.2f0d1f1dZ.a",
"f2f3dWf4f5f6f7f8f9g.g#ga.scSgbcS.f.Igc.Jgdgegfggghgigj.Bgk.zglaT",
".wa6#kgmgngoaOb.cSaY.I#..h.gcSgp#Ngq.h.nb5##.h.g.f.ra.gr.bgsaTaU"};
